<svg width="45" height="40" viewBox="0 0 45 40" fill="none" xmlns="http://www.w3.org/2000/svg">
<path d="M43.9978 9.25556L38.72 5.18889C38.3614 4.95865 37.9714 4.78127 37.5622 4.66222C37.1547 4.53032 36.7304 4.45699 36.3022 4.44444H21.1111L22.8911 15.5556H36.3022C36.6667 15.5556 37.1222 15.4733 37.56 15.3378C37.9978 15.2022 38.42 15.0156 38.7178 14.8133L43.9956 10.7422C44.2956 10.54 44.4444 10.2711 44.4444 10C44.4444 9.72889 44.2956 9.46 43.9978 9.25556ZM18.8889 0H16.6667C16.372 0 16.0894 0.117063 15.881 0.325437C15.6726 0.533811 15.5556 0.816426 15.5556 1.11111V8.88889H8.14222C7.77333 8.88889 7.32 8.97111 6.88222 9.10889C6.44222 9.24222 6.02222 9.42667 5.72444 9.63333L0.446667 13.7C0.146667 13.9022 0 14.1733 0 14.4444C0 14.7133 0.146667 14.9822 0.446667 15.1889L5.72444 19.26C6.02222 19.4622 6.44222 19.6489 6.88222 19.7822C7.32 19.9178 7.77333 20 8.14222 20H15.5556V38.8889C15.5556 39.1836 15.6726 39.4662 15.881 39.6746C16.0894 39.8829 16.372 40 16.6667 40H18.8889C19.1836 40 19.4662 39.8829 19.6746 39.6746C19.8829 39.4662 20 39.1836 20 38.8889V1.11111C20 0.816426 19.8829 0.533811 19.6746 0.325437C19.4662 0.117063 19.1836 0 18.8889 0Z" fill="white"/>
</svg>
