<svg width="28" height="28" viewBox="0 0 28 28" fill="none" xmlns="http://www.w3.org/2000/svg">
<path d="M14 0C11.2311 0 8.52431 0.821086 6.22202 2.35943C3.91973 3.89776 2.12532 6.08427 1.06569 8.64243C0.006066 11.2006 -0.271181 14.0155 0.269012 16.7313C0.809205 19.447 2.14258 21.9416 4.10051 23.8995C6.05844 25.8574 8.55301 27.1908 11.2687 27.731C13.9845 28.2712 16.7994 27.9939 19.3576 26.9343C21.9157 25.8747 24.1022 24.0803 25.6406 21.778C27.1789 19.4757 28 16.7689 28 14C27.996 10.2882 26.5197 6.72958 23.8951 4.10494C21.2704 1.4803 17.7118 0.00401459 14 0V0ZM14 25.6667C11.6926 25.6667 9.43692 24.9824 7.51835 23.7005C5.59978 22.4185 4.10443 20.5964 3.22141 18.4646C2.33839 16.3328 2.10735 13.9871 2.55751 11.7239C3.00767 9.46083 4.11881 7.38203 5.75043 5.75042C7.38204 4.11881 9.46084 3.00767 11.724 2.5575C13.9871 2.10734 16.3328 2.33838 18.4646 3.22141C20.5964 4.10443 22.4185 5.59977 23.7005 7.51835C24.9824 9.43692 25.6667 11.6925 25.6667 14C25.6633 17.0931 24.433 20.0586 22.2458 22.2458C20.0586 24.433 17.0932 25.6633 14 25.6667Z" fill="#E8426A"/>
<path d="M14.8365 5.90682C14.1638 5.78424 13.4723 5.81102 12.811 5.98527C12.1497 6.15952 11.5348 6.47697 11.0097 6.91518C10.4847 7.35338 10.0624 7.90161 9.77275 8.52109C9.48307 9.14056 9.33307 9.81613 9.33337 10.5C9.33337 10.8094 9.45629 11.1062 9.67508 11.3249C9.89388 11.5437 10.1906 11.6667 10.5 11.6667C10.8095 11.6667 11.1062 11.5437 11.325 11.3249C11.5438 11.1062 11.6667 10.8094 11.6667 10.5C11.6664 10.1567 11.7419 9.81763 11.8877 9.50687C12.0335 9.19612 12.246 8.92136 12.5102 8.70219C12.7744 8.48302 13.0837 8.32484 13.416 8.23892C13.7484 8.15301 14.0956 8.14148 14.4329 8.20515C14.8938 8.29462 15.3175 8.51944 15.65 8.85089C15.9825 9.18235 16.2086 9.60539 16.2995 10.066C16.3914 10.5495 16.328 11.0496 16.1184 11.4948C15.9089 11.9401 15.5639 12.3077 15.1329 12.5452C14.4191 12.9587 13.8292 13.5561 13.4248 14.2751C13.0203 14.9941 12.8161 15.8084 12.8334 16.6332V17.5C12.8334 17.8094 12.9563 18.1062 13.1751 18.3249C13.3939 18.5437 13.6906 18.6667 14 18.6667C14.3095 18.6667 14.6062 18.5437 14.825 18.3249C15.0438 18.1062 15.1667 17.8094 15.1667 17.5V16.6332C15.1521 16.2272 15.2446 15.8245 15.4351 15.4657C15.6256 15.1068 15.9072 14.8045 16.2517 14.5892C17.097 14.1249 17.7776 13.4102 18.2001 12.5433C18.6226 11.6764 18.7662 10.6999 18.611 9.7481C18.4559 8.79629 18.0097 7.91593 17.3338 7.22806C16.6579 6.5402 15.7855 6.07863 14.8365 5.90682Z" fill="#E8426A"/>
<path d="M15.1667 21C15.1667 20.3556 14.6444 19.8333 14 19.8333C13.3557 19.8333 12.8334 20.3556 12.8334 21C12.8334 21.6443 13.3557 22.1666 14 22.1666C14.6444 22.1666 15.1667 21.6443 15.1667 21Z" fill="#E8426A"/>
</svg>
