<svg width="28" height="28" viewBox="0 0 28 28" fill="none" xmlns="http://www.w3.org/2000/svg">
<path d="M15.146 1.17045C15.146 0.860524 15.2691 0.56329 15.4882 0.344137C15.7074 0.124985 16.0046 0.00186619 16.3145 0.00186619C19.4128 0.00526865 22.3831 1.23755 24.5739 3.42833C26.7647 5.61912 27.997 8.58949 28.0004 11.6877C28.0004 11.9977 27.8773 12.2949 27.6581 12.514C27.439 12.7332 27.1417 12.8563 26.8318 12.8563C26.5219 12.8563 26.2247 12.7332 26.0055 12.514C25.7864 12.2949 25.6632 11.9977 25.6632 11.6877C25.6604 9.20916 24.6746 6.8329 22.922 5.08028C21.1694 3.32766 18.7931 2.34182 16.3145 2.33904C16.0046 2.33904 15.7074 2.21592 15.4882 1.99677C15.2691 1.77762 15.146 1.48038 15.146 1.17045ZM16.3145 7.01338C17.5543 7.01338 18.7432 7.50586 19.6198 8.38247C20.4964 9.25908 20.9889 10.448 20.9889 11.6877C20.9889 11.9977 21.112 12.2949 21.3312 12.514C21.5503 12.7332 21.8475 12.8563 22.1575 12.8563C22.4674 12.8563 22.7646 12.7332 22.9838 12.514C23.2029 12.2949 23.3261 11.9977 23.3261 11.6877C23.3242 9.82873 22.5849 8.0464 21.2704 6.73189C19.9559 5.41737 18.1735 4.67807 16.3145 4.67621C16.0046 4.67621 15.7074 4.79933 15.4882 5.01848C15.2691 5.23763 15.146 5.53487 15.146 5.8448C15.146 6.15473 15.2691 6.45196 15.4882 6.67111C15.7074 6.89026 16.0046 7.01338 16.3145 7.01338ZM26.9405 19.5628C27.6177 20.2419 27.998 21.1618 27.998 22.1209C27.998 23.0799 27.6177 23.9998 26.9405 24.6789L25.8771 25.9047C16.3064 35.0676 -6.98356 11.7836 2.03792 2.18245L3.3818 1.01386C4.06165 0.355571 4.97333 -0.00859373 5.91962 0.000154031C6.86591 0.00890179 7.77071 0.389858 8.43827 1.06061C8.4745 1.09683 10.6399 3.90962 10.6399 3.90962C11.2824 4.58463 11.6401 5.48128 11.6386 6.4132C11.637 7.34512 11.2764 8.2406 10.6317 8.9135L9.27849 10.615C10.0274 12.4346 11.1284 14.0883 12.5184 15.4811C13.9084 16.8738 15.5599 17.9782 17.378 18.7308L19.0899 17.3694C19.7629 16.7252 20.6582 16.365 21.5899 16.3637C22.5215 16.3624 23.4179 16.72 24.0927 17.3624C24.0927 17.3624 26.9043 19.5266 26.9405 19.5628ZM25.3325 21.262C25.3325 21.262 22.5361 19.1106 22.4999 19.0744C22.2591 18.8357 21.9338 18.7017 21.5948 18.7017C21.2558 18.7017 20.9305 18.8357 20.6897 19.0744C20.6582 19.1071 18.3011 20.985 18.3011 20.985C18.1423 21.1114 17.9533 21.1943 17.7527 21.2254C17.5521 21.2566 17.3468 21.2349 17.1571 21.1626C14.8018 20.2857 12.6624 18.9128 10.8839 17.1369C9.10546 15.3611 7.72941 13.2238 6.84899 10.8697C6.77093 10.6774 6.74548 10.4678 6.77526 10.2624C6.80504 10.0571 6.88898 9.86333 7.01844 9.70113C7.01844 9.70113 8.89636 7.34292 8.92791 7.31254C9.16661 7.0718 9.30055 6.7465 9.30055 6.40747C9.30055 6.06845 9.16661 5.74315 8.92791 5.5024C8.89168 5.46734 6.74032 2.66858 6.74032 2.66858C6.49596 2.44948 6.17706 2.33214 5.84897 2.34061C5.52089 2.34909 5.20847 2.48273 4.97575 2.71415L3.63188 3.88274C-2.96129 11.8104 17.2214 30.8736 24.1686 24.3085L25.2332 23.0814C25.4827 22.8504 25.6325 22.5313 25.651 22.1918C25.6696 21.8523 25.5554 21.5188 25.3325 21.262Z" fill="#E8426A"/>
</svg>
