<svg width="29" height="28" viewBox="0 0 29 28" fill="none" xmlns="http://www.w3.org/2000/svg">
<path d="M26.9907 10.5619L18.1362 1.70625C17.0403 0.613585 15.5559 0 14.0084 0C12.4609 0 10.9765 0.613585 9.8806 1.70625L1.02613 10.5619C0.699763 10.8862 0.44101 11.272 0.264869 11.697C0.0887282 12.122 -0.00129624 12.5778 1.41012e-05 13.0379V24.4979C1.41012e-05 25.4267 0.368984 26.3175 1.02575 26.9743C1.68253 27.631 2.5733 28 3.50211 28H24.5147C25.4435 28 26.3343 27.631 26.9911 26.9743C27.6478 26.3175 28.0168 25.4267 28.0168 24.4979V13.0379C28.0181 12.5778 27.9281 12.122 27.7519 11.697C27.5758 11.272 27.317 10.8862 26.9907 10.5619ZM17.5105 25.6653H10.5063V21.0729C10.5063 20.144 10.8753 19.2533 11.532 18.5965C12.1888 17.9397 13.0796 17.5708 14.0084 17.5708C14.9372 17.5708 15.828 17.9397 16.4848 18.5965C17.1415 19.2533 17.5105 20.144 17.5105 21.0729V25.6653ZM25.6821 24.4979C25.6821 24.8075 25.5591 25.1044 25.3402 25.3234C25.1212 25.5423 24.8243 25.6653 24.5147 25.6653H19.8452V21.0729C19.8452 19.5248 19.2303 18.0402 18.1357 16.9456C17.041 15.851 15.5564 15.236 14.0084 15.236C12.4604 15.236 10.9758 15.851 9.88114 16.9456C8.78653 18.0402 8.17158 19.5248 8.17158 21.0729V25.6653H3.50211C3.19251 25.6653 2.89558 25.5423 2.67666 25.3234C2.45774 25.1044 2.33475 24.8075 2.33475 24.4979V13.0379C2.33583 12.7285 2.45871 12.432 2.67678 12.2125L11.5313 3.36041C12.1893 2.70543 13.08 2.33773 14.0084 2.33773C14.9369 2.33773 15.8275 2.70543 16.4856 3.36041L25.34 12.216C25.5573 12.4346 25.6801 12.7297 25.6821 13.0379V24.4979Z" fill="#E8426A"/>
</svg>
