<svg width="47" height="47" viewBox="0 0 47 47" fill="none" xmlns="http://www.w3.org/2000/svg">
<circle cx="23.5" cy="23.5" r="23.5" fill="white"/>
<path fill-rule="evenodd" clip-rule="evenodd" d="M17.0411 7.92725C18.7117 7.85034 19.2444 7.83325 23.5 7.83325C27.7557 7.83325 28.2883 7.85177 29.9576 7.92725C31.6268 8.00274 32.7662 8.26907 33.7631 8.65504C34.8071 9.04955 35.7542 9.66625 36.5376 10.4638C37.3351 11.2457 37.9504 12.1914 38.3435 13.2368C38.7309 14.2338 38.9958 15.3732 39.0727 17.0396C39.1496 18.713 39.1667 19.2457 39.1667 23.4999C39.1667 27.7556 39.1482 28.2882 39.0727 29.9589C38.9972 31.6252 38.7309 32.7646 38.3435 33.7616C37.9504 34.8071 37.3341 35.7544 36.5376 36.5374C35.7542 37.335 34.8071 37.9503 33.7631 38.3434C32.7662 38.7308 31.6268 38.9957 29.9604 39.0726C28.2883 39.1495 27.7557 39.1666 23.5 39.1666C19.2444 39.1666 18.7117 39.1481 17.0411 39.0726C15.3747 38.9971 14.2353 38.7308 13.2384 38.3434C12.1929 37.9502 11.2456 37.3339 10.4625 36.5374C9.66549 35.7551 9.0487 34.8082 8.65516 33.763C8.26919 32.766 8.00428 31.6266 7.92737 29.9603C7.85046 28.2868 7.83337 27.7541 7.83337 23.4999C7.83337 19.2443 7.85189 18.7116 7.92737 17.0424C8.00286 15.3732 8.26919 14.2338 8.65516 13.2368C9.04928 12.1915 9.66654 11.2448 10.4639 10.4624C11.2459 9.66554 12.1922 9.04876 13.2369 8.65504C14.2339 8.26907 15.3733 8.00416 17.0397 7.92725H17.0411ZM29.8308 10.7473C28.1787 10.6718 27.683 10.6561 23.5 10.6561C19.317 10.6561 18.8214 10.6718 17.1693 10.7473C15.6411 10.817 14.8122 11.072 14.2596 11.287C13.5289 11.5719 13.0062 11.9094 12.4579 12.4578C11.9381 12.9634 11.5381 13.579 11.2872 14.2594C11.0721 14.812 10.8172 15.6409 10.7474 17.1692C10.6719 18.8213 10.6562 19.3169 10.6562 23.4999C10.6562 27.6829 10.6719 28.1786 10.7474 29.8307C10.8172 31.3589 11.0721 32.1878 11.2872 32.7404C11.5378 33.4198 11.938 34.0365 12.4579 34.5421C12.9635 35.0619 13.5802 35.4621 14.2596 35.7128C14.8122 35.9279 15.6411 36.1828 17.1693 36.2526C18.8214 36.3281 19.3156 36.3437 23.5 36.3437C27.6845 36.3437 28.1787 36.3281 29.8308 36.2526C31.359 36.1828 32.1879 35.9279 32.7405 35.7128C33.4712 35.4279 33.9939 35.0904 34.5422 34.5421C35.062 34.0365 35.4622 33.4198 35.7129 32.7404C35.928 32.1878 36.1829 31.3589 36.2527 29.8307C36.3282 28.1786 36.3439 27.6829 36.3439 23.4999C36.3439 19.3169 36.3282 18.8213 36.2527 17.1692C36.1829 15.6409 35.928 14.812 35.7129 14.2594C35.4281 13.5288 35.0905 13.0061 34.5422 12.4578C34.0365 11.938 33.4209 11.538 32.7405 11.287C32.1879 11.072 31.359 10.817 29.8308 10.7473ZM21.499 28.3295C22.6165 28.7947 23.8609 28.8575 25.0196 28.5072C26.1783 28.1568 27.1794 27.415 27.852 26.4086C28.5245 25.4021 28.8268 24.1933 28.7071 22.9888C28.5875 21.7842 28.0533 20.6585 27.1959 19.804C26.6494 19.2578 25.9885 18.8395 25.2609 18.5794C24.5333 18.3192 23.757 18.2236 22.988 18.2995C22.219 18.3753 21.4764 18.6207 20.8136 19.018C20.1509 19.4153 19.5844 19.9546 19.1551 20.5971C18.7258 21.2396 18.4442 21.9693 18.3308 22.7336C18.2173 23.498 18.2747 24.278 18.4989 25.0175C18.723 25.757 19.1084 26.4376 19.6271 27.0103C20.1459 27.583 20.7852 28.0335 21.499 28.3295ZM17.8059 17.8058C18.5537 17.058 19.4414 16.4649 20.4184 16.0602C21.3954 15.6555 22.4425 15.4472 23.5 15.4472C24.5575 15.4472 25.6047 15.6555 26.5817 16.0602C27.5587 16.4649 28.4464 17.058 29.1942 17.8058C29.9419 18.5536 30.5351 19.4413 30.9398 20.4183C31.3445 21.3953 31.5527 22.4424 31.5527 23.4999C31.5527 24.5574 31.3445 25.6046 30.9398 26.5816C30.5351 27.5586 29.9419 28.4463 29.1942 29.194C27.684 30.7042 25.6357 31.5526 23.5 31.5526C21.3643 31.5526 19.3161 30.7042 17.8059 29.194C16.2957 27.6839 15.4473 25.6356 15.4473 23.4999C15.4473 21.3642 16.2957 19.316 17.8059 17.8058ZM33.3387 16.6465C33.524 16.4717 33.6723 16.2615 33.775 16.0283C33.8776 15.7951 33.9323 15.5438 33.9361 15.2891C33.9398 15.0344 33.8923 14.7815 33.7966 14.5454C33.7008 14.3094 33.5587 14.0949 33.3785 13.9148C33.1984 13.7347 32.984 13.5925 32.7479 13.4968C32.5119 13.401 32.259 13.3536 32.0043 13.3573C31.7496 13.361 31.4982 13.4158 31.265 13.5184C31.0319 13.621 30.8217 13.7693 30.6469 13.9546C30.3069 14.315 30.1208 14.7937 30.128 15.2891C30.1353 15.7844 30.3353 16.2575 30.6856 16.6078C31.0359 16.9581 31.5089 17.1581 32.0043 17.1653C32.4997 17.1725 32.9783 16.9864 33.3387 16.6465Z" fill="black"/>
</svg>
