<svg width="76" height="36" viewBox="0 0 76 36" fill="none" xmlns="http://www.w3.org/2000/svg">
<g clip-path="url(#clip0_88_2405)">
<path d="M48.1463 20.3205C45.3706 21.4716 42.5519 21.3518 39.8193 20.1065C38.9865 19.7257 38.6186 18.9083 38.823 17.9904C38.9262 17.5878 39.1576 17.2293 39.4826 16.9682C39.8075 16.7071 40.2087 16.5576 40.6261 16.5418C41.56 16.5226 42.2765 17.0339 42.496 17.9091C42.7391 18.8612 42.3561 20.0487 40.9338 20.4103C41.4653 20.5323 41.9925 20.6885 42.5282 20.7655C43.7194 20.9717 44.9447 20.8481 46.0699 20.4082C47.8515 19.6786 48.964 18.3413 49.575 16.5568C50.0426 15.1793 50.305 13.7412 50.354 12.2881C50.3948 11.1948 50.4013 10.0971 50.354 9.00375C50.3024 7.2738 49.906 5.57125 49.1877 3.99478C48.2969 2.1033 46.8682 0.81308 44.7811 0.35733C43.5116 0.0834515 42.2636 0.28458 40.9833 0.733911C41.1017 0.772425 41.1598 0.793822 41.22 0.810939C41.6545 0.92759 42.0346 1.19111 42.295 1.55621C42.5553 1.9213 42.6796 2.36518 42.6466 2.81154C42.6109 3.26247 42.4151 3.6861 42.0943 4.00672C41.7734 4.32735 41.3484 4.52409 40.8951 4.56179C40.4456 4.5961 39.9987 4.46872 39.6358 4.20284C39.2728 3.93696 39.018 3.55027 38.9177 3.11323C38.724 2.19745 39.0145 1.28381 40.0645 0.853732C46.8531 -1.92784 53.205 2.39216 54.4207 8.27198C55.574 13.8886 52.5164 18.506 48.1463 20.3205Z" fill="#E8426A"/>
<path d="M36.7316 18.5381C36.727 18.8829 36.6202 19.2186 36.4246 19.5033C36.229 19.788 35.9534 20.009 35.6321 20.1386C33.5712 21.0955 31.2495 21.3459 29.0303 20.8507C26.8111 20.3555 24.8196 19.1427 23.3674 17.402C21.5729 15.2837 20.7854 12.8466 20.8715 10.0928C20.9963 5.77925 23.9634 1.78662 28.1055 0.492115C30.5351 -0.279356 33.1646 -0.140854 35.4987 0.881537C36.5379 1.30947 36.7531 2.16534 36.6197 3.0533C36.4992 3.8728 35.716 4.5147 34.8725 4.56819C34.4488 4.59139 34.0295 4.47268 33.6816 4.23104C33.3336 3.9894 33.0772 3.63877 32.9532 3.23518C32.8777 2.98936 32.8525 2.73101 32.879 2.47534C32.9055 2.21968 32.9833 1.97188 33.1076 1.74655C33.2319 1.52122 33.4003 1.32292 33.6029 1.16333C33.8055 1.00375 34.0382 0.886106 34.2873 0.817346L34.4745 0.765996V0.659013C33.7988 0.528493 33.1254 0.340198 32.4433 0.278148C29.291 -0.00214919 27.092 2.05622 26.1754 4.31143C25.578 5.82174 25.2279 7.41748 25.1383 9.03797C25.0381 10.56 25.0813 12.0879 25.2674 13.6019C25.4374 15.0098 25.745 16.3835 26.4164 17.6544C27.4191 19.5395 29.0113 20.5729 31.1501 20.7976C32.2274 20.9139 33.3172 20.7911 34.3411 20.4381L34.5089 20.3761C34.5321 20.3628 34.5537 20.347 34.5734 20.329C32.8521 20.0059 32.5853 18.1273 33.3663 17.1923C33.6219 16.8881 33.9679 16.6724 34.3546 16.5763C34.7413 16.4802 35.1486 16.5085 35.518 16.6573C35.8919 16.8064 36.2097 17.0677 36.4272 17.4048C36.6447 17.7419 36.7511 18.1381 36.7316 18.5381Z" fill="#E8426A"/>
<path d="M19.3631 14.7188C19.3201 16.5546 18.6078 18.0717 16.9704 18.9982C13.7213 20.8426 9.76653 18.9982 9.00913 15.6218C8.94628 15.3501 8.9131 15.0725 8.91016 14.7937C8.91016 10.8382 8.91016 6.88119 8.91016 2.92279C8.91016 2.84577 8.91016 2.76874 8.92092 2.67673H11.6342V3.07257C11.6342 6.86835 11.6342 10.6656 11.6342 14.4642C11.6096 15.3993 11.7029 16.3337 11.9118 17.2458C12.2496 18.5681 13.0887 19.4068 14.2786 19.5074C15.1845 19.5814 16.0902 19.3623 16.8607 18.8826C17.5547 18.4946 18.1352 17.9337 18.5453 17.2551C18.9553 16.5765 19.1808 15.8034 19.1996 15.0119C19.2555 13.9892 19.2254 12.96 19.2275 11.933C19.2275 8.96309 19.2275 5.99322 19.2275 3.02336C19.2275 2.9014 19.2404 2.7773 19.2469 2.65533H19.3437C19.3591 2.75817 19.3691 2.86173 19.3739 2.96559C19.3739 5.66586 19.3739 8.36684 19.3739 11.0685C19.3717 12.286 19.3911 13.5056 19.3631 14.7188Z" fill="#E8426A"/>
<path d="M68.2819 2.48843L61.5019 19.0217L61.631 19.0795C61.6826 18.9746 61.7386 18.8655 61.7816 18.7628C62.8689 16.1139 63.9534 13.4635 65.035 10.8118C65.0582 10.7279 65.1116 10.6555 65.1849 10.6082C65.2583 10.5608 65.3466 10.5419 65.433 10.555C66.425 10.555 67.4169 10.5678 68.411 10.555C68.5065 10.5402 68.604 10.562 68.6839 10.616C68.7638 10.67 68.8201 10.7523 68.8413 10.846C69.8741 13.4949 70.9242 16.1396 71.9591 18.7863C71.9802 18.8754 72.0341 18.9534 72.1102 19.0049C72.1863 19.0564 72.279 19.0776 72.3701 19.0645C73.192 19.0495 74.014 19.0645 74.8359 19.0645C74.9199 19.0645 75.0016 19.0516 75.1135 19.0431L68.2819 2.48843ZM65.2157 10.4202C65.7902 9.01016 66.3604 7.6044 66.965 6.1216C67.546 7.60012 68.0968 8.99518 68.6563 10.4202H65.2157Z" fill="#E8426A"/>
<path d="M7.46422 18.8933C7.46422 18.9404 7.46422 18.9896 7.46422 19.0367H0.0860596V2.68958H2.77998V18.8933H7.46422Z" fill="#E8426A"/>
<path d="M58.9048 2.68958H56.2173V19.0367H58.9048V2.68958Z" fill="#E8426A"/>
<path d="M39.2318 13.0392L39.0619 13.189C39.0942 13.1077 39.1286 13.0285 39.1609 12.9472L39.2318 13.0392Z" fill="#1D1D1B"/>
<path d="M40.1355 15.2002C37.504 16.5632 34.0075 15.7394 32.6197 12.6497C31.7418 10.6919 31.9225 8.79833 33.2544 7.05236C33.3685 6.88321 33.5147 6.73785 33.6848 6.62442C33.7494 6.60232 33.8182 6.59507 33.886 6.60322C33.9538 6.61138 34.0189 6.63472 34.0764 6.6715C34.2033 6.7528 34.1882 6.88546 34.0764 7.02882C33.5062 7.76701 33.5019 8.40891 34.0204 9.20059C34.0866 9.31282 34.1095 9.44511 34.085 9.57289C33.9768 10.0225 34.0453 10.4962 34.2765 10.8974C34.3582 10.9926 34.4658 11.0624 34.5863 11.0985C34.9134 11.2418 35.0037 11.4152 34.9091 11.6591C34.9758 11.7703 35.0532 11.8474 35.064 11.9308C35.076 12.0504 35.0605 12.1711 35.0188 12.2839C34.9177 12.5642 34.8445 12.7974 35.2942 12.8145C35.3566 12.8145 35.4857 13.0841 35.4556 13.1975C35.3609 13.5591 35.589 13.5634 35.8235 13.5933C35.8042 13.2232 36.0516 13.3794 36.2324 13.3794C36.1298 13.5295 36.0371 13.686 35.9548 13.848C35.901 13.9699 35.9419 14.0619 36.114 14.0277C36.3292 13.9742 36.4626 14.0277 36.4992 14.2759C36.5001 14.3346 36.515 14.3922 36.5426 14.4441C36.5701 14.496 36.6097 14.5406 36.6579 14.5744C36.7062 14.6082 36.7618 14.6302 36.8202 14.6385C36.8786 14.6469 36.9382 14.6414 36.9941 14.6225C37.2917 14.5516 37.5733 14.4261 37.8246 14.2524C38.255 13.9229 38.6552 13.5505 39.0618 13.1825C38.9908 13.3537 38.9198 13.527 38.8467 13.711C39.404 14.0822 39.8495 14.5969 40.1355 15.2002Z" fill="#1D1D1B"/>
<path d="M43.021 10.7561C42.9392 10.6427 42.8833 10.5678 42.8295 10.4887C42.1388 9.44665 41.149 9.04653 39.9333 9.20486C39.2146 9.30543 38.5089 9.51939 37.7816 9.60926C36.9554 9.7141 36.1162 9.75476 35.3782 9.23482C35.0151 8.99938 34.7305 8.66203 34.5605 8.26555C34.4536 7.99507 34.4412 7.69667 34.5255 7.41838C34.6099 7.14009 34.7859 6.89811 35.0253 6.7314C35.134 6.65515 35.2577 6.60276 35.3883 6.57769C35.5189 6.55263 35.6534 6.55547 35.7828 6.58602C35.9122 6.61658 36.0336 6.67415 36.139 6.75491C36.2443 6.83568 36.3312 6.9378 36.3938 7.05449C36.4647 7.16253 36.4939 7.29241 36.4761 7.42019C36.4583 7.54798 36.3947 7.66507 36.2969 7.74989C36.2873 7.72237 36.2822 7.69345 36.2819 7.6643C36.3206 7.35191 36.2582 7.07589 35.9462 6.93895C35.8211 6.88939 35.6841 6.87696 35.552 6.90316C35.4199 6.92936 35.2982 6.99307 35.2017 7.08659C35.0782 7.18214 34.9862 7.31222 34.9375 7.46014C34.8888 7.60806 34.8856 7.76708 34.9285 7.91678C34.9818 8.1461 35.0897 8.3593 35.2433 8.53842C35.3968 8.71754 35.5914 8.85732 35.8107 8.94596C36.515 9.27837 37.321 9.32818 38.0613 9.08504C38.851 8.82614 39.6385 8.58008 40.4906 8.64213C41.4481 8.71274 42.2851 9.00373 42.8833 9.80825C42.9774 9.94537 43.0387 10.102 43.0625 10.2663C43.0864 10.4306 43.0722 10.5981 43.021 10.7561Z" fill="#1D1D1B"/>
<path d="M42.042 13.5527C41.943 13.649 41.8634 13.7667 41.7429 13.91C41.1124 12.4336 40.0215 11.4515 38.6509 10.7005C39.4056 10.7556 40.1166 11.0738 40.6584 11.5992C41.1576 12.0528 41.5901 12.5813 42.0592 13.0691C42.0987 13.0968 42.1306 13.1338 42.1521 13.1768C42.1736 13.2198 42.184 13.2675 42.1823 13.3155C42.1805 13.3636 42.1668 13.4104 42.1423 13.4518C42.1178 13.4932 42.0833 13.5279 42.042 13.5527Z" fill="#1D1D1B"/>
<path d="M42.199 7.47815C40.4777 7.17432 38.8209 6.95821 37.1834 7.59797C37.4868 7.31126 38.242 6.98817 38.9048 6.85551C39.7419 6.70121 40.5985 6.68243 41.4416 6.79988C41.8461 6.84695 41.9387 7.19999 42.199 7.47815Z" fill="#1D1D1B"/>
<path d="M42.7843 11.9565C41.948 11.1204 40.8972 10.5284 39.7461 10.2448C40.8404 10.2831 41.8874 10.6975 42.709 11.4173C42.7544 11.4438 42.7933 11.4801 42.8226 11.5237C42.8519 11.5672 42.8709 11.6168 42.8781 11.6687C42.8854 11.7206 42.8807 11.7735 42.8644 11.8233C42.8482 11.8732 42.8208 11.9187 42.7843 11.9565Z" fill="#1D1D1B"/>
<path d="M38.6165 5.12665C37.943 5.45402 37.3599 5.85628 36.9833 6.49604L36.9231 6.44469C37.1383 6.0895 37.319 5.7172 37.5557 5.37485C37.8612 4.92124 37.9989 4.90412 38.6165 5.12665Z" fill="#1D1D1B"/>
<path d="M35.4879 5.42194L34.3626 6.9411C34.3109 6.0403 34.5562 5.70223 35.4879 5.42194Z" fill="#1D1D1B"/>
<path d="M36.2152 10.6855C36.1936 11.2055 35.9118 11.4515 35.3545 11.4258L35.6019 11.2119L35.262 11.0193L35.3158 10.9787C35.477 11.0212 35.6446 11.0349 35.8106 11.0193C35.9484 10.968 36.0624 10.8118 36.2152 10.6855Z" fill="#1D1D1B"/>
<path d="M35.7999 10.1634C35.4605 10.2943 35.1796 10.5417 35.0081 10.861C34.9672 10.9273 34.8338 10.9401 34.7456 10.9786C34.7456 10.8802 34.7262 10.754 34.7778 10.6855C34.8884 10.5182 35.0406 10.3821 35.2197 10.2906C35.3988 10.1991 35.5987 10.1553 35.7999 10.1634Z" fill="#1D1D1B"/>
<path d="M0 22.9523H1.5858V23.1341H0.20441V23.99H1.34481V24.1676H0.20441V25.1925H1.69338V25.368H0V22.9523Z" fill="#E8426A"/>
<path d="M5.4352 24.9144C5.50863 25.0131 5.607 25.0909 5.72035 25.1397C5.8337 25.1886 5.95801 25.2068 6.08071 25.1925C6.38194 25.1925 6.69394 24.9785 6.69394 24.7175C6.69394 23.9665 5.26306 24.4843 5.26306 23.5942C5.26306 23.2005 5.67404 22.9523 6.08071 22.9523C6.22639 22.945 6.37142 22.9762 6.50105 23.0427C6.63068 23.1092 6.74029 23.2087 6.81874 23.331L6.63584 23.3995C6.57517 23.3102 6.49188 23.2385 6.39441 23.1916C6.29694 23.1446 6.18872 23.1241 6.08071 23.132C5.78377 23.132 5.46962 23.3117 5.46962 23.6027C5.46962 24.3003 6.91557 23.7782 6.91557 24.7261C6.91557 25.1219 6.48523 25.368 6.08071 25.368C5.92759 25.3815 5.77353 25.356 5.63309 25.2939C5.49266 25.2317 5.37048 25.135 5.27812 25.0128L5.4352 24.9144Z" fill="#E8426A"/>
<path d="M12.1786 22.9523V23.1341H11.4276V25.3594H11.2254V23.1341H10.4572V22.9566L12.1786 22.9523Z" fill="#E8426A"/>
<path d="M16.1033 22.9523V23.99H17.5578V22.642H17.773V25.9157H17.5578V24.1676H16.0968V25.3509H15.8817V22.9523H16.1033Z" fill="#E8426A"/>
<path d="M21.4589 22.9523H23.0468V23.1341H21.6654V23.99H22.8058V24.1676H21.6654V25.1925H23.1523V25.368H21.4567L21.4589 22.9523Z" fill="#E8426A"/>
<path d="M28.5315 22.9523V23.1341H27.7805V25.3594H27.5783V23.1341H26.8209V22.9566L28.5315 22.9523Z" fill="#E8426A"/>
<path d="M32.269 22.9523H32.4734V25.3616H32.269V22.9523Z" fill="#E8426A"/>
<path d="M36.1656 22.9501H36.3808V24.3088L37.7579 22.9523H38.0226L37.0586 23.9151L38.5024 25.8751H38.2549L36.9123 24.0499L36.3808 24.5634V25.3594H36.1656V22.9501Z" fill="#E8426A"/>
<path d="M47.1953 22.9373C47.5555 22.9397 47.9018 23.0764 48.1657 23.3203L48.0172 23.4401C47.909 23.3341 47.7805 23.2507 47.6393 23.1948C47.4981 23.139 47.3471 23.1118 47.1953 23.1149C47.0495 23.1001 46.9022 23.116 46.7629 23.1613C46.6236 23.2067 46.4955 23.2807 46.3867 23.3784C46.278 23.476 46.1911 23.5953 46.1316 23.7285C46.0721 23.8617 46.0413 24.0058 46.0413 24.1516C46.0413 24.2973 46.0721 24.4414 46.1316 24.5746C46.1911 24.7078 46.278 24.8271 46.3867 24.9248C46.4955 25.0224 46.6236 25.0964 46.7629 25.1418C46.9022 25.1871 47.0495 25.203 47.1953 25.1882C47.5099 25.1795 47.8112 25.0596 48.0452 24.8502L48.1893 24.9743C47.9213 25.2274 47.5649 25.367 47.1953 25.3637C46.4572 25.3637 45.844 24.8266 45.844 24.1548C45.844 23.4829 46.4551 22.9373 47.1953 22.9373Z" fill="#E8426A"/>
<path d="M51.8838 22.9523H53.4717V23.1341H52.0882V23.99H53.2307V24.1676H52.0882V25.1925H53.5793V25.368H51.8838V22.9523Z" fill="#E8426A"/>
<path d="M57.22 22.9523H57.4094L58.8855 24.9743V22.2954H59.0856V25.3594H58.9285L57.4223 23.2989V25.3594H57.2179L57.22 22.9523Z" fill="#E8426A"/>
<path d="M64.5228 22.9523V23.1341H63.7719V25.3594H63.5675V23.1341H62.8123V22.9566L64.5228 22.9523Z" fill="#E8426A"/>
<path d="M68.2539 22.9523H69.844V23.1341H68.4626V23.99H69.603V24.1676H68.4626V25.1925H69.9516V25.368H68.2582L68.2539 22.9523Z" fill="#E8426A"/>
<path d="M73.7945 25.3594H73.5793V22.9523H74.6552C74.8634 22.9412 75.0676 23.0127 75.2229 23.151C75.3782 23.2894 75.4719 23.4834 75.4836 23.6905C75.4795 23.842 75.4285 23.9886 75.3376 24.1103C75.2468 24.2321 75.1205 24.323 74.9758 24.3709C74.8572 24.4104 74.7329 24.4299 74.6079 24.4286L75.9914 25.7617H75.7117L74.1625 24.2639H74.6552C74.7337 24.2707 74.8127 24.2612 74.8873 24.236C74.9618 24.2108 75.0303 24.1705 75.0884 24.1176C75.1465 24.0647 75.1928 24.0003 75.2245 23.9286C75.2563 23.8569 75.2726 23.7795 75.2726 23.7011C75.2726 23.6228 75.2563 23.5454 75.2245 23.4737C75.1928 23.402 75.1465 23.3376 75.0884 23.2847C75.0303 23.2318 74.9618 23.1915 74.8873 23.1663C74.8127 23.1411 74.7337 23.1316 74.6552 23.1384H73.7945V25.3594Z" fill="#E8426A"/>
<path d="M21.9559 34.5472C21.9464 34.5231 21.9464 34.4963 21.9559 34.4723C22.0176 34.3082 22.0821 34.1563 22.1495 34.0165L22.2894 33.7148C22.2966 33.6968 22.3023 33.6782 22.3066 33.6592C22.3066 33.6399 22.2872 33.6185 22.2507 33.5971C22.2122 33.5787 22.1761 33.5557 22.1431 33.5287C22.132 33.5169 22.1187 33.5075 22.1039 33.5008C22.0891 33.4942 22.0732 33.4906 22.057 33.4902L21.9946 33.5051C21.9746 33.5129 21.9536 33.518 21.9322 33.5201C21.9079 33.5187 21.884 33.5136 21.8612 33.5051L21.8074 33.4816C21.8032 33.4718 21.7996 33.4618 21.7967 33.4516C21.7956 33.4494 21.7951 33.447 21.7951 33.4445C21.7951 33.4421 21.7956 33.4397 21.7966 33.4374C21.7977 33.4352 21.7991 33.4332 21.801 33.4316C21.8029 33.43 21.8051 33.4288 21.8074 33.4281C21.8419 33.408 21.8788 33.3922 21.9171 33.381C21.9423 33.3735 21.965 33.3595 21.9828 33.3403C22.0006 33.3211 22.0128 33.2974 22.0183 33.2719C22.0194 33.2642 22.0221 33.2569 22.0262 33.2503C22.0302 33.2436 22.0356 33.2379 22.0419 33.2334C22.0419 33.2334 22.0635 33.2334 22.0807 33.2505C22.0991 33.2697 22.123 33.2829 22.1491 33.2882C22.1753 33.2936 22.2024 33.2909 22.227 33.2805L22.4228 33.227C22.4534 33.2188 22.4818 33.204 22.506 33.1837C22.5301 33.1633 22.5495 33.1379 22.5627 33.1093L22.7778 32.7156C22.8703 32.5401 22.9392 32.4075 22.9801 32.3198C23.0119 32.2552 23.0471 32.1923 23.0855 32.1315L23.1673 31.9945L23.1974 31.941C23.1974 31.9089 23.1974 31.894 23.1673 31.894C23.1387 31.8907 23.1098 31.8907 23.0812 31.894C23.0272 31.904 22.9726 31.9105 22.9177 31.9132L22.7456 31.9239C22.5906 31.9422 22.4346 31.95 22.2786 31.9475H22.0463C21.9544 31.9448 21.8629 31.9341 21.773 31.9154C21.7203 31.908 21.6697 31.8898 21.6245 31.8619C21.6001 31.8494 21.5793 31.8308 21.5642 31.8079C21.5491 31.785 21.5402 31.7586 21.5385 31.7313C21.5422 31.7046 21.5479 31.6781 21.5557 31.6522C21.5969 31.5484 21.6543 31.4516 21.7256 31.3655C21.8055 31.2625 21.8956 31.1679 21.9946 31.083L22.1926 30.9161C22.3594 30.78 22.5339 30.6535 22.7154 30.5374C22.7456 30.5181 22.8833 30.439 23.1286 30.3063C23.509 30.0902 23.9105 29.9131 24.327 29.7778C24.6283 29.6858 24.8564 29.6216 25.0134 29.5852C25.3312 29.503 25.6577 29.4585 25.986 29.4526C26.2174 29.4482 26.4475 29.4882 26.6638 29.5703C26.7884 29.6118 26.8972 29.6902 26.9758 29.7949C27.0581 29.893 27.1044 30.016 27.107 30.1437C27.1056 30.2069 27.0924 30.2693 27.0683 30.3277C27.0261 30.4287 26.9696 30.523 26.9005 30.608L26.7735 30.7706C26.6904 30.8781 26.5959 30.9764 26.4917 31.0638C26.3841 31.1579 26.3174 31.2114 26.298 31.2264C26.0454 31.4306 25.7825 31.622 25.5105 31.7998L25.3168 31.9325L24.9812 32.1593C24.8045 32.2814 24.6198 32.3915 24.4282 32.4888L23.8687 32.7841C23.7224 32.8568 23.5567 32.936 23.3695 33.0237L23.1286 33.1393C23.0796 33.1596 23.0366 33.192 23.0038 33.2334C22.9822 33.2634 22.9564 33.3061 22.9263 33.3575C22.9 33.4004 22.8713 33.4419 22.8402 33.4816L22.8252 33.5116C22.8252 33.5372 22.8424 33.5522 22.879 33.5586C22.9321 33.5751 22.987 33.5852 23.0425 33.5886L23.1823 33.6036C23.3579 33.6258 23.5347 33.6365 23.7117 33.6356C24.0477 33.6359 24.383 33.6022 24.7122 33.5351C24.9974 33.4792 25.2773 33.3997 25.5492 33.2976C25.7131 33.2439 25.8704 33.1721 26.0183 33.0836C26.0489 33.0625 26.0832 33.0473 26.1194 33.0387C26.1266 33.0384 26.1337 33.0395 26.1404 33.0421C26.147 33.0447 26.1531 33.0486 26.1581 33.0537C26.1618 33.0594 26.1637 33.0661 26.1637 33.0729C26.1637 33.0797 26.1618 33.0864 26.1581 33.0922C26.1449 33.1314 26.1172 33.1643 26.0807 33.1842C25.7436 33.398 25.3737 33.5555 24.9855 33.6506C24.5393 33.7653 24.08 33.8222 23.6191 33.8197C23.3309 33.8188 23.0432 33.7959 22.7585 33.7512H22.7283C22.7041 33.7502 22.6801 33.7561 22.6591 33.7682C22.6381 33.7803 22.6211 33.7982 22.61 33.8197L22.4637 34.0336C22.3681 34.1597 22.2846 34.2944 22.2141 34.4359L22.1431 34.575C22.1173 34.6156 22.0914 34.637 22.0656 34.637C22.0428 34.636 22.021 34.6277 22.0032 34.6135C21.9826 34.5952 21.9664 34.5725 21.9559 34.5472ZM23.2469 32.8846L23.2899 32.8696L23.3609 32.8397C23.4995 32.7936 23.6335 32.7348 23.7612 32.6642C23.8881 32.5958 24.0559 32.4973 24.2646 32.3754L24.4798 32.2513C24.7811 32.0651 25.0048 31.9218 25.1511 31.8233C25.2028 31.7913 25.2609 31.7527 25.3254 31.7057C25.39 31.6586 25.4674 31.6115 25.5557 31.5602C25.7994 31.4073 26.0317 31.2371 26.2507 31.0509C26.4118 30.912 26.5628 30.7619 26.7025 30.6016C26.8025 30.4925 26.882 30.3664 26.9371 30.2293C26.9569 30.1833 26.9672 30.1338 26.9672 30.0838C26.9672 30.0171 26.9482 29.9517 26.9124 29.8953C26.8766 29.8389 26.8255 29.7937 26.7649 29.765C26.6242 29.6913 26.471 29.6442 26.3131 29.6259C26.2536 29.6228 26.194 29.6228 26.1345 29.6259H25.73C25.612 29.6268 25.4945 29.6397 25.3792 29.6644C25.2544 29.6901 25.0931 29.7286 24.8951 29.78C24.5612 29.8702 24.2334 29.9817 23.9139 30.1137C23.3316 30.3488 22.7854 30.6643 22.2915 31.0509C22.1341 31.1733 21.9949 31.3174 21.8784 31.4789C21.8282 31.5465 21.7836 31.618 21.745 31.6928C21.7423 31.7084 21.7423 31.7243 21.745 31.7399C21.745 31.772 21.7687 31.7913 21.8139 31.802H21.8612H22.1947C22.2528 31.802 22.3389 31.802 22.4529 31.7848C22.567 31.7677 22.6939 31.7656 22.8833 31.7549C22.9377 31.7517 22.9923 31.7517 23.0468 31.7549C23.1018 31.7532 23.1568 31.7589 23.2103 31.772C23.226 31.7748 23.242 31.7748 23.2577 31.772C23.2783 31.7713 23.2982 31.7644 23.3147 31.7522C23.3312 31.7399 23.3436 31.723 23.3502 31.7035C23.3547 31.6995 23.3584 31.6945 23.361 31.689C23.3636 31.6835 23.365 31.6775 23.3652 31.6714L23.7482 31.006L23.9268 30.6487L23.9505 30.5652V30.5481H23.9376L23.9139 30.5609L23.8989 30.5716C23.814 30.6487 23.7192 30.7142 23.617 30.7664C23.5197 30.8109 23.4303 30.8709 23.3523 30.9439C23.3475 30.9493 23.3415 30.9535 23.3348 30.9561C23.3281 30.9587 23.3208 30.9597 23.3136 30.9589C23.3136 30.9589 23.2985 30.9589 23.2835 30.9589V30.9354C23.3229 30.8825 23.3668 30.8331 23.4147 30.7877L23.5567 30.6722C23.5806 30.6467 23.6065 30.623 23.6342 30.6016C23.6677 30.5737 23.6986 30.5429 23.7267 30.5096C23.7891 30.4418 23.8617 30.3841 23.9419 30.3384L24.0108 30.2999C24.0242 30.2972 24.0381 30.2972 24.0516 30.2999C24.0644 30.2975 24.0776 30.2975 24.0904 30.2999L24.1205 30.3149C24.1482 30.3273 24.1708 30.3486 24.1849 30.3754C24.1989 30.4022 24.2035 30.4328 24.1979 30.4625L24.1528 30.6016C24.1115 30.7232 24.0604 30.8413 24 30.9546C23.9397 31.0659 23.8558 31.2135 23.7461 31.3997L23.5051 31.8105C23.4893 31.839 23.4791 31.8702 23.475 31.9025C23.4767 31.925 23.4849 31.9466 23.4986 31.9646C23.519 32.0081 23.5292 32.0556 23.5288 32.1036C23.5274 32.1433 23.5224 32.1826 23.5137 32.2213C23.4995 32.2742 23.4808 32.3257 23.4578 32.3754L23.3738 32.5615L23.3222 32.6771C23.2985 32.7284 23.277 32.7734 23.2555 32.8097C23.2471 32.8264 23.242 32.8446 23.2404 32.8632C23.2211 32.8846 23.234 32.8953 23.2555 32.8846H23.2469ZM22.6832 33.3725C22.692 33.3615 22.6973 33.348 22.6982 33.334L22.6832 33.319C22.6702 33.3238 22.6588 33.3322 22.6504 33.3432C22.6421 33.3542 22.637 33.3673 22.6358 33.381C22.6358 33.3917 22.6358 33.396 22.653 33.396C22.6702 33.396 22.681 33.3896 22.6918 33.3725H22.6832ZM22.9327 32.9638L23.064 32.7156C23.1522 32.5444 23.2318 32.3797 23.2985 32.2192C23.2969 32.2107 23.2969 32.202 23.2985 32.1935C23.3028 32.1818 23.3028 32.1689 23.2985 32.1571H23.2749C23.2232 32.2342 23.1953 32.2791 23.1888 32.2898L23.0425 32.5594C22.9631 32.6981 22.8913 32.841 22.8273 32.9873L22.8036 33.0408C22.8036 33.0558 22.8036 33.0644 22.8036 33.0644C22.8113 33.0671 22.8197 33.0671 22.8273 33.0644C22.8756 33.0462 22.9149 33.0101 22.9371 32.9638H22.9327Z" fill="#1D1D1B"/>
<path d="M26.5476 33.5586C26.4737 33.5576 26.4006 33.5423 26.3325 33.5137C26.2442 33.4738 26.1657 33.4154 26.1022 33.3425C26.0485 33.2766 26.0195 33.1941 26.0205 33.1093C26.0244 33.0008 26.0604 32.8959 26.1237 32.8076C26.2455 32.6299 26.4077 32.4833 26.5971 32.3797C26.6493 32.349 26.7087 32.3327 26.7693 32.3326C26.8479 32.3341 26.9237 32.362 26.9844 32.4117C27.0168 32.4342 27.0409 32.4665 27.0533 32.5038C27.063 32.5201 27.0689 32.5384 27.0705 32.5573C27.0702 32.5727 27.0664 32.5878 27.0593 32.6016C27.0523 32.6153 27.0421 32.6272 27.0296 32.6364C26.928 32.7348 26.8145 32.8203 26.6918 32.891C26.5779 32.9538 26.4516 32.9911 26.3217 33.0002C26.3027 32.9993 26.2837 33.0027 26.2662 33.0101C26.2487 33.0175 26.2331 33.0287 26.2206 33.043C26.2013 33.0852 26.1932 33.1316 26.1969 33.1778C26.195 33.2119 26.201 33.2461 26.2145 33.2776C26.2279 33.3091 26.2484 33.3372 26.2744 33.3596C26.3358 33.4067 26.4121 33.4303 26.4895 33.426C26.6949 33.4153 26.8938 33.3511 27.0662 33.2398C27.2784 33.115 27.47 32.9583 27.6342 32.7755C27.6597 32.7565 27.6891 32.7433 27.7203 32.737C27.7504 32.737 27.7547 32.7648 27.7203 32.8204C27.6924 32.8856 27.6547 32.9462 27.6084 33.0002C27.5004 33.1224 27.3784 33.2315 27.2448 33.3254C27.1076 33.4142 26.9563 33.4794 26.7972 33.518C26.7162 33.5424 26.6323 33.556 26.5476 33.5586ZM26.6165 32.722C26.6546 32.6986 26.6913 32.6729 26.7262 32.645L26.8661 32.5444L26.8811 32.5145C26.8811 32.4931 26.8661 32.4824 26.836 32.4824C26.7995 32.4851 26.7642 32.4961 26.7327 32.5145C26.588 32.5969 26.459 32.7041 26.3518 32.8311C26.4463 32.812 26.5361 32.7749 26.6165 32.722Z" fill="#1D1D1B"/>
<path d="M27.8623 33.9395C27.805 33.939 27.7488 33.9243 27.6987 33.8967C27.6497 33.8689 27.6054 33.8335 27.5675 33.7918C27.5185 33.7295 27.4859 33.6559 27.4728 33.5779C27.4588 33.501 27.4537 33.4227 27.4577 33.3447C27.4592 33.1752 27.4802 33.0065 27.5201 32.8418C27.5558 32.684 27.6026 32.5289 27.66 32.3775C27.7116 32.2427 27.7482 32.1486 27.7697 32.0972C27.884 31.7979 28.0162 31.5057 28.1657 31.2221C28.3701 30.8412 28.5357 30.5524 28.6649 30.3662C28.781 30.1874 28.9199 30.0241 29.078 29.8805C29.1262 29.8333 29.1892 29.8038 29.2566 29.7971C29.3044 29.7993 29.3507 29.8148 29.39 29.842C29.4074 29.8646 29.4158 29.8928 29.4136 29.9212C29.4129 29.996 29.3936 30.0694 29.3577 30.1352C29.144 30.5959 28.9001 31.0673 28.6261 31.5495C28.3597 32.0172 28.0688 32.4707 27.7547 32.9082C27.7364 32.925 27.7231 32.9465 27.716 32.9702C27.6625 33.1172 27.6335 33.2718 27.6299 33.4281C27.6276 33.5341 27.649 33.6393 27.6923 33.7362C27.7289 33.8047 27.7676 33.8368 27.8085 33.8368C27.8436 33.8322 27.8777 33.8221 27.9096 33.8068C27.9417 33.7913 27.9727 33.7734 28.0021 33.7533C28.0753 33.6998 28.2173 33.5843 28.4045 33.4046C28.5665 33.2568 28.7189 33.0988 28.8607 32.9317C28.8808 32.9056 28.9039 32.8819 28.9295 32.8611C28.9618 32.8418 28.9833 32.8461 29.0005 32.8782V32.8996C29.0019 32.9286 28.9919 32.957 28.9725 32.9788L28.9381 33.0173C28.9166 33.0472 28.8434 33.1328 28.7229 33.2719C28.6093 33.4146 28.4871 33.5503 28.3572 33.6784C28.2631 33.7725 28.1558 33.8525 28.0387 33.916C27.9826 33.9375 27.9221 33.9456 27.8623 33.9395ZM28.6025 31.1943C28.825 30.822 29.0206 30.4345 29.1877 30.0346C28.8853 30.3546 28.6342 30.7191 28.4432 31.1151C28.2276 31.5075 28.0414 31.9152 27.8859 32.3347C28.1472 31.969 28.3865 31.5882 28.6025 31.1943Z" fill="#1D1D1B"/>
<path d="M29.2566 33.5586C29.1826 33.5579 29.1095 33.5426 29.0414 33.5137C28.9527 33.4746 28.874 33.416 28.8112 33.3425C28.7574 33.2766 28.7285 33.1941 28.7295 33.1093C28.7337 33.0012 28.7687 32.8966 28.8306 32.8076C28.9532 32.6299 29.1161 32.4833 29.3061 32.3797C29.3582 32.349 29.4177 32.3327 29.4782 32.3326C29.557 32.3336 29.633 32.3615 29.6934 32.4117C29.727 32.4334 29.7521 32.4659 29.7644 32.5038C29.7736 32.5202 29.7787 32.5385 29.7795 32.5573C29.7796 32.5725 29.7762 32.5876 29.7695 32.6014C29.7628 32.6151 29.7529 32.6271 29.7407 32.6364C29.6387 32.7343 29.5253 32.8197 29.4029 32.891C29.2889 32.9535 29.1627 32.9907 29.0328 33.0002C29.0138 32.9991 28.9948 33.0025 28.9773 33.0099C28.9598 33.0173 28.9442 33.0286 28.9317 33.043C28.9114 33.0848 28.9032 33.1315 28.908 33.1778C28.9062 33.2119 28.9122 33.2461 28.9256 33.2776C28.939 33.3091 28.9595 33.3372 28.9855 33.3596C29.0468 33.4069 29.1232 33.4305 29.2007 33.426C29.4061 33.4156 29.605 33.3514 29.7773 33.2398C29.9903 33.1161 30.1821 32.9593 30.3454 32.7755C30.371 32.7568 30.4004 32.7437 30.4314 32.737C30.4637 32.737 30.4659 32.7648 30.4443 32.8204C30.4156 32.8857 30.3772 32.9463 30.3303 33.0002C30.2231 33.1223 30.1017 33.2315 29.9688 33.3254C29.8316 33.4142 29.6803 33.4794 29.5213 33.518C29.4353 33.5434 29.3463 33.5571 29.2566 33.5586ZM29.3276 32.722C29.3577 32.7027 29.3943 32.6771 29.4352 32.645L29.5772 32.5444L29.5923 32.5145C29.5923 32.4931 29.5772 32.4824 29.5449 32.4824C29.5092 32.4852 29.4746 32.4962 29.4438 32.5145C29.2991 32.5969 29.1702 32.7041 29.063 32.8311C29.1572 32.8112 29.2469 32.7742 29.3276 32.722Z" fill="#1D1D1B"/>
<path d="M30.4335 33.5672C30.3953 33.5674 30.3576 33.5594 30.3227 33.5439C30.2878 33.5284 30.2566 33.5057 30.2313 33.4773C30.2025 33.4498 30.18 33.4164 30.1651 33.3795C30.1503 33.3426 30.1435 33.303 30.1452 33.2634C30.1444 33.1219 30.176 32.9821 30.2377 32.8547L30.4013 32.5594C30.421 32.5302 30.4383 32.4994 30.4529 32.4674C30.4671 32.4292 30.4899 32.3948 30.5196 32.3668C30.5353 32.3473 30.5562 32.3325 30.5799 32.324C30.5901 32.3226 30.6005 32.3236 30.6102 32.3269C30.6199 32.3303 30.6287 32.3359 30.6358 32.3433C30.6559 32.3569 30.6721 32.3753 30.6831 32.3968C30.6862 32.4216 30.6801 32.4467 30.6659 32.4674L30.4787 32.7841C30.4186 32.8901 30.3696 33.0019 30.3324 33.1179C30.3231 33.1637 30.3174 33.2102 30.3152 33.2569C30.3152 33.3639 30.3367 33.4196 30.3776 33.4196C30.4071 33.4139 30.4346 33.4006 30.4572 33.381C30.6143 33.2734 30.7586 33.1485 30.8876 33.0087C31.0872 32.7976 31.2747 32.5754 31.4491 32.3433L31.6127 32.1293C31.6385 32.093 31.6579 32.0758 31.6751 32.0758C31.6857 32.0765 31.6961 32.0795 31.7054 32.0847C31.7147 32.0899 31.7227 32.0971 31.7289 32.1058C31.744 32.1263 31.7522 32.151 31.7525 32.1764C31.7485 32.2127 31.7351 32.2473 31.7138 32.277C31.5632 32.4909 31.4298 32.66 31.3114 32.8076C31.1951 32.9539 31.0693 33.0926 30.9349 33.2227C30.8913 33.2591 30.8497 33.2976 30.8101 33.3382C30.766 33.3823 30.7193 33.4237 30.6702 33.4623C30.6399 33.4849 30.6083 33.5056 30.5756 33.5244C30.5338 33.5529 30.4842 33.5678 30.4335 33.5672Z" fill="#1D1D1B"/>
<path d="M32.0753 33.5586C32.0013 33.5577 31.9282 33.5424 31.8601 33.5137C31.7719 33.4738 31.6933 33.4154 31.6299 33.3425C31.5761 33.2766 31.5472 33.1941 31.5481 33.1093C31.5523 33.0012 31.5874 32.8966 31.6492 32.8076C31.7724 32.6303 31.9352 32.4839 32.1248 32.3797C32.1769 32.349 32.2363 32.3327 32.2969 32.3326C32.3757 32.3336 32.4517 32.3615 32.5121 32.4117C32.5457 32.4334 32.5707 32.4659 32.5831 32.5038C32.5922 32.5202 32.5974 32.5385 32.5981 32.5573C32.5983 32.5725 32.5949 32.5876 32.5882 32.6014C32.5814 32.6151 32.5716 32.6271 32.5594 32.6364C32.4578 32.7348 32.3443 32.8203 32.2216 32.891C32.1077 32.9538 31.9814 32.9911 31.8515 33.0002C31.8325 32.9993 31.8135 33.0027 31.796 33.0101C31.7785 33.0175 31.7629 33.0287 31.7504 33.043C31.7311 33.0852 31.723 33.1316 31.7267 33.1778C31.7248 33.2119 31.7308 33.2461 31.7443 33.2776C31.7577 33.3091 31.7782 33.3372 31.8042 33.3596C31.8655 33.4069 31.9419 33.4305 32.0193 33.426C32.2247 33.4156 32.4237 33.3514 32.596 33.2398C32.8093 33.1156 33.0017 32.9589 33.1662 32.7755C33.191 32.7568 33.2197 32.7436 33.2501 32.737C33.2817 32.737 33.286 32.7648 33.263 32.8204C33.2343 32.8857 33.1958 32.9463 33.149 33.0002C33.0422 33.1228 32.9208 33.232 32.7875 33.3254C32.6503 33.4142 32.499 33.4794 32.3399 33.518C32.254 33.5435 32.165 33.5572 32.0753 33.5586ZM32.1463 32.722L32.256 32.645L32.4045 32.5487L32.4196 32.5187C32.4196 32.4973 32.4045 32.4866 32.3722 32.4866C32.3365 32.4898 32.302 32.5008 32.2711 32.5187C32.1264 32.6012 31.9974 32.7084 31.8902 32.8354C31.982 32.8139 32.0688 32.7754 32.1463 32.722Z" fill="#1D1D1B"/>
<path d="M33.1038 33.6977C33.0735 33.699 33.0434 33.6926 33.0163 33.6791C32.9892 33.6657 32.966 33.6455 32.9489 33.6207C32.9292 33.5997 32.9178 33.5724 32.9166 33.5437C32.9166 33.518 32.936 33.4902 32.9726 33.4581C33.0481 33.3953 33.1287 33.3387 33.2136 33.289C33.3577 33.1906 33.4976 33.09 33.6288 32.9895C33.8022 32.8568 33.9675 32.7139 34.1237 32.5615C34.1309 32.5559 34.1367 32.5488 34.1408 32.5406C34.1449 32.5325 34.1472 32.5236 34.1474 32.5145C34.1474 32.4931 34.1302 32.476 34.0936 32.461C34.0351 32.4328 33.9714 32.4168 33.9064 32.4139C33.8677 32.4108 33.8289 32.4108 33.7902 32.4139C33.6389 32.4148 33.4904 32.4554 33.3599 32.5316C33.3269 32.5364 33.2965 32.5522 33.2738 32.5765C33.2695 32.5841 33.2632 32.5904 33.2557 32.5948C33.2481 32.5991 33.2395 32.6014 33.2308 32.6014C33.222 32.6014 33.2134 32.5991 33.2059 32.5948C33.1983 32.5904 33.1921 32.5841 33.1877 32.5765C33.1685 32.5545 33.1552 32.528 33.149 32.4995C33.149 32.4781 33.1705 32.4546 33.2114 32.4289C33.3691 32.3346 33.5503 32.2864 33.7343 32.2898C33.838 32.2939 33.9415 32.3039 34.0441 32.3198C34.1288 32.341 34.202 32.3939 34.2485 32.4674C34.2713 32.4995 34.2847 32.5373 34.2873 32.5765C34.285 32.6132 34.2715 32.6483 34.2485 32.6771C34.2269 32.7116 34.2 32.7427 34.1689 32.7691C34.0683 32.8706 33.962 32.9663 33.8505 33.0558C33.7364 33.15 33.5234 33.3019 33.205 33.5137C33.1853 33.5241 33.1689 33.5396 33.1576 33.5586H33.1813C33.2054 33.5591 33.2294 33.5554 33.2523 33.5479C33.2695 33.5416 33.2877 33.538 33.3061 33.5372C33.3685 33.5265 33.4675 33.5051 33.603 33.4752C33.8052 33.4269 34.011 33.3954 34.2184 33.381C34.2689 33.3805 34.3191 33.3885 34.3669 33.4046C34.3846 33.4139 34.4 33.4271 34.4121 33.4431C34.4141 33.4482 34.4149 33.4536 34.4144 33.4591C34.4139 33.4645 34.4121 33.4698 34.4092 33.4744C34.4062 33.479 34.4022 33.4828 34.3975 33.4856C34.3927 33.4883 34.3874 33.4899 34.3819 33.4902H34.3669C34.199 33.5158 33.9817 33.5586 33.7106 33.6143C33.3749 33.6827 33.1899 33.717 33.1576 33.7234L33.1038 33.6977Z" fill="#1D1D1B"/>
<path d="M35.7353 33.5672C35.6971 33.5672 35.6594 33.5592 35.6245 33.5437C35.5897 33.5282 35.5585 33.5056 35.5331 33.4773C35.505 33.4493 35.4831 33.4159 35.4686 33.3791C35.4542 33.3422 35.4475 33.3028 35.4491 33.2634C35.4483 33.1219 35.4799 32.9821 35.5417 32.8547C35.6299 32.6942 35.6837 32.5958 35.7052 32.5594C35.7249 32.5302 35.7422 32.4994 35.7568 32.4674C35.7711 32.4298 35.7931 32.3956 35.8214 32.3668C35.8378 32.3471 35.8594 32.3323 35.8838 32.324C35.894 32.3226 35.9044 32.3236 35.9141 32.3269C35.9238 32.3303 35.9326 32.3359 35.9397 32.3433C35.9599 32.3562 35.9757 32.3748 35.9849 32.3968C35.9849 32.4118 35.9849 32.4353 35.9699 32.4674L35.7827 32.7841C35.7227 32.8904 35.6729 33.0022 35.6342 33.1179C35.6265 33.1639 35.6214 33.2103 35.6191 33.2569C35.6191 33.3639 35.6406 33.4196 35.6815 33.4196C35.7102 33.4134 35.7368 33.4002 35.759 33.381C35.9165 33.274 36.0609 33.1491 36.1893 33.0087C36.3889 32.7981 36.5757 32.5759 36.7488 32.3433L36.9123 32.1293C36.9381 32.093 36.9596 32.0758 36.9747 32.0758C36.9857 32.0763 36.9964 32.0793 37.0061 32.0845C37.0158 32.0896 37.0242 32.0969 37.0306 32.1058C37.0457 32.1263 37.054 32.151 37.0543 32.1764C37.0507 32.2131 37.0365 32.248 37.0134 32.277C36.8628 32.4909 36.7294 32.66 36.6132 32.8076C36.4969 32.9539 36.3711 33.0926 36.2367 33.2227C36.1931 33.2591 36.1515 33.2976 36.1119 33.3382C36.067 33.3824 36.0196 33.4238 35.9699 33.4623C35.9406 33.4852 35.9096 33.506 35.8773 33.5244C35.8355 33.5528 35.7859 33.5677 35.7353 33.5672Z" fill="#1D1D1B"/>
<path d="M42.4271 30.6636C42.4264 30.6695 42.4245 30.6752 42.4215 30.6803C42.4186 30.6855 42.4146 30.69 42.4099 30.6936C42.4057 30.6971 42.4003 30.699 42.3948 30.699C42.3893 30.699 42.384 30.6971 42.3798 30.6936C42.3554 30.6911 42.3315 30.6854 42.3088 30.6765C42.2412 30.6449 42.1681 30.6267 42.0936 30.623C41.9694 30.6077 41.8444 30.5998 41.7192 30.5995C41.6719 30.5995 41.5987 30.5995 41.504 30.5995C41.4094 30.5995 41.319 30.5995 41.2458 30.5995L41.0113 30.623H40.7961C40.6928 30.623 40.581 30.638 40.4411 30.6551L40.1657 30.685L39.9505 30.7086H39.8967C39.8534 30.7109 39.8115 30.7251 39.7758 30.7496C39.7401 30.7742 39.7119 30.8081 39.6945 30.8477L39.5976 30.9782C39.5632 31.02 39.5356 31.0669 39.5159 31.1173C39.4427 31.2521 39.3911 31.3548 39.3588 31.4275L39.2426 31.6671L39.1372 31.8811C39.0984 31.9581 39.0554 32.0501 39.0081 32.1529C38.9315 32.3196 38.864 32.4903 38.8058 32.6642C38.78 32.752 38.7434 32.8547 38.6982 32.9724C38.653 33.09 38.6122 33.2056 38.5498 33.4003L38.4874 33.6143C38.4551 33.7063 38.4142 33.8453 38.3626 34.0315C38.2689 34.3921 38.2063 34.7601 38.1754 35.1313C38.1754 35.2147 38.1754 35.2875 38.1754 35.3452C38.1754 35.403 38.1754 35.4629 38.1754 35.5036V35.6897C38.1718 35.7283 38.1763 35.7672 38.1885 35.8041C38.2007 35.8409 38.2204 35.8748 38.2464 35.9037C38.2657 35.9251 38.2657 35.9422 38.2464 35.9572C38.227 35.9722 38.2184 35.9957 38.184 35.9957C38.1576 35.9941 38.1321 35.9855 38.1102 35.9709C38.0882 35.9562 38.0706 35.936 38.0592 35.9123C38.0373 35.8711 38.0241 35.826 38.0204 35.7796C38.0023 35.6562 37.9915 35.5319 37.9882 35.4073C37.9929 35.1006 38.0246 34.7949 38.0828 34.4937C38.1237 34.2797 38.1711 34.0828 38.2227 33.8988C38.2786 33.6849 38.3862 33.3425 38.5411 32.8996L38.6896 32.5359C38.7139 32.4629 38.7427 32.3914 38.7757 32.3219L38.8295 32.1657C38.8477 32.1072 38.8715 32.0506 38.9005 31.9967L38.9629 31.8576C38.9272 31.8664 38.8963 31.8886 38.8768 31.9196C38.7453 32.0497 38.6011 32.1665 38.4465 32.2684C38.3356 32.3334 38.2214 32.3927 38.1044 32.446C38.0275 32.4757 37.9458 32.4909 37.8634 32.4909C37.8186 32.4894 37.774 32.4844 37.73 32.4759C37.7042 32.4735 37.6783 32.4735 37.6525 32.4759C37.644 32.4748 37.6354 32.4763 37.6277 32.4801C37.62 32.4839 37.6137 32.4899 37.6095 32.4973C37.5978 32.5274 37.5912 32.5593 37.5901 32.5915C37.5772 32.7763 37.5388 32.9584 37.4761 33.1328C37.4289 33.2915 37.3654 33.4449 37.2867 33.5907C37.2658 33.6291 37.2346 33.6609 37.1967 33.6828C37.1587 33.7047 37.1154 33.7158 37.0715 33.7148C37.0182 33.7147 36.9668 33.6949 36.9274 33.6592C36.8842 33.6241 36.8552 33.5747 36.8456 33.5201C36.8256 33.4444 36.8256 33.3648 36.8456 33.289C36.8832 33.1128 36.944 32.9423 37.0264 32.7819C37.1138 32.5792 37.2122 32.3814 37.3211 32.1892C37.3346 32.1576 37.3535 32.1287 37.3771 32.1036C37.3855 32.0936 37.3961 32.0856 37.4079 32.08C37.4198 32.0745 37.4328 32.0716 37.4459 32.0715C37.4609 32.0704 37.4759 32.0731 37.4895 32.0795C37.5031 32.0859 37.5148 32.0957 37.5234 32.1079C37.5306 32.1214 37.5343 32.1365 37.5343 32.1518C37.5343 32.1671 37.5306 32.1821 37.5234 32.1956L37.5083 32.2577C37.5082 32.266 37.5106 32.2741 37.5152 32.281C37.5198 32.2878 37.5264 32.2932 37.5342 32.2962L37.5707 32.3197C37.6323 32.3444 37.698 32.3575 37.7644 32.3583C37.9722 32.3445 38.1713 32.27 38.3367 32.1443C38.5585 31.9932 38.759 31.8133 38.9328 31.6094C39.0102 31.5216 39.1178 31.3847 39.2512 31.1986C39.2972 31.1424 39.3369 31.0814 39.3695 31.0167C39.4061 30.9461 39.4319 30.8969 39.447 30.8648C39.4505 30.8551 39.4505 30.8445 39.447 30.8348C39.447 30.8134 39.4276 30.8027 39.3911 30.8027C39.3704 30.8 39.3494 30.8 39.3287 30.8027C38.9121 30.8731 38.5009 30.9718 38.0979 31.098C38.0626 31.1077 38.0267 31.1149 37.9903 31.1194H37.9989C37.9839 31.1199 37.969 31.1171 37.9552 31.1112C37.9415 31.1053 37.9292 31.0964 37.9193 31.0852C37.8996 31.0626 37.8889 31.0337 37.8892 31.0038C37.8892 30.9889 37.8892 30.9739 37.9042 30.9568H37.9279C38.0006 30.9438 38.0724 30.9267 38.1431 30.9054L38.3002 30.8626C38.4174 30.8253 38.5366 30.7946 38.6573 30.7706L39.4599 30.6166C39.4777 30.6132 39.4959 30.6132 39.5137 30.6166C39.5451 30.6105 39.5746 30.5975 39.6003 30.5786C39.626 30.5598 39.6471 30.5354 39.6622 30.5074L40.0602 29.8655C40.0915 29.8131 40.1275 29.7637 40.1678 29.7179C40.1801 29.7054 40.1949 29.6955 40.2112 29.6889C40.2274 29.6823 40.2449 29.6791 40.2625 29.6794C40.2843 29.6782 40.306 29.6834 40.3249 29.6944C40.3765 29.7307 40.3894 29.7714 40.3636 29.8185C40.312 29.9169 40.2625 30.0046 40.2152 30.0817C40.1678 30.1587 40.0925 30.2764 39.9892 30.4304C39.9796 30.4556 39.9665 30.4793 39.9505 30.501C39.9514 30.506 39.9514 30.5111 39.9505 30.516C39.9492 30.5183 39.9485 30.5209 39.9485 30.5235C39.9485 30.5261 39.9492 30.5287 39.9505 30.531C39.9505 30.5417 39.9613 30.546 39.9806 30.546C40.2302 30.5117 40.5121 30.4839 40.8219 30.4689L40.9467 30.454C40.9941 30.454 41.0522 30.454 41.1189 30.454H41.3685C41.5191 30.454 41.745 30.454 42.0463 30.4711C42.1231 30.4773 42.1989 30.4924 42.2722 30.516C42.3255 30.5362 42.3733 30.5685 42.412 30.6102C42.4196 30.6272 42.4247 30.6452 42.4271 30.6636ZM37.4029 32.722C37.4131 32.6583 37.4181 32.5939 37.418 32.5294C37.4207 32.5088 37.4207 32.488 37.418 32.4674C37.418 32.4567 37.418 32.4524 37.4007 32.4524C37.3835 32.4524 37.3857 32.4524 37.3857 32.4524C37.3782 32.4584 37.3729 32.4666 37.3706 32.4759L37.2695 32.6899C37.1813 32.8611 37.1167 32.9937 37.078 33.0922C37.0372 33.2015 37.0126 33.3161 37.0048 33.4324C37.001 33.4751 37.0092 33.5181 37.0285 33.5565C37.0372 33.5668 37.0495 33.5737 37.0629 33.5757C37.0691 33.5776 37.0757 33.5775 37.0818 33.5756C37.0879 33.5737 37.0933 33.57 37.0974 33.565L37.1447 33.503C37.1748 33.4302 37.2222 33.3126 37.2846 33.1499C37.3242 33.0558 37.3579 32.9593 37.3857 32.8611C37.3857 32.8375 37.3921 32.7905 37.4029 32.722Z" fill="#1D1D1B"/>
<path d="M39.0855 33.7298C39.0685 33.7153 39.0553 33.6969 39.0468 33.6763C39.0427 33.6609 39.0427 33.6447 39.0468 33.6293C39.0503 33.6033 39.0554 33.5776 39.0618 33.5522C39.0799 33.433 39.117 33.3175 39.1716 33.2099C39.2706 32.9831 39.3523 32.8076 39.4169 32.6835C39.4814 32.5594 39.5783 32.3904 39.7095 32.1721C39.7246 32.1315 39.7525 32.1251 39.7956 32.1507C39.8386 32.1764 39.8601 32.2149 39.8343 32.2813C39.6041 32.6942 39.4836 32.9232 39.4685 32.9638L39.4513 33.0173L39.5223 32.9082C39.6275 32.7412 39.7517 32.5869 39.8924 32.4482C40.0001 32.329 40.1312 32.2328 40.2776 32.1657C40.3088 32.1498 40.3435 32.1417 40.3787 32.1422C40.4347 32.1432 40.489 32.162 40.5336 32.1957L40.5809 32.2427C40.5917 32.2684 40.5917 32.2877 40.5809 32.2962C40.5702 32.3048 40.5465 32.3091 40.5272 32.2962L40.5035 32.2684C40.4989 32.2625 40.4931 32.2577 40.4863 32.2544C40.4796 32.251 40.4723 32.2492 40.4647 32.2492C40.4394 32.2469 40.4139 32.2499 40.3898 32.258C40.3658 32.2661 40.3436 32.2792 40.3249 32.2962C40.2603 32.3365 40.1978 32.38 40.1377 32.4268C40.0645 32.4952 40 32.5551 39.9462 32.6086C39.8857 32.6711 39.8297 32.7375 39.7784 32.8076C39.6708 32.966 39.5632 33.1243 39.4836 33.2784C39.4621 33.3211 39.4255 33.3832 39.3738 33.4645L39.234 33.7041C39.2125 33.7512 39.1845 33.7726 39.1479 33.7662C39.1353 33.7656 39.1231 33.762 39.1122 33.7557C39.1013 33.7494 39.0922 33.7405 39.0855 33.7298Z" fill="#1D1D1B"/>
<path d="M40.8758 33.5586C40.8018 33.5579 40.7286 33.5426 40.6606 33.5137C40.5723 33.4738 40.4938 33.4154 40.4304 33.3425C40.3766 33.2766 40.3477 33.1941 40.3486 33.1093C40.3528 33.0012 40.3879 32.8966 40.4497 32.8076C40.5723 32.6299 40.7352 32.4833 40.9252 32.3797C40.9774 32.349 41.0368 32.3327 41.0974 32.3326C41.1761 32.3336 41.2521 32.3615 41.3125 32.4117C41.3461 32.4334 41.3712 32.4659 41.3836 32.5038C41.3927 32.5202 41.3979 32.5385 41.3986 32.5573C41.3988 32.5725 41.3954 32.5876 41.3886 32.6014C41.3819 32.6151 41.3721 32.6271 41.3599 32.6364C41.2583 32.7348 41.1448 32.8203 41.0221 32.891C40.908 32.9535 40.7818 32.9907 40.652 33.0002C40.633 32.9993 40.614 33.0027 40.5965 33.0101C40.579 33.0175 40.5634 33.0287 40.5508 33.043C40.5305 33.0848 40.5223 33.1315 40.5272 33.1778C40.5253 33.2119 40.5313 33.2461 40.5447 33.2776C40.5582 33.3091 40.5786 33.3372 40.6046 33.3596C40.6659 33.4069 40.7424 33.4305 40.8198 33.426C41.0252 33.4156 41.2242 33.3514 41.3965 33.2398C41.6095 33.1161 41.8012 32.9593 41.9645 32.7755C41.9902 32.7568 42.0195 32.7437 42.0506 32.737C42.0821 32.737 42.0864 32.7648 42.0635 32.8204C42.0348 32.8857 41.9963 32.9463 41.9494 33.0002C41.8427 33.1228 41.7213 33.232 41.588 33.3254C41.4508 33.4142 41.2995 33.4794 41.1404 33.518C41.0545 33.5434 40.9654 33.5571 40.8758 33.5586ZM40.9468 32.722L41.0565 32.645L41.1964 32.5444L41.2114 32.5145C41.2114 32.4931 41.1964 32.4824 41.1641 32.4824C41.1283 32.4852 41.0938 32.4962 41.063 32.5145C40.9182 32.5969 40.7893 32.7041 40.6821 32.8311C40.7765 32.812 40.8664 32.7749 40.9468 32.722Z" fill="#1D1D1B"/>
<path d="M43.7805 33.7769C43.733 33.7762 43.6858 33.7683 43.6407 33.7533C43.6118 33.7478 43.5858 33.7323 43.5673 33.7096C43.5488 33.6869 43.539 33.6585 43.5395 33.6292C43.5356 33.6087 43.5356 33.5877 43.5395 33.5672C43.5541 33.5104 43.5789 33.4568 43.6127 33.4089L43.6794 33.3126C43.8914 32.9627 44.1787 32.6638 44.5207 32.4374C44.5616 32.4096 44.5831 32.3818 44.5831 32.3519C44.5831 32.3219 44.5573 32.2834 44.5056 32.2577C44.4643 32.2372 44.4171 32.2319 44.3722 32.2427C44.2157 32.2646 44.0651 32.3169 43.929 32.3968C43.7626 32.4951 43.6081 32.6122 43.4685 32.7456C43.3144 32.8985 43.1706 33.0615 43.0382 33.2334C42.9901 33.3004 42.949 33.3721 42.9155 33.4474C42.879 33.5223 42.8553 33.5672 42.8445 33.5843C42.838 33.5965 42.833 33.6094 42.8295 33.6228C42.8233 33.6386 42.8154 33.6537 42.8058 33.6678C42.7735 33.7191 42.7391 33.7384 42.6961 33.7234C42.653 33.7084 42.6035 33.6549 42.6186 33.5993C42.638 33.4944 42.6639 33.3908 42.6961 33.289C42.6961 33.2634 42.7176 33.2077 42.7434 33.1221C42.7673 33.0412 42.7983 32.9624 42.8359 32.8868C42.8585 32.8422 42.8786 32.7965 42.8962 32.7498C42.9134 32.7028 42.9285 32.6643 42.9371 32.6386C43.0941 32.2877 43.2125 32.0266 43.2964 31.8555C43.3803 31.6843 43.4621 31.5281 43.5761 31.3184C43.6902 31.1087 43.7913 30.9332 43.873 30.7878C43.9871 30.5973 44.1291 30.3791 44.3034 30.133C44.41 29.9644 44.534 29.8074 44.6735 29.6644C44.6958 29.6418 44.7227 29.624 44.7523 29.6122C44.7819 29.6004 44.8137 29.5949 44.8456 29.596C44.8791 29.5961 44.9122 29.603 44.9428 29.6163C44.9735 29.6295 45.0012 29.6488 45.0242 29.673C45.0396 29.688 45.0517 29.7061 45.0598 29.7259C45.0679 29.7458 45.0719 29.7671 45.0715 29.7885C45.0691 29.8127 45.0633 29.8365 45.0543 29.8591C45.036 29.9172 45.013 29.9738 44.9855 30.0282C44.9532 30.0902 44.9338 30.1352 44.9231 30.1608C44.7146 30.6098 44.4737 31.0431 44.2023 31.4575C43.9665 31.8389 43.6995 32.2003 43.404 32.538C43.3373 32.6043 43.2727 32.6749 43.2125 32.752C43.1522 32.829 43.1156 32.8697 43.1006 32.8911C43.2361 32.7563 43.3566 32.6429 43.4664 32.5508C43.5745 32.4583 43.692 32.3773 43.8171 32.3091C43.9091 32.2588 44.0039 32.2138 44.1011 32.1743C44.1838 32.1406 44.2722 32.1232 44.3615 32.1229C44.4294 32.1219 44.4965 32.1369 44.5575 32.1666C44.6185 32.1964 44.6715 32.2401 44.7122 32.2941C44.738 32.3262 44.7639 32.3305 44.7897 32.3091L44.9145 32.2791C44.9474 32.2699 44.9814 32.2649 45.0156 32.2641C45.0734 32.2626 45.1303 32.2782 45.1791 32.3091C45.2022 32.3258 45.2216 32.3468 45.2364 32.3711C45.2512 32.3953 45.261 32.4222 45.2652 32.4503C45.276 32.4909 45.2652 32.5145 45.2351 32.5187H45.2179C45.2021 32.5187 45.187 32.5059 45.1727 32.4802C45.1586 32.4539 45.1412 32.4295 45.121 32.4075C45.114 32.3989 45.1052 32.3919 45.0951 32.3871C45.0851 32.3823 45.0741 32.3797 45.0629 32.3797C45.0333 32.3836 45.0043 32.3915 44.9769 32.4032L44.9467 32.4182C44.9207 32.4183 44.895 32.4239 44.8712 32.4346C44.8475 32.4453 44.8263 32.4608 44.809 32.4802C44.7764 32.5288 44.7564 32.5847 44.7509 32.6429C44.7214 32.8545 44.6418 33.0562 44.5186 33.2313L44.3701 33.4452C44.3223 33.5117 44.2642 33.5702 44.198 33.6185C44.1069 33.6896 44.0043 33.7446 43.8946 33.7812C43.8565 33.783 43.8183 33.7816 43.7805 33.7769ZM43.7117 31.8512C43.9326 31.5374 44.1477 31.2014 44.3572 30.8434C44.5666 30.4853 44.7373 30.1501 44.8693 29.8377C44.8761 29.8259 44.8805 29.8128 44.8822 29.7992C44.8819 29.7885 44.8826 29.7777 44.8843 29.7671C44.8843 29.7457 44.8843 29.735 44.8607 29.735C44.8438 29.7351 44.8273 29.7395 44.8126 29.7477C44.7979 29.756 44.7856 29.7678 44.7768 29.7821C44.7203 29.8376 44.6679 29.897 44.6197 29.9597C44.5013 30.1202 44.3808 30.2978 44.2625 30.4946L44.1226 30.7086C44.0753 30.7756 43.9376 31.026 43.7095 31.4596L43.6148 31.6286C43.5847 31.6864 43.5567 31.7378 43.5288 31.7848C43.4728 31.8833 43.4169 31.986 43.3631 32.0951C43.3115 32.1918 43.2683 32.2928 43.234 32.3968C43.2352 32.4053 43.2352 32.414 43.234 32.4225C43.2302 32.4305 43.2282 32.4393 43.2282 32.4481C43.2282 32.457 43.2302 32.4658 43.234 32.4738C43.4082 32.2796 43.5678 32.0729 43.7117 31.8555V31.8512ZM43.7977 33.6485L43.8515 33.625C43.8829 33.6055 43.9152 33.5876 43.9484 33.5715C43.9909 33.5488 44.0312 33.5223 44.0688 33.4923C44.3062 33.2686 44.4786 32.9856 44.568 32.6728C44.5743 32.6526 44.5743 32.631 44.568 32.6108C44.5508 32.6108 44.5315 32.6108 44.5056 32.6407L44.3486 32.7883C44.198 32.9381 44.0818 33.0579 44.0021 33.1478C43.9223 33.2417 43.8504 33.3419 43.787 33.4474L43.7246 33.5715C43.7219 33.5831 43.7183 33.5946 43.7138 33.6057C43.7096 33.612 43.7073 33.6195 43.7073 33.6271C43.7073 33.6347 43.7096 33.6422 43.7138 33.6485C43.7353 33.6678 43.7612 33.6678 43.8085 33.6528L43.7977 33.6485Z" fill="#1D1D1B"/>
<path d="M45.5966 33.5586C45.5226 33.5576 45.4495 33.5423 45.3814 33.5137C45.2935 33.4743 45.2155 33.4158 45.1533 33.3425C45.0987 33.2771 45.0697 33.1943 45.0716 33.1093C45.0747 33.001 45.1098 32.8961 45.1727 32.8076C45.2944 32.6299 45.4566 32.4833 45.6461 32.3797C45.6982 32.349 45.7576 32.3327 45.8182 32.3326C45.8968 32.3341 45.9727 32.362 46.0334 32.4117C46.0657 32.4342 46.0898 32.4665 46.1022 32.5038C46.1119 32.5201 46.1178 32.5384 46.1194 32.5573C46.1197 32.5728 46.1161 32.5881 46.109 32.6019C46.1019 32.6158 46.0914 32.6276 46.0785 32.6364C45.9769 32.7348 45.8635 32.8203 45.7407 32.891C45.6269 32.9538 45.5005 32.9911 45.3706 33.0002C45.3516 32.9993 45.3327 33.0027 45.3152 33.0101C45.2977 33.0175 45.2821 33.0287 45.2695 33.043C45.2503 33.0852 45.2421 33.1316 45.2458 33.1778C45.244 33.2119 45.25 33.2461 45.2634 33.2776C45.2768 33.3091 45.2973 33.3372 45.3233 33.3596C45.3847 33.4067 45.4611 33.4303 45.5385 33.426C45.7438 33.4153 45.9427 33.3511 46.1151 33.2398C46.3276 33.1154 46.5193 32.9587 46.6832 32.7755C46.7086 32.7565 46.738 32.7433 46.7692 32.737C46.7994 32.737 46.8037 32.7648 46.78 32.8204C46.7521 32.8856 46.7144 32.9462 46.6681 33.0002C46.5601 33.1224 46.4381 33.2315 46.3045 33.3254C46.1675 33.4147 46.0161 33.4798 45.8569 33.518C45.7724 33.5433 45.6848 33.557 45.5966 33.5586ZM45.6654 32.722C45.7036 32.6986 45.7402 32.6729 45.7752 32.645L45.915 32.5444L45.9301 32.5145C45.9301 32.4931 45.915 32.4824 45.8849 32.4824C45.8492 32.4852 45.8146 32.4962 45.7838 32.5145C45.6384 32.5969 45.5088 32.7041 45.4008 32.8311C45.4952 32.812 45.5851 32.7749 45.6654 32.722Z" fill="#1D1D1B"/>
<path d="M46.5691 33.4752C46.5288 33.4701 46.4907 33.4538 46.4594 33.4281C46.4385 33.4112 46.4216 33.39 46.4097 33.366C46.3978 33.342 46.3913 33.3158 46.3905 33.289C46.3896 33.2447 46.3991 33.2007 46.4185 33.1607C46.436 33.1229 46.4561 33.0865 46.4787 33.0515C46.4951 33.0308 46.5095 33.0086 46.5218 32.9852C46.6647 32.7678 46.8446 32.5767 47.0532 32.4203C47.1088 32.3748 47.1757 32.3452 47.2469 32.3347C47.2908 32.3417 47.3327 32.3579 47.3698 32.3822C47.4069 32.4066 47.4384 32.4385 47.4621 32.476C47.4787 32.4745 47.4949 32.4694 47.5094 32.461C47.5282 32.4434 47.5525 32.4328 47.5782 32.431C47.6006 32.4326 47.6221 32.4399 47.6406 32.4524C47.6619 32.4664 47.6773 32.4878 47.6837 32.5123C47.6843 32.537 47.6807 32.5616 47.6729 32.5851L47.5481 32.8162C47.5239 32.857 47.5078 32.902 47.5008 32.9488C47.4983 32.9616 47.4983 32.9746 47.5008 32.9873C47.5008 33.028 47.5309 33.0494 47.5868 33.0494C47.6914 33.0542 47.7953 33.0313 47.8881 32.9831C48.0155 32.9285 48.1391 32.8656 48.2582 32.7948C48.3338 32.7514 48.4058 32.7021 48.4733 32.6471H48.5035C48.5357 32.6471 48.5465 32.6664 48.5357 32.7028C48.5121 32.7615 48.4717 32.812 48.4195 32.8483L48.2237 32.9724C48.1422 33.0254 48.0566 33.0719 47.9677 33.1114C47.8634 33.1638 47.7488 33.193 47.632 33.197C47.5566 33.1967 47.4843 33.1676 47.4298 33.1157C47.4001 33.0917 47.3758 33.0618 47.3583 33.0279C47.3409 32.994 47.3308 32.9569 47.3286 32.9189C47.3287 32.9139 47.3273 32.9091 47.3246 32.9049C47.3219 32.9007 47.3181 32.8974 47.3136 32.8953L47.0554 33.1435C46.9564 33.2313 46.8574 33.3147 46.7606 33.3917C46.7323 33.4148 46.7003 33.4329 46.6659 33.4452C46.6362 33.4621 46.6032 33.4723 46.5691 33.4752ZM46.6401 33.2805C46.7649 33.1778 46.8553 33.0965 46.9112 33.0408L47.1995 32.7691L47.3329 32.63C47.3505 32.6091 47.3624 32.5841 47.3674 32.5573C47.3687 32.5465 47.3677 32.5355 47.3643 32.5252C47.361 32.5148 47.3554 32.5054 47.348 32.4974C47.342 32.4907 47.3348 32.4854 47.3266 32.4817C47.3185 32.478 47.3096 32.4761 47.3007 32.476C47.2879 32.4735 47.2747 32.4735 47.2619 32.476L47.2318 32.4909C47.2005 32.5051 47.1715 32.5239 47.1458 32.5466C47.0317 32.6386 46.9478 32.7113 46.8962 32.7605C46.8475 32.8106 46.8035 32.8651 46.7649 32.9232L46.6552 33.0794C46.605 33.1458 46.5705 33.2226 46.554 33.304C46.5844 33.3045 46.6143 33.2963 46.6401 33.2805Z" fill="#1D1D1B"/>
<path d="M53.8978 30.9654C53.8929 31.0469 53.8567 31.1235 53.7967 31.1793L53.7644 31.1943C53.7386 31.1943 53.7214 31.1793 53.7106 31.1472C53.7072 31.1296 53.7072 31.1114 53.7106 31.0937C53.7149 31.0806 53.7199 31.0678 53.7257 31.0552C53.7408 31.0082 53.7515 30.9803 53.7558 30.9696V30.9397C53.7552 30.9258 53.7503 30.9124 53.7419 30.9013C53.7334 30.8902 53.7218 30.882 53.7085 30.8776L53.6246 30.8541C53.5024 30.8283 53.3788 30.8097 53.2545 30.7985C53.0952 30.7835 52.9661 30.7771 52.8672 30.7771H52.6972C52.51 30.7771 52.2539 30.7921 51.9269 30.8113C51.5998 30.8306 51.3954 30.8455 51.3179 30.8605C51.2873 30.8648 51.2561 30.8648 51.2254 30.8605C51.1864 30.8621 51.1484 30.8728 51.1144 30.8917C51.0803 30.9107 51.0513 30.9374 51.0296 30.9696C50.8665 31.1944 50.7184 31.4295 50.5864 31.6736C50.372 32.0494 50.2167 32.4557 50.1259 32.8782C50.0032 33.3531 49.9382 33.8408 49.9323 34.3311C49.928 34.4159 49.928 34.5009 49.9323 34.5857C49.9388 34.6718 49.954 34.7571 49.9774 34.8403C49.9999 34.9116 50.0407 34.9757 50.0958 35.0265L50.1108 35.0436C50.1108 35.0436 50.1108 35.0628 50.1108 35.0735C50.1068 35.0781 50.1018 35.0817 50.0963 35.0843C50.0907 35.0869 50.0847 35.0883 50.0786 35.0885C50.0176 35.0815 49.9619 35.0507 49.9236 35.0029C49.8664 34.9493 49.8279 34.8788 49.8139 34.8018C49.8139 34.7718 49.7988 34.7205 49.7838 34.652C49.7687 34.5835 49.758 34.5194 49.7515 34.4616C49.7515 34.3225 49.7515 34.1877 49.7515 34.0593C49.7687 33.7641 49.7945 33.4966 49.829 33.257C49.8654 33.0191 49.923 32.785 50.0011 32.5573V32.5252C50.0011 32.5102 50.0011 32.5016 49.986 32.4995C49.9838 32.4985 49.9814 32.498 49.9789 32.498C49.9764 32.498 49.974 32.4985 49.9718 32.4995C49.9695 32.5005 49.9675 32.502 49.9659 32.5038C49.9643 32.5057 49.9631 32.5079 49.9624 32.5102L49.8526 32.6193C49.8204 32.66 49.7687 32.722 49.6977 32.8033L49.5342 32.9895C49.508 33.0206 49.475 33.0453 49.4377 33.0616C49.4004 33.078 49.3598 33.0855 49.319 33.0836C49.2782 33.0848 49.2376 33.0767 49.2003 33.06C49.1631 33.0433 49.1301 33.0185 49.1038 32.9874C49.048 32.9241 49.0174 32.8426 49.0178 32.7584V32.6878C49.0027 32.6771 48.9855 32.6878 48.9704 32.7028L48.7574 33.0794C48.6839 33.1809 48.6163 33.2866 48.5552 33.396C48.526 33.4319 48.4919 33.4636 48.454 33.4902C48.4129 33.5126 48.3674 33.5257 48.3206 33.5287C48.2963 33.5289 48.2721 33.5243 48.2496 33.5151C48.227 33.5059 48.2066 33.4924 48.1894 33.4752C48.1738 33.4599 48.1615 33.4415 48.1534 33.4213C48.1452 33.401 48.1414 33.3793 48.142 33.3575C48.1518 33.2495 48.1749 33.1432 48.2109 33.0408L48.2582 32.9082C48.2733 32.8633 48.3013 32.7905 48.34 32.6942C48.3639 32.6269 48.3964 32.5628 48.4368 32.5038C48.4517 32.4891 48.4718 32.4807 48.4928 32.4803C48.5117 32.4806 48.5302 32.4858 48.5466 32.4952C48.5613 32.5051 48.5726 32.5193 48.5788 32.5359C48.5832 32.5635 48.5832 32.5917 48.5788 32.6193C48.5718 32.6471 48.561 32.6737 48.5466 32.6985L48.4842 32.844C48.4643 32.9088 48.4406 32.9724 48.4132 33.0344C48.3743 33.1327 48.3483 33.2355 48.3357 33.3404C48.3465 33.3618 48.3938 33.3104 48.4756 33.1885L48.6176 32.9745C48.6735 32.8932 48.7768 32.7506 48.9274 32.5466L49.0608 32.3754L49.1318 32.3069C49.1464 32.2916 49.1654 32.2812 49.1862 32.2769C49.207 32.2727 49.2286 32.275 49.248 32.2834C49.2677 32.2897 49.285 32.3019 49.2973 32.3184C49.3097 32.3349 49.3165 32.3548 49.3169 32.3754C49.3151 32.4347 49.3064 32.4936 49.291 32.5509C49.2717 32.6193 49.2588 32.6728 49.248 32.7092C49.233 32.7862 49.2243 32.829 49.2243 32.8333C49.2265 32.8546 49.2316 32.8754 49.2394 32.8953C49.2433 32.9075 49.2501 32.9186 49.2592 32.9276C49.2683 32.9366 49.2794 32.9432 49.2917 32.947C49.304 32.9508 49.3169 32.9516 49.3296 32.9493C49.3422 32.947 49.3541 32.9417 49.3642 32.9339C49.4155 32.9005 49.4607 32.8585 49.4976 32.8098L49.8075 32.4375C50.0054 32.1957 50.1603 31.9881 50.2765 31.8191L50.4164 31.5474C50.4649 31.454 50.5087 31.3583 50.5476 31.2606C50.5692 31.22 50.5885 31.1793 50.6057 31.1408L50.6574 31.036C50.6626 31.0239 50.6691 31.0125 50.6767 31.0017C50.6844 30.991 50.6909 30.9795 50.6961 30.9675C50.7069 30.9675 50.7069 30.9482 50.6961 30.944L50.666 30.929L50.5476 30.9504L50.3927 30.9868L50.2636 31.051L49.9279 31.1365C49.8887 31.1446 49.85 31.1546 49.8118 31.1665C49.7669 31.1821 49.7192 31.1879 49.6719 31.1836H49.5708C49.5286 31.1844 49.487 31.1749 49.4494 31.1559C49.4119 31.1368 49.3797 31.1089 49.3556 31.0745C49.3074 30.9984 49.2834 30.9097 49.2867 30.8199C49.2886 30.8004 49.2943 30.7815 49.3035 30.7642C49.3127 30.747 49.3253 30.7317 49.3405 30.7193C49.3707 30.6872 49.3943 30.6829 49.4115 30.7022C49.4224 30.7186 49.4277 30.7381 49.4266 30.7578C49.4266 30.773 49.4222 30.7879 49.4137 30.8006L49.3943 30.8348C49.3943 30.8348 49.3836 30.8562 49.3793 30.8691C49.3765 30.8861 49.3765 30.9034 49.3793 30.9204C49.377 30.9417 49.3818 30.9631 49.3931 30.9814C49.4044 30.9996 49.4215 31.0135 49.4417 31.021C49.4979 31.0476 49.5605 31.0579 49.6224 31.051L49.7429 31.0253L49.8634 30.9975C50.0405 30.947 50.22 30.9056 50.4013 30.8734C50.5562 30.8434 50.6703 30.8177 50.7434 30.7963C50.8033 30.7775 50.8569 30.7427 50.8984 30.6958C50.9349 30.6588 50.968 30.6187 50.9973 30.5759C51.0247 30.5323 51.0572 30.4921 51.0942 30.4561L51.219 30.2999C51.3115 30.1865 51.3846 30.1052 51.4341 30.0517C51.4644 30.0195 51.5061 30.0003 51.5503 29.9982C51.5898 30.0008 51.6277 30.0141 51.6601 30.0367C51.6966 30.0581 51.7009 30.0924 51.6751 30.1373C51.6493 30.1822 51.6063 30.2529 51.5439 30.3513C51.4815 30.4497 51.4083 30.5396 51.3287 30.6423L51.2986 30.6808C51.2986 30.6808 51.2986 30.6808 51.2986 30.6915C51.2986 30.7022 51.2986 30.6915 51.3093 30.6915C51.3201 30.6915 51.3287 30.6915 51.3481 30.6915C51.8448 30.6396 52.3441 30.616 52.8435 30.6209C52.9814 30.6197 53.1193 30.6254 53.2566 30.638C53.4223 30.6573 53.5492 30.6786 53.6375 30.6979C53.6807 30.7006 53.7231 30.7115 53.7623 30.73C53.7956 30.7427 53.8253 30.7634 53.8485 30.7903C53.8718 30.8172 53.888 30.8494 53.8957 30.8841C53.8991 30.911 53.8998 30.9383 53.8978 30.9654Z" fill="#1D1D1B"/>
<path d="M51.0791 33.5586C51.0051 33.5576 50.932 33.5424 50.8639 33.5137C50.7762 33.4738 50.6984 33.4154 50.6358 33.3425C50.5812 33.2771 50.5522 33.1943 50.554 33.1093C50.5571 33.001 50.5923 32.8961 50.6552 32.8076C50.7769 32.6299 50.9391 32.4833 51.1285 32.3797C51.1876 32.3441 51.2565 32.3281 51.3253 32.3339C51.3941 32.3396 51.4593 32.3669 51.5115 32.4118C51.5439 32.4342 51.568 32.4665 51.5804 32.5038C51.5901 32.5201 51.596 32.5384 51.5976 32.5573C51.5978 32.5725 51.5944 32.5876 51.5876 32.6014C51.5809 32.6151 51.5711 32.6271 51.5589 32.6364C51.4561 32.7343 51.3419 32.8198 51.2189 32.891C51.105 32.9538 50.9787 32.9911 50.8488 33.0002C50.8298 32.9993 50.8109 33.0027 50.7934 33.0101C50.7759 33.0175 50.7602 33.0288 50.7477 33.043C50.7285 33.0852 50.7203 33.1316 50.724 33.1778C50.7222 33.2119 50.7282 33.2461 50.7416 33.2776C50.755 33.3091 50.7755 33.3372 50.8015 33.3596C50.863 33.4064 50.9393 33.4299 51.0167 33.426C51.222 33.4154 51.4209 33.3511 51.5933 33.2398C51.8063 33.1161 51.9981 32.9593 52.1614 32.7755C52.1868 32.7565 52.2162 32.7433 52.2474 32.737C52.2775 32.737 52.2818 32.7648 52.2474 32.8204C52.2195 32.8856 52.1818 32.9463 52.1355 33.0002C52.0276 33.1224 51.9055 33.2315 51.7719 33.3254C51.6349 33.4147 51.4835 33.4798 51.3243 33.518C51.2447 33.542 51.1622 33.5557 51.0791 33.5586ZM51.1479 32.722C51.1861 32.6986 51.2227 32.6729 51.2576 32.645L51.3975 32.5444L51.4126 32.5145C51.4126 32.4931 51.3975 32.4824 51.3674 32.4824C51.3316 32.4852 51.297 32.4962 51.2662 32.5145C51.1213 32.5974 50.9917 32.7046 50.8832 32.8311C50.9777 32.812 51.0675 32.7749 51.1479 32.722ZM51.546 31.4917C51.5788 31.4956 51.6092 31.5107 51.632 31.5345C51.6447 31.5443 51.6553 31.5565 51.663 31.5705C51.6708 31.5845 51.6756 31.5999 51.6772 31.6158C51.6772 31.6429 51.6698 31.6696 51.6557 31.6928C51.5803 31.8139 51.4939 31.9277 51.3975 32.033C51.3871 32.0463 51.3741 32.0573 51.3593 32.0653C51.3445 32.0734 51.3282 32.0785 51.3114 32.0801C51.2971 32.0815 51.2826 32.0795 51.2691 32.0743C51.2557 32.0691 51.2436 32.0608 51.234 32.0502C51.2254 32.0404 51.2206 32.0278 51.2206 32.0149C51.2206 32.0019 51.2254 31.9893 51.234 31.9795L51.3114 31.8469C51.3265 31.8276 51.3566 31.7827 51.4018 31.7164C51.4418 31.6555 51.4743 31.5902 51.4986 31.5217C51.5006 31.5145 51.5044 31.508 51.5097 31.5027C51.515 31.4975 51.5216 31.4937 51.5288 31.4917H51.546Z" fill="#1D1D1B"/>
</g>
<defs>
<clipPath id="clip0_88_2405">
<rect width="76" height="36" fill="white"/>
</clipPath>
</defs>
</svg>
