<svg width="224" height="106" viewBox="0 0 224 106" fill="none" xmlns="http://www.w3.org/2000/svg">
<g clip-path="url(#clip0_88_2514)">
<path d="M141.905 59.8325C133.724 63.222 125.416 62.8692 117.362 59.2025C114.908 58.0811 113.823 55.6744 114.426 52.9717C114.73 51.7864 115.412 50.7306 116.37 49.9619C117.328 49.1932 118.51 48.7528 119.74 48.7065C122.493 48.6498 124.604 50.1555 125.251 52.7323C125.968 55.5358 124.839 59.0324 120.647 60.0971C122.214 60.4562 123.767 60.9161 125.346 61.143C128.857 61.7501 132.469 61.3861 135.785 60.0908C141.036 57.9425 144.315 54.0049 146.116 48.7506C147.494 44.6946 148.268 40.4602 148.412 36.1818C148.532 32.9624 148.551 29.7304 148.412 26.511C148.26 21.4173 147.091 16.4042 144.974 11.7624C142.349 6.19305 138.138 2.39406 131.986 1.05212C128.245 0.245705 124.566 0.837915 120.793 2.16095C121.142 2.27435 121.313 2.33735 121.491 2.38775C122.771 2.73122 123.892 3.50715 124.659 4.58215C125.426 5.65716 125.793 6.96411 125.695 8.2784C125.59 9.60615 125.013 10.8535 124.067 11.7976C123.122 12.7416 121.869 13.3209 120.533 13.4319C119.208 13.533 117.891 13.1579 116.821 12.375C115.752 11.5921 115 10.4536 114.705 9.16671C114.134 6.47025 114.99 3.78008 118.085 2.51375C138.094 -5.67644 156.815 7.04356 160.398 24.3564C163.797 40.8943 154.785 54.49 141.905 59.8325Z" fill="#E8426A"/>
<path d="M108.261 54.5845C108.248 55.5996 107.933 56.5881 107.357 57.4263C106.78 58.2646 105.968 58.9153 105.021 59.297C98.9468 62.1144 92.1039 62.8518 85.563 61.3937C79.0221 59.9357 73.1523 56.3645 68.8724 51.2391C63.5833 45.0019 61.2622 37.8261 61.5158 29.7178C61.8837 17.0167 70.6291 5.2606 82.8371 1.44901C89.9982 -0.822542 97.7482 -0.414729 104.628 2.59564C107.691 3.85567 108.325 6.37573 107.932 8.99029C107.577 11.4032 105.268 13.2933 102.782 13.4508C101.533 13.5191 100.297 13.1696 99.2719 12.4581C98.2465 11.7466 97.4906 10.7142 97.1252 9.52581C96.9028 8.80201 96.8284 8.0413 96.9066 7.28851C96.9847 6.53573 97.2138 5.80609 97.5802 5.14262C97.9466 4.47915 98.4431 3.89526 99.0402 3.42537C99.6374 2.95549 100.323 2.6091 101.057 2.40664L101.609 2.25544V1.94043C99.6176 1.55612 97.6326 1.0017 95.6222 0.818998C86.3314 -0.00632139 79.8501 6.05442 77.1485 12.6948C75.3878 17.1418 74.3558 21.8404 74.0917 26.6118C73.7965 31.0932 73.9239 35.5922 74.4722 40.05C74.9732 44.1955 75.8801 48.2402 77.8587 51.9825C80.814 57.5329 85.507 60.5759 91.8108 61.2374C94.986 61.5797 98.1981 61.2182 101.216 60.179L101.71 59.9963C101.779 59.957 101.842 59.9106 101.901 59.8577C96.8272 58.9064 96.0408 53.3748 98.3429 50.6217C99.096 49.7261 100.116 49.091 101.256 48.808C102.395 48.5249 103.596 48.6085 104.685 49.0466C105.787 49.4855 106.723 50.2548 107.364 51.2474C108.005 52.24 108.319 53.4065 108.261 54.5845Z" fill="#E8426A"/>
<path d="M57.0702 43.3387C56.9434 48.7442 54.8442 53.211 50.0181 55.939C40.4419 61.3697 28.7856 55.939 26.5533 45.9974C26.368 45.1974 26.2702 44.38 26.2615 43.5592C26.2615 31.9124 26.2615 20.2613 26.2615 8.606C26.2615 8.37919 26.2615 8.15239 26.2932 7.88149H34.2903V9.04702C34.2903 20.2235 34.2903 31.4041 34.2903 42.589C34.2179 45.3423 34.4927 48.0937 35.1084 50.7792C36.1041 54.6727 38.5774 57.1423 42.0844 57.4384C44.7545 57.6564 47.4239 57.0111 49.6946 55.5988C51.74 54.4563 53.4511 52.8048 54.6597 50.8066C55.8683 48.8085 56.5329 46.5323 56.5882 44.2018C56.7531 41.1904 56.6643 38.16 56.6707 35.1359C56.6707 26.3913 56.6707 17.6467 56.6707 8.90211C56.6707 8.543 56.7087 8.17759 56.7277 7.81848H57.0131C57.0584 8.12128 57.088 8.4262 57.1019 8.73201C57.1019 16.6828 57.1019 24.6357 57.1019 32.5907C57.0956 36.1754 57.1526 39.7665 57.0702 43.3387Z" fill="#E8426A"/>
<path d="M201.252 7.32706L181.269 56.0083L181.649 56.1784C181.801 55.8697 181.966 55.5484 182.093 55.246C185.298 47.4464 188.494 39.6426 191.682 31.8346C191.75 31.5878 191.908 31.3745 192.124 31.2351C192.34 31.0958 192.6 31.0401 192.855 31.0786C195.779 31.0786 198.702 31.1164 201.632 31.0786C201.914 31.035 202.201 31.0992 202.437 31.2583C202.672 31.4173 202.838 31.6594 202.901 31.9354C205.945 39.735 209.04 47.522 212.09 55.3153C212.152 55.5776 212.311 55.8072 212.535 55.9588C212.76 56.1104 213.033 56.173 213.301 56.1343C215.724 56.0902 218.146 56.1343 220.569 56.1343C220.816 56.1343 221.057 56.0965 221.387 56.0713L201.252 7.32706ZM192.215 30.6817C193.908 26.5299 195.589 22.3907 197.371 18.0247C199.083 22.3781 200.706 26.4858 202.355 30.6817H192.215Z" fill="#E8426A"/>
<path d="M21.9998 55.6303C21.9998 55.7689 21.9998 55.9138 21.9998 56.0524H0.253662V7.91928H8.19364V55.6303H21.9998Z" fill="#E8426A"/>
<path d="M173.614 7.91928H165.693V56.0524H173.614V7.91928Z" fill="#E8426A"/>
<path d="M115.631 38.3931L115.13 38.8341C115.225 38.5947 115.326 38.3616 115.421 38.1222L115.631 38.3931Z" fill="#1D1D1B"/>
<path d="M118.294 44.7563C110.538 48.7695 100.233 46.3439 96.1422 37.2465C93.5548 31.4819 94.0875 25.9062 98.0131 20.7653C98.3493 20.2673 98.7801 19.8392 99.2814 19.5053C99.4719 19.4402 99.6747 19.4188 99.8746 19.4429C100.074 19.4669 100.266 19.5356 100.436 19.6439C100.81 19.8833 100.765 20.2739 100.436 20.696C98.7551 22.8695 98.7424 24.7596 100.271 27.0907C100.466 27.4211 100.533 27.8106 100.461 28.1869C100.142 29.5108 100.344 30.9056 101.025 32.0867C101.266 32.367 101.583 32.5726 101.939 32.6789C102.903 33.101 103.169 33.6113 102.89 34.3295C103.087 34.6571 103.315 34.8839 103.347 35.1296C103.382 35.4817 103.336 35.8371 103.213 36.1692C102.915 36.9945 102.7 37.6812 104.025 37.7316C104.209 37.7316 104.59 38.5254 104.501 38.8593C104.222 39.9241 104.894 39.9367 105.585 40.0249C105.528 38.9349 106.257 39.3948 106.79 39.3948C106.488 39.8369 106.215 40.2977 105.972 40.7746C105.814 41.1337 105.934 41.4046 106.441 41.3038C107.076 41.1463 107.469 41.3038 107.577 42.0346C107.579 42.2074 107.623 42.3771 107.704 42.5298C107.786 42.6826 107.902 42.8141 108.044 42.9136C108.187 43.0131 108.351 43.0778 108.523 43.1024C108.695 43.127 108.871 43.1109 109.035 43.0552C109.912 42.8464 110.743 42.4768 111.483 41.9653C112.752 40.9951 113.931 39.8989 115.13 38.8152C114.92 39.3192 114.711 39.8296 114.496 40.3714C116.138 41.4642 117.451 42.9798 118.294 44.7563Z" fill="#1D1D1B"/>
<path d="M126.799 31.6708C126.558 31.3369 126.393 31.1164 126.234 30.8833C124.199 27.8151 121.281 26.637 117.698 27.1032C115.58 27.3993 113.5 28.0293 111.356 28.294C108.921 28.6027 106.448 28.7224 104.273 27.1914C103.202 26.4982 102.364 25.5049 101.863 24.3375C101.547 23.5411 101.511 22.6624 101.76 21.843C102.008 21.0236 102.527 20.3111 103.232 19.8203C103.553 19.5957 103.918 19.4415 104.302 19.3677C104.687 19.2939 105.084 19.3022 105.465 19.3922C105.847 19.4822 106.204 19.6517 106.515 19.8895C106.825 20.1273 107.081 20.428 107.266 20.7716C107.475 21.0897 107.561 21.4721 107.509 21.8484C107.456 22.2246 107.269 22.5694 106.98 22.8191C106.952 22.7381 106.937 22.653 106.936 22.5671C107.05 21.6473 106.866 20.8346 105.947 20.4314C105.578 20.2854 105.174 20.2488 104.785 20.326C104.395 20.4031 104.037 20.5907 103.753 20.8661C103.388 21.1474 103.117 21.5304 102.974 21.966C102.83 22.4015 102.821 22.8697 102.947 23.3105C103.104 23.9857 103.422 24.6135 103.875 25.1409C104.327 25.6683 104.901 26.0799 105.547 26.3409C107.623 27.3197 109.999 27.4663 112.181 26.7504C114.508 25.9881 116.829 25.2636 119.341 25.4463C122.163 25.6542 124.63 26.511 126.393 28.8799C126.67 29.2836 126.851 29.7449 126.921 30.2286C126.992 30.7124 126.95 31.2057 126.799 31.6708Z" fill="#1D1D1B"/>
<path d="M123.913 39.9052C123.621 40.1887 123.387 40.5352 123.032 40.9573C121.174 36.6102 117.958 33.7184 113.918 31.507C116.143 31.6692 118.238 32.6063 119.835 34.1531C121.307 35.4887 122.581 37.0449 123.964 38.4813C124.08 38.5627 124.175 38.6717 124.238 38.7984C124.301 38.9251 124.332 39.0655 124.327 39.2069C124.322 39.3483 124.281 39.4861 124.209 39.6081C124.137 39.73 124.035 39.8321 123.913 39.9052Z" fill="#1D1D1B"/>
<path d="M124.376 22.019C119.303 21.1244 114.419 20.4881 109.593 22.3718C110.487 21.5276 112.713 20.5763 114.667 20.1857C117.134 19.7314 119.659 19.676 122.144 20.0219C123.336 20.1605 123.609 21.2 124.376 22.019Z" fill="#1D1D1B"/>
<path d="M126.101 35.2052C123.636 32.7434 120.539 31.0002 117.146 30.1651C120.372 30.278 123.458 31.4981 125.879 33.6176C126.013 33.6955 126.128 33.8027 126.214 33.9309C126.3 34.0591 126.356 34.2051 126.378 34.3579C126.399 34.5107 126.385 34.6664 126.337 34.8131C126.289 34.9599 126.209 35.0939 126.101 35.2052Z" fill="#1D1D1B"/>
<path d="M113.817 15.0952C111.832 16.0591 110.113 17.2435 109.003 19.1273L108.826 18.9761C109.46 17.9302 109.993 16.834 110.69 15.826C111.591 14.4904 111.997 14.4399 113.817 15.0952Z" fill="#1D1D1B"/>
<path d="M104.596 15.9646L101.279 20.4377C101.127 17.7853 101.85 16.7899 104.596 15.9646Z" fill="#1D1D1B"/>
<path d="M106.739 31.463C106.676 32.9939 105.845 33.7184 104.203 33.6428L104.932 33.0128L103.93 32.4458L104.089 32.3261C104.564 32.4513 105.058 32.4918 105.547 32.4458C105.953 32.2946 106.289 31.8347 106.739 31.463Z" fill="#1D1D1B"/>
<path d="M105.515 29.9257C104.515 30.3109 103.687 31.0396 103.182 31.9795C103.061 32.1749 102.668 32.2127 102.408 32.3261C102.408 32.0363 102.351 31.6645 102.503 31.4629C102.829 30.9702 103.278 30.5696 103.805 30.3002C104.333 30.0308 104.922 29.9018 105.515 29.9257Z" fill="#1D1D1B"/>
<path d="M0 67.5817H4.67393V68.1172H0.602472V70.6373H3.96365V71.1602H0.602472V74.178H4.99102V74.6946H0V67.5817Z" fill="#E8426A"/>
<path d="M16.0195 73.359C16.2359 73.6498 16.5259 73.8787 16.8599 74.0225C17.194 74.1664 17.5604 74.22 17.922 74.178C18.8099 74.178 19.7295 73.5479 19.7295 72.7793C19.7295 70.568 15.5121 72.0926 15.5121 69.4717C15.5121 68.3125 16.7234 67.5817 17.922 67.5817C18.3514 67.5603 18.7789 67.6522 19.161 67.848C19.543 68.0439 19.8661 68.3367 20.0973 68.6968L19.5582 68.8984C19.3794 68.6357 19.1339 68.4246 18.8466 68.2863C18.5594 68.148 18.2404 68.0875 17.922 68.1109C17.0469 68.1109 16.121 68.6401 16.121 69.4969C16.121 71.5508 20.3827 70.0136 20.3827 72.8045C20.3827 73.9701 19.1143 74.6946 17.922 74.6946C17.4708 74.7345 17.0167 74.6594 16.6028 74.4764C16.1888 74.2934 15.8287 74.0085 15.5565 73.6488L16.0195 73.359Z" fill="#E8426A"/>
<path d="M35.8948 67.5817V68.1172H33.6815V74.6694H33.0854V68.1172H30.8214V67.5943L35.8948 67.5817Z" fill="#E8426A"/>
<path d="M47.4623 67.5817V70.6373H51.7494V66.6682H52.3836V76.3074H51.7494V71.1602H47.4433V74.6442H46.8091V67.5817H47.4623Z" fill="#E8426A"/>
<path d="M63.2471 67.5817H67.9274V68.1172H63.8559V70.6373H67.2171V71.1602H63.8559V74.178H68.2381V74.6946H63.2408L63.2471 67.5817Z" fill="#E8426A"/>
<path d="M84.0927 67.5817V68.1172H81.8794V74.6694H81.2833V68.1172H79.051V67.5943L84.0927 67.5817Z" fill="#E8426A"/>
<path d="M95.1085 67.5817H95.711V74.6757H95.1085V67.5817Z" fill="#E8426A"/>
<path d="M106.594 67.5754H107.228V71.576L111.287 67.5817H112.067L109.225 70.4168L113.481 76.1877H112.752L108.794 70.8137L107.228 72.3257V74.6694H106.594V67.5754Z" fill="#E8426A"/>
<path d="M139.102 67.5376C140.164 67.5447 141.184 67.9471 141.962 68.6653L141.524 69.0181C141.205 68.706 140.827 68.4604 140.411 68.296C139.994 68.1315 139.549 68.0514 139.102 68.0605C138.672 68.0171 138.238 68.0637 137.827 68.1973C137.417 68.3309 137.039 68.5486 136.719 68.8363C136.398 69.1239 136.142 69.4752 135.967 69.8673C135.791 70.2595 135.701 70.6838 135.701 71.1129C135.701 71.542 135.791 71.9664 135.967 72.3585C136.142 72.7507 136.398 73.1019 136.719 73.3896C137.039 73.6772 137.417 73.8949 137.827 74.0285C138.238 74.1622 138.672 74.2088 139.102 74.1654C140.029 74.1396 140.917 73.7867 141.607 73.1699L142.032 73.5353C141.242 74.2807 140.191 74.6919 139.102 74.682C136.927 74.682 135.119 73.1006 135.119 71.1224C135.119 69.1441 136.92 67.5376 139.102 67.5376Z" fill="#E8426A"/>
<path d="M152.921 67.5817H157.601V68.1172H153.523V70.6373H156.891V71.1602H153.523V74.178H157.918V74.6946H152.921V67.5817Z" fill="#E8426A"/>
<path d="M168.648 67.5817H169.207L173.557 73.5353V65.6475H174.147V74.6694H173.684L169.245 68.6023V74.6694H168.642L168.648 67.5817Z" fill="#E8426A"/>
<path d="M190.173 67.5817V68.1172H187.959V74.6694H187.357V68.1172H185.131V67.5943L190.173 67.5817Z" fill="#E8426A"/>
<path d="M201.169 67.5817H205.856V68.1172H201.785V70.6373H205.146V71.1602H201.785V74.178H206.173V74.6946H201.182L201.169 67.5817Z" fill="#E8426A"/>
<path d="M217.5 74.6693H216.865V67.5817H220.036C220.65 67.549 221.252 67.7595 221.71 68.167C222.167 68.5745 222.444 69.1456 222.478 69.7552C222.466 70.2014 222.316 70.6331 222.048 70.9915C221.78 71.35 221.408 71.6178 220.981 71.7587C220.632 71.8749 220.265 71.9324 219.897 71.9288L223.975 75.8538H223.15L218.584 71.4437H220.036C220.268 71.4637 220.501 71.4358 220.72 71.3616C220.94 71.2875 221.142 71.1687 221.313 71.0129C221.484 70.8571 221.621 70.6676 221.714 70.4565C221.808 70.2454 221.856 70.0173 221.856 69.7867C221.856 69.5561 221.808 69.328 221.714 69.1169C221.621 68.9059 221.484 68.7164 221.313 68.5606C221.142 68.4048 220.94 68.286 220.72 68.2118C220.501 68.1377 220.268 68.1097 220.036 68.1298H217.5V74.6693Z" fill="#E8426A"/>
<path d="M64.7121 101.722C64.6842 101.651 64.6842 101.573 64.7121 101.502C64.8939 101.019 65.0842 100.571 65.2829 100.16L65.6951 99.2715C65.7163 99.2183 65.7333 99.1635 65.7459 99.1077C65.7459 99.051 65.6888 98.9879 65.581 98.9249C65.4675 98.8706 65.3611 98.8029 65.2639 98.7233C65.2312 98.6887 65.192 98.6609 65.1484 98.6414C65.1049 98.622 65.0579 98.6113 65.0102 98.6099L64.8263 98.654C64.7673 98.677 64.7054 98.6918 64.6424 98.6981C64.5708 98.6939 64.5002 98.6791 64.4331 98.654L64.2745 98.5847C64.2622 98.556 64.2516 98.5266 64.2428 98.4965C64.2398 98.49 64.2382 98.4828 64.2382 98.4756C64.2382 98.4684 64.2398 98.4613 64.2428 98.4547C64.2458 98.4481 64.2502 98.4423 64.2557 98.4375C64.2611 98.4328 64.2676 98.4293 64.2745 98.4272C64.3762 98.3679 64.4848 98.3214 64.598 98.2886C64.6721 98.2666 64.7389 98.2251 64.7913 98.1686C64.8438 98.112 64.8799 98.0425 64.896 97.9673C64.8994 97.9447 64.9073 97.9231 64.9193 97.9036C64.9313 97.8841 64.9471 97.8672 64.9658 97.8539C64.9658 97.8539 65.0292 97.8539 65.08 97.9043C65.1343 97.9608 65.2047 97.9996 65.2817 98.0153C65.3588 98.0311 65.4388 98.0231 65.5112 97.9925L66.0883 97.835C66.1785 97.811 66.2621 97.7674 66.3334 97.7075C66.4046 97.6476 66.4617 97.5728 66.5005 97.4885L67.1347 96.3293C67.4074 95.8127 67.6103 95.4221 67.7308 95.1638C67.8246 94.9737 67.9283 94.7886 68.0416 94.6093L68.2826 94.2061L68.3714 94.0486C68.3714 93.9541 68.3714 93.91 68.2826 93.91C68.1983 93.9005 68.1132 93.9005 68.0289 93.91C67.8697 93.9397 67.7087 93.9586 67.5469 93.9667L67.0396 93.9982C66.5829 94.0519 66.1232 94.0751 65.6634 94.0675H64.9785C64.7077 94.0599 64.4382 94.0282 64.1731 93.973C64.0177 93.9515 63.8687 93.8978 63.7355 93.8155C63.6634 93.7787 63.6021 93.7239 63.5577 93.6566C63.5132 93.5892 63.4871 93.5116 63.4818 93.4312C63.4928 93.3524 63.5098 93.2744 63.5325 93.1981C63.6542 92.8925 63.8232 92.6076 64.0335 92.3539C64.2689 92.0508 64.5345 91.7722 64.8263 91.5223L65.4097 91.0309C65.9013 90.6299 66.4159 90.2576 66.9508 89.9157C67.0396 89.859 67.4455 89.6259 68.1684 89.2353C69.2897 88.5988 70.4733 88.0774 71.7008 87.6792C72.5887 87.4083 73.2609 87.2193 73.7239 87.1122C74.6605 86.87 75.6227 86.7389 76.5904 86.7216C77.2725 86.7088 77.9507 86.8264 78.5881 87.0681C78.9552 87.1904 79.276 87.4212 79.5076 87.7296C79.7502 88.0184 79.8866 88.3805 79.8945 88.7565C79.8902 88.9425 79.8515 89.1262 79.7803 89.2983C79.656 89.5955 79.4894 89.8734 79.2857 90.1236L78.9115 90.6024C78.6665 90.9189 78.388 91.2083 78.0807 91.4656C77.7636 91.7428 77.567 91.9003 77.5099 91.9444C76.7654 92.5457 75.9907 93.1092 75.1888 93.6328L74.6181 94.0234L73.6287 94.6912C73.1082 95.0509 72.5637 95.3751 71.9989 95.6615L70.35 96.5309C69.9188 96.7451 69.4304 96.9782 68.8787 97.2365L68.1684 97.5767C68.0241 97.6365 67.8975 97.732 67.8006 97.8539C67.7372 97.9421 67.6611 98.0681 67.5723 98.2193C67.4948 98.3458 67.4101 98.4678 67.3186 98.5847L67.2742 98.6729C67.2742 98.7485 67.325 98.7926 67.4328 98.8115C67.5893 98.8601 67.7511 98.8897 67.9148 98.8997L68.327 98.9438C68.8443 99.0094 69.3655 99.041 69.8871 99.0383C70.8776 99.0391 71.8657 98.9398 72.836 98.7422C73.6765 98.5776 74.5017 98.3437 75.303 98.0429C75.786 97.8848 76.2498 97.6735 76.6855 97.4129C76.7757 97.3508 76.8768 97.3059 76.9836 97.2806C77.0046 97.2797 77.0257 97.2832 77.0453 97.2907C77.065 97.2983 77.0828 97.3099 77.0977 97.3247C77.1084 97.3417 77.1141 97.3614 77.1141 97.3814C77.1141 97.4015 77.1084 97.4211 77.0977 97.4381C77.0586 97.5537 76.9771 97.6504 76.8694 97.709C75.8759 98.3385 74.7856 98.8024 73.6414 99.0824C72.3263 99.4202 70.9727 99.5875 69.6144 99.5802C68.7648 99.5777 67.9168 99.5103 67.0776 99.3786H66.9888C66.9174 99.3755 66.8466 99.3929 66.7847 99.4286C66.7229 99.4644 66.6727 99.517 66.64 99.5802L66.2088 100.21C65.9272 100.582 65.6809 100.978 65.4731 101.395L65.2639 101.804C65.1878 101.924 65.1117 101.987 65.0356 101.987C64.9684 101.984 64.904 101.959 64.8517 101.918C64.7909 101.864 64.7432 101.797 64.7121 101.722ZM68.5172 96.827L68.6441 96.7829L68.8533 96.6947C69.2617 96.5588 69.6565 96.3859 70.0329 96.1781C70.4071 95.9765 70.9018 95.6867 71.5169 95.3276L72.1511 94.9621C73.039 94.414 73.6985 93.9919 74.1297 93.7021C74.282 93.6076 74.4532 93.4942 74.6434 93.3556C74.8337 93.217 75.062 93.0784 75.322 92.9272C76.0403 92.4771 76.7249 91.976 77.3704 91.4278C77.8455 91.0188 78.2906 90.5767 78.7022 90.1047C78.997 89.7835 79.2311 89.4122 79.3935 89.0085C79.4521 88.8732 79.4823 88.7274 79.4823 88.5801C79.4823 88.3837 79.4264 88.1912 79.3209 88.0251C79.2154 87.859 79.0646 87.7259 78.8861 87.6414C78.4714 87.4246 78.0199 87.2857 77.5543 87.2319C77.379 87.2228 77.2033 87.2228 77.028 87.2319H75.8357C75.4881 87.2344 75.1417 87.2724 74.802 87.3453C74.4342 87.4209 73.9585 87.5343 73.3751 87.6855C72.3909 87.9511 71.4249 88.2794 70.4832 88.6683C68.7667 89.3605 67.157 90.2894 65.7015 91.4278C65.2373 91.7881 64.8273 92.2124 64.4838 92.6878C64.3359 92.8869 64.2044 93.0976 64.0906 93.3178C64.0827 93.3637 64.0827 93.4105 64.0906 93.4564C64.0906 93.5509 64.1604 93.6076 64.2936 93.6391H64.4331H65.4161C65.5873 93.6391 65.841 93.6391 66.1771 93.5887C66.5132 93.5383 66.8874 93.532 67.4455 93.5005C67.606 93.4912 67.7669 93.4912 67.9274 93.5005C68.0897 93.4955 68.2518 93.5125 68.4094 93.5509C68.4555 93.5593 68.5028 93.5593 68.5489 93.5509C68.6097 93.5489 68.6683 93.5286 68.717 93.4925C68.7658 93.4565 68.8023 93.4065 68.8216 93.3493C68.8351 93.3374 68.846 93.3228 68.8536 93.3066C68.8612 93.2903 68.8655 93.2727 68.866 93.2548L69.9949 91.2955L70.5213 90.2433L70.591 89.9976V89.9472H70.553L70.4832 89.985L70.4388 90.0165C70.1888 90.2435 69.9094 90.4363 69.608 90.5899C69.3212 90.7211 69.0578 90.8977 68.828 91.1128C68.8139 91.1286 68.7962 91.1409 68.7763 91.1486C68.7564 91.1563 68.735 91.1591 68.7138 91.1569C68.7138 91.1569 68.6694 91.1569 68.625 91.1569V91.0876C68.7411 90.9319 68.8706 90.7864 69.0119 90.6528L69.4305 90.3126C69.5009 90.2374 69.5772 90.1679 69.6588 90.1047C69.7574 90.0225 69.8487 89.9318 69.9315 89.8338C70.1154 89.6343 70.3293 89.4643 70.5656 89.3298L70.7686 89.2164C70.8084 89.2086 70.8493 89.2086 70.8891 89.2164C70.9268 89.2093 70.9655 89.2093 71.0032 89.2164L71.092 89.2605C71.1736 89.2971 71.2404 89.3598 71.2818 89.4387C71.3232 89.5175 71.3368 89.6078 71.3203 89.6952L71.1871 90.1047C71.0656 90.4628 70.915 90.8104 70.7369 91.1443C70.5593 91.4719 70.312 91.9066 69.9885 92.4547L69.2782 93.6643C69.2318 93.7483 69.2017 93.8402 69.1895 93.9352C69.1946 94.0015 69.2188 94.0649 69.2592 94.1179C69.3191 94.2462 69.3494 94.3861 69.348 94.5274C69.344 94.6441 69.3291 94.7601 69.3036 94.8739C69.2617 95.0295 69.2066 95.1813 69.1387 95.3276L68.8914 95.8757L68.7392 96.2159C68.6694 96.3671 68.606 96.4994 68.5426 96.6065C68.5178 96.6557 68.5027 96.7091 68.4982 96.764C68.4411 96.827 68.4792 96.8585 68.5426 96.827H68.5172ZM66.8557 98.2634C66.8819 98.2311 66.8974 98.1915 66.9001 98.15L66.8557 98.1059C66.8174 98.1201 66.7839 98.1448 66.7592 98.1772C66.7345 98.2095 66.7196 98.2482 66.7162 98.2886C66.7162 98.3201 66.7161 98.3327 66.7669 98.3327C66.8176 98.3327 66.8493 98.3138 66.881 98.2634H66.8557ZM67.5913 97.0601L67.9782 96.3293C68.2382 95.8253 68.4728 95.3402 68.6694 94.8676C68.6645 94.8427 68.6645 94.817 68.6694 94.792C68.682 94.7574 68.682 94.7196 68.6694 94.685H68.5997C68.4475 94.9118 68.365 95.0441 68.346 95.0756L67.9148 95.8694C67.6809 96.2778 67.4692 96.6984 67.2806 97.1294L67.2108 97.2869C67.2108 97.331 67.2108 97.3562 67.2108 97.3562C67.2333 97.3644 67.2581 97.3644 67.2806 97.3562C67.4228 97.3026 67.5387 97.1965 67.604 97.0601H67.5913Z" fill="white"/>
<path d="M78.2456 98.8115C78.0276 98.8086 77.8122 98.7636 77.6114 98.6792C77.3513 98.5617 77.1199 98.3898 76.9328 98.1752C76.7743 97.9812 76.6891 97.7383 76.6918 97.4885C76.7036 97.1692 76.8094 96.8603 76.9962 96.6002C77.3551 96.077 77.8331 95.6453 78.3914 95.3401C78.5451 95.2499 78.7203 95.202 78.8988 95.2015C79.1306 95.2059 79.3541 95.2881 79.533 95.4346C79.6283 95.5008 79.6995 95.5959 79.7359 95.7056C79.7645 95.7536 79.7819 95.8074 79.7867 95.8631C79.7859 95.9085 79.7747 95.9532 79.7538 95.9936C79.7329 96.034 79.7029 96.0691 79.6662 96.0962C79.3666 96.3859 79.0322 96.6377 78.6705 96.8459C78.3348 97.0307 77.9625 97.1404 77.5797 97.1672C77.5237 97.1647 77.4678 97.1747 77.4162 97.1965C77.3646 97.2183 77.3186 97.2513 77.2816 97.2932C77.2249 97.4175 77.2009 97.5541 77.2119 97.6901C77.2063 97.7907 77.224 97.8913 77.2636 97.9841C77.3032 98.0769 77.3636 98.1595 77.4402 98.2256C77.6211 98.3643 77.8462 98.4336 78.0744 98.4209C78.6795 98.3897 79.2657 98.2006 79.774 97.8728C80.3994 97.5052 80.9641 97.0441 81.4482 96.5057C81.5233 96.4497 81.6099 96.411 81.7019 96.3923C81.7907 96.3923 81.8034 96.4742 81.7019 96.638C81.6197 96.83 81.5085 97.0084 81.3721 97.1672C81.0539 97.527 80.6941 97.8484 80.3003 98.1248C79.896 98.3864 79.45 98.5781 78.9812 98.6918C78.7424 98.7637 78.495 98.804 78.2456 98.8115ZM78.4485 96.3482C78.561 96.2793 78.669 96.2036 78.772 96.1214L79.1842 95.8253L79.2286 95.7371C79.2286 95.6741 79.1842 95.6426 79.0954 95.6426C78.988 95.6507 78.8839 95.683 78.791 95.7371C78.3645 95.9798 77.9844 96.2954 77.6685 96.6695C77.9468 96.6131 78.2117 96.504 78.4485 96.3482Z" fill="white"/>
<path d="M82.1204 99.9329C81.9517 99.9314 81.7861 99.8881 81.6385 99.8069C81.4939 99.725 81.3633 99.6208 81.2516 99.4982C81.1072 99.3146 81.0113 99.098 80.9726 98.8682C80.9313 98.6418 80.9164 98.4113 80.9282 98.1815C80.9326 97.6826 80.9943 97.1859 81.1121 96.701C81.2172 96.2363 81.355 95.7794 81.5243 95.3338C81.6765 94.9369 81.7843 94.6597 81.8477 94.5085C82.1845 93.6272 82.5742 92.7667 83.0146 91.9317C83.6171 90.8103 84.1054 89.9598 84.4859 89.4117C84.8283 88.885 85.2376 88.4044 85.7036 87.9816C85.8457 87.8424 86.0314 87.7558 86.23 87.7359C86.371 87.7423 86.5073 87.7881 86.6232 87.8682C86.6745 87.9347 86.6994 88.0177 86.6929 88.1013C86.6906 88.3215 86.634 88.5378 86.528 88.7313C85.8981 90.0879 85.1793 91.476 84.3718 92.8957C83.5866 94.2729 82.7293 95.6082 81.8033 96.8963C81.7496 96.946 81.7102 97.0091 81.6892 97.079C81.5318 97.5118 81.4461 97.9671 81.4355 98.4272C81.4289 98.7393 81.4917 99.0491 81.6194 99.3344C81.7272 99.536 81.8414 99.6305 81.9619 99.6305C82.0653 99.6169 82.1659 99.5872 82.26 99.5423C82.3547 99.4967 82.4458 99.444 82.5326 99.3848C82.7483 99.2273 83.1668 98.8871 83.7186 98.3579C84.1961 97.9227 84.6452 97.4576 85.0631 96.9656C85.1224 96.8888 85.1905 96.819 85.266 96.7577C85.3611 96.701 85.4245 96.7136 85.4753 96.8081V96.8711C85.4795 96.9565 85.4499 97.0401 85.3928 97.1042L85.2914 97.2176C85.2279 97.3058 85.0123 97.5578 84.6572 97.9673C84.3222 98.3873 83.9622 98.7871 83.5791 99.1643C83.3018 99.4411 82.9856 99.6767 82.6405 99.8636C82.4751 99.9272 82.2969 99.951 82.1204 99.9329ZM84.302 91.8499C84.958 90.7538 85.5344 89.6127 86.027 88.4352C85.1356 89.3776 84.3955 90.4506 83.8327 91.6167C83.1973 92.7721 82.6483 93.9724 82.1902 95.2078C82.9604 94.131 83.6656 93.0097 84.302 91.8499Z" fill="white"/>
<path d="M86.23 98.8115C86.0119 98.8094 85.7963 98.7644 85.5958 98.6792C85.3343 98.564 85.1024 98.3917 84.9172 98.1752C84.7587 97.9812 84.6735 97.7383 84.6762 97.4885C84.6886 97.1703 84.792 96.8621 84.9743 96.6002C85.3357 96.0769 85.8157 95.6453 86.3758 95.3401C86.5295 95.2499 86.7046 95.202 86.8832 95.2015C87.1153 95.2044 87.3393 95.2867 87.5173 95.4346C87.6163 95.4984 87.6902 95.5941 87.7266 95.7056C87.7536 95.7539 87.7688 95.8078 87.771 95.8631C87.7715 95.9081 87.7615 95.9525 87.7416 95.993C87.7218 96.0335 87.6928 96.0688 87.6569 96.0962C87.356 96.3843 87.0217 96.6359 86.6612 96.8459C86.3251 97.0298 85.9531 97.1394 85.5704 97.1672C85.5143 97.1642 85.4583 97.174 85.4067 97.1958C85.355 97.2177 85.3091 97.251 85.2723 97.2932C85.2124 97.4165 85.1883 97.5539 85.2026 97.6901C85.1971 97.7907 85.2148 97.8913 85.2543 97.9841C85.2939 98.0769 85.3543 98.1595 85.4309 98.2256C85.6115 98.3648 85.8369 98.4342 86.0651 98.4209C86.6704 98.3906 87.2568 98.2014 87.7647 97.8728C88.3924 97.5085 88.9576 97.047 89.4389 96.5057C89.5146 96.4507 89.601 96.4121 89.6926 96.3923C89.7877 96.3923 89.7941 96.4742 89.7306 96.638C89.6459 96.8301 89.5326 97.0085 89.3945 97.1672C89.0784 97.5268 88.7208 97.8482 88.3291 98.1248C87.9248 98.3864 87.4788 98.5781 87.01 98.6918C86.7566 98.7666 86.4942 98.8069 86.23 98.8115ZM86.4392 96.3482C86.528 96.2915 86.6358 96.2159 86.7563 96.1214L87.1749 95.8253L87.2193 95.7371C87.2193 95.6741 87.1749 95.6426 87.0798 95.6426C86.9744 95.651 86.8725 95.6833 86.7817 95.7371C86.3552 95.9798 85.9752 96.2954 85.6592 96.6695C85.9368 96.6108 86.2013 96.5019 86.4392 96.3482Z" fill="white"/>
<path d="M89.699 98.8367C89.5864 98.8372 89.475 98.8139 89.3722 98.7682C89.2694 98.7226 89.1776 98.6558 89.1028 98.5721C89.018 98.491 88.9515 98.3928 88.9078 98.2842C88.8641 98.1756 88.8441 98.059 88.8492 97.9421C88.8466 97.5256 88.9399 97.114 89.1219 96.7388L89.6038 95.8693C89.662 95.7833 89.7129 95.6927 89.756 95.5984C89.7978 95.4861 89.8651 95.3848 89.9526 95.3023C89.9989 95.2448 90.0604 95.2012 90.1302 95.1763C90.1603 95.172 90.1909 95.1749 90.2196 95.1848C90.2483 95.1947 90.2742 95.2112 90.2951 95.233C90.3542 95.273 90.4022 95.3272 90.4346 95.3906C90.4438 95.4637 90.4257 95.5376 90.3839 95.5984L89.8321 96.5309C89.655 96.843 89.5105 97.1723 89.4009 97.5137C89.3735 97.6487 89.3565 97.7856 89.3502 97.9232C89.3502 98.2382 89.4136 98.402 89.5341 98.402C89.621 98.3855 89.702 98.3464 89.7687 98.2886C90.2316 97.9717 90.6571 97.6039 91.0371 97.1924C91.6255 96.5707 92.1781 95.9166 92.6923 95.233L93.1743 94.603C93.2504 94.4959 93.3075 94.4455 93.3582 94.4455C93.3896 94.4474 93.4202 94.4564 93.4476 94.4716C93.4751 94.4869 93.4987 94.5081 93.5167 94.5337C93.5612 94.5941 93.5856 94.6668 93.5865 94.7416C93.5745 94.8484 93.5352 94.9503 93.4723 95.0377C93.0284 95.6678 92.6352 96.1655 92.2864 96.6002C91.9435 97.031 91.5728 97.4393 91.1766 97.8224C91.0482 97.9295 90.9255 98.0431 90.8088 98.1626C90.6787 98.2923 90.5411 98.4143 90.3966 98.528C90.3073 98.5944 90.2141 98.6554 90.1175 98.7107C89.9944 98.7947 89.8482 98.8387 89.699 98.8367Z" fill="white"/>
<path d="M94.5377 98.8115C94.3197 98.8087 94.1043 98.7638 93.9035 98.6792C93.6434 98.5617 93.412 98.3898 93.2249 98.1752C93.0664 97.9812 92.9812 97.7383 92.984 97.4885C92.9963 97.1703 93.0997 96.8621 93.282 96.6002C93.645 96.0783 94.1247 95.647 94.6836 95.3401C94.8372 95.2499 95.0124 95.202 95.1909 95.2015C95.423 95.2044 95.647 95.2867 95.8251 95.4346C95.9241 95.4984 95.998 95.5941 96.0344 95.7056C96.0614 95.7539 96.0766 95.8078 96.0787 95.8631C96.0792 95.9081 96.0692 95.9525 96.0494 95.993C96.0296 96.0335 96.0005 96.0688 95.9646 96.0962C95.6651 96.3859 95.3306 96.6377 94.9689 96.8459C94.6333 97.0307 94.261 97.1404 93.8781 97.1672C93.8221 97.1647 93.7663 97.1747 93.7147 97.1965C93.6631 97.2183 93.6171 97.2513 93.5801 97.2932C93.5234 97.4175 93.4994 97.5541 93.5103 97.6901C93.5048 97.7907 93.5225 97.8913 93.5621 97.9841C93.6016 98.0769 93.662 98.1595 93.7386 98.2256C93.9193 98.3648 94.1446 98.4342 94.3728 98.4209C94.9781 98.3906 95.5646 98.2014 96.0724 97.8728C96.701 97.5071 97.2681 97.0458 97.753 96.5057C97.8262 96.4505 97.9106 96.4118 98.0003 96.3923C98.0933 96.3923 98.106 96.4742 98.0384 96.638C97.9537 96.8301 97.8404 97.0085 97.7023 97.1672C97.3877 97.5283 97.0299 97.8499 96.6368 98.1248C96.2325 98.3864 95.7865 98.5781 95.3177 98.6918C95.0645 98.7671 94.802 98.8074 94.5377 98.8115ZM94.747 96.3482L95.0704 96.1214L95.508 95.8379L95.5524 95.7496C95.5524 95.6866 95.508 95.6551 95.4129 95.6551C95.3077 95.6645 95.2059 95.6967 95.1148 95.7496C94.6883 95.9924 94.3083 96.308 93.9923 96.6821C94.2627 96.6188 94.5187 96.5055 94.747 96.3482Z" fill="white"/>
<path d="M97.5692 99.221C97.48 99.2248 97.3912 99.206 97.3114 99.1663C97.2315 99.1267 97.1631 99.0674 97.1126 98.9943C97.0545 98.9324 97.0208 98.8519 97.0175 98.7674C97.0175 98.6918 97.0745 98.6099 97.1823 98.5154C97.405 98.3304 97.6425 98.164 97.8926 98.0177C98.3175 97.7279 98.7297 97.4318 99.1166 97.1357C99.6276 96.7449 100.115 96.3242 100.575 95.8757C100.596 95.859 100.614 95.838 100.626 95.8141C100.638 95.7901 100.644 95.7638 100.645 95.7371C100.645 95.6741 100.594 95.6237 100.486 95.5795C100.314 95.4965 100.126 95.4494 99.9347 95.4409C99.8207 95.4317 99.7062 95.4317 99.5922 95.4409C99.1461 95.4436 98.7086 95.5632 98.3239 95.7875C98.2266 95.8016 98.1371 95.8482 98.0702 95.9198C98.0575 95.942 98.039 95.9606 98.0167 95.9734C97.9945 95.9863 97.9691 95.9931 97.9434 95.9931C97.9176 95.9931 97.8923 95.9863 97.87 95.9734C97.8477 95.9606 97.8293 95.942 97.8165 95.9198C97.7599 95.8549 97.7206 95.7769 97.7024 95.6929C97.7024 95.6299 97.7658 95.5607 97.8863 95.4851C98.351 95.2074 98.8851 95.0655 99.4273 95.0755C99.7332 95.0877 100.038 95.1171 100.341 95.1637C100.59 95.2264 100.806 95.382 100.943 95.5984C101.01 95.6931 101.05 95.8043 101.057 95.9198C101.051 96.0277 101.011 96.1311 100.943 96.2159C100.879 96.3176 100.8 96.4089 100.708 96.4868C100.412 96.7857 100.099 97.0676 99.7698 97.331C99.4337 97.6082 98.8059 98.0555 97.8673 98.6792C97.8094 98.7097 97.7611 98.7555 97.7277 98.8115H97.7975C97.8685 98.8128 97.9393 98.8021 98.0068 98.78C98.0576 98.7613 98.1111 98.7507 98.1653 98.7485C98.3492 98.717 98.641 98.654 99.0405 98.5658C99.6363 98.4236 100.243 98.3309 100.854 98.2886C101.003 98.2871 101.151 98.3105 101.292 98.3579C101.344 98.3855 101.39 98.4242 101.425 98.4713C101.431 98.4862 101.434 98.5024 101.432 98.5184C101.431 98.5344 101.425 98.5498 101.417 98.5634C101.408 98.5769 101.396 98.5883 101.382 98.5964C101.368 98.6045 101.352 98.6091 101.336 98.6099H101.292C100.797 98.6855 100.157 98.8115 99.3576 98.9754C98.3683 99.177 97.8229 99.2777 97.7277 99.2966L97.5692 99.221Z" fill="white"/>
<path d="M105.325 98.8367C105.213 98.8368 105.101 98.8133 104.999 98.7677C104.896 98.7221 104.804 98.6554 104.729 98.5721C104.646 98.4897 104.582 98.3912 104.539 98.2828C104.497 98.1744 104.477 98.0584 104.482 97.9421C104.479 97.5256 104.572 97.114 104.754 96.7388C105.014 96.2663 105.173 95.9765 105.236 95.8693C105.295 95.7833 105.345 95.6927 105.389 95.5984C105.431 95.4878 105.496 95.3869 105.579 95.3023C105.627 95.2443 105.691 95.2007 105.763 95.1763C105.793 95.172 105.824 95.1749 105.852 95.1848C105.881 95.1947 105.907 95.2112 105.928 95.233C105.987 95.2709 106.034 95.3259 106.061 95.3906C106.061 95.4347 106.061 95.5039 106.017 95.5984L105.465 96.5309C105.288 96.844 105.141 97.1731 105.027 97.5137C105.004 97.6492 104.99 97.786 104.983 97.9232C104.983 98.2382 105.046 98.402 105.167 98.402C105.251 98.3839 105.33 98.3449 105.395 98.2886C105.859 97.9735 106.285 97.6056 106.663 97.1924C107.252 96.5722 107.802 95.918 108.312 95.233L108.794 94.603C108.87 94.4959 108.934 94.4455 108.978 94.4455C109.011 94.447 109.042 94.4556 109.071 94.4709C109.099 94.4862 109.124 94.5076 109.143 94.5337C109.188 94.5941 109.212 94.6668 109.213 94.7416C109.202 94.8498 109.16 94.9525 109.092 95.0377C108.648 95.6678 108.255 96.1655 107.913 96.6002C107.57 97.031 107.199 97.4393 106.803 97.8224C106.675 97.9295 106.552 98.0431 106.435 98.1626C106.303 98.2926 106.163 98.4146 106.017 98.528C105.93 98.5954 105.839 98.6565 105.744 98.7107C105.621 98.7943 105.474 98.8383 105.325 98.8367Z" fill="white"/>
<path d="M125.048 90.2874C125.046 90.3047 125.04 90.3214 125.032 90.3366C125.023 90.3517 125.011 90.365 124.998 90.3756C124.985 90.3859 124.969 90.3915 124.953 90.3915C124.937 90.3915 124.921 90.3859 124.909 90.3756C124.837 90.3684 124.767 90.3514 124.699 90.3252C124.5 90.2322 124.285 90.1787 124.065 90.1677C123.699 90.1227 123.331 90.0996 122.962 90.0984C122.822 90.0984 122.607 90.0984 122.328 90.0984C122.049 90.0984 121.782 90.0984 121.567 90.0984L120.875 90.1677H120.241C119.937 90.1677 119.607 90.2118 119.195 90.2622L118.383 90.3504L117.749 90.4197H117.59C117.463 90.4265 117.339 90.4683 117.234 90.5406C117.129 90.6129 117.046 90.7129 116.994 90.8292L116.709 91.2136C116.607 91.3366 116.526 91.4748 116.468 91.6231C116.252 92.02 116.1 92.3224 116.005 92.5366L115.662 93.2422L115.352 93.8722C115.237 94.099 115.111 94.3699 114.971 94.6723C114.745 95.1633 114.546 95.6659 114.375 96.1781C114.299 96.4364 114.191 96.7388 114.058 97.0853C113.925 97.4318 113.804 97.772 113.62 98.3453L113.436 98.9753C113.341 99.2462 113.221 99.6557 113.069 100.204C112.793 101.266 112.608 102.349 112.517 103.442C112.517 103.688 112.517 103.902 112.517 104.072C112.517 104.242 112.517 104.419 112.517 104.538V105.086C112.506 105.2 112.519 105.315 112.555 105.423C112.591 105.531 112.65 105.631 112.726 105.716C112.783 105.779 112.783 105.83 112.726 105.874C112.669 105.918 112.644 105.987 112.542 105.987C112.464 105.983 112.389 105.957 112.325 105.914C112.26 105.871 112.208 105.811 112.174 105.742C112.11 105.621 112.071 105.488 112.06 105.351C112.007 104.988 111.975 104.622 111.965 104.255C111.979 103.352 112.072 102.452 112.244 101.565C112.365 100.935 112.504 100.355 112.656 99.8132C112.821 99.1832 113.138 98.1752 113.595 96.8711L114.033 95.8001C114.104 95.5851 114.189 95.3747 114.286 95.17L114.445 94.7101C114.498 94.538 114.569 94.3714 114.654 94.2124L114.838 93.8029C114.733 93.8289 114.642 93.8944 114.584 93.9856C114.197 94.3686 113.772 94.7126 113.316 95.0125C112.989 95.2041 112.653 95.3786 112.308 95.5354C112.081 95.6229 111.84 95.6678 111.597 95.6678C111.465 95.6634 111.334 95.6487 111.204 95.6237C111.128 95.6163 111.052 95.6163 110.976 95.6237C110.951 95.6204 110.925 95.6247 110.903 95.6359C110.88 95.6471 110.861 95.6648 110.849 95.6867C110.814 95.7752 110.795 95.8689 110.792 95.9639C110.754 96.508 110.641 97.0443 110.456 97.5578C110.317 98.025 110.13 98.4768 109.898 98.906C109.836 99.0189 109.744 99.1128 109.632 99.1772C109.52 99.2417 109.393 99.2743 109.263 99.2714C109.106 99.271 108.955 99.2127 108.839 99.1076C108.711 99.0043 108.626 98.8589 108.598 98.6981C108.538 98.4751 108.538 98.2407 108.598 98.0177C108.708 97.4989 108.888 96.9969 109.13 96.5246C109.388 95.9277 109.678 95.3452 109.999 94.7794C110.039 94.6864 110.095 94.6011 110.164 94.5274C110.189 94.498 110.22 94.4743 110.255 94.4579C110.29 94.4416 110.328 94.4331 110.367 94.4329C110.411 94.4294 110.455 94.4375 110.495 94.4563C110.536 94.4751 110.57 94.5039 110.595 94.54C110.616 94.5799 110.627 94.6242 110.627 94.6692C110.627 94.7142 110.616 94.7585 110.595 94.7983L110.551 94.981C110.55 95.0054 110.557 95.0293 110.571 95.0496C110.585 95.0698 110.604 95.0855 110.627 95.0944L110.735 95.1637C110.916 95.2363 111.11 95.2748 111.306 95.2771C111.918 95.2365 112.505 95.0174 112.992 94.6471C113.646 94.2023 114.237 93.6726 114.749 93.0721C114.977 92.8138 115.295 92.4106 115.688 91.8625C115.823 91.6972 115.94 91.5176 116.037 91.327C116.144 91.119 116.22 90.9742 116.265 90.8796C116.275 90.8511 116.275 90.82 116.265 90.7914C116.265 90.7284 116.208 90.6969 116.1 90.6969C116.039 90.689 115.977 90.689 115.916 90.6969C114.688 90.9043 113.476 91.1947 112.289 91.5664C112.185 91.595 112.079 91.6161 111.971 91.6294H111.997C111.953 91.6309 111.909 91.6227 111.868 91.6052C111.827 91.5878 111.791 91.5616 111.762 91.5286C111.704 91.4622 111.672 91.3771 111.673 91.2892C111.673 91.2451 111.673 91.201 111.718 91.1506H111.788C112.002 91.1123 112.213 91.0619 112.422 90.9994L112.885 90.8733C113.23 90.7634 113.582 90.6729 113.937 90.6024L116.303 90.1488C116.355 90.1388 116.409 90.1388 116.461 90.1488C116.554 90.1309 116.641 90.0927 116.717 90.0372C116.792 89.9816 116.855 89.91 116.899 89.8275L118.072 87.9375C118.164 87.7832 118.27 87.6377 118.389 87.5028C118.426 87.466 118.469 87.4369 118.517 87.4174C118.565 87.3979 118.617 87.3884 118.668 87.3894C118.733 87.3859 118.797 87.4012 118.852 87.4335C119.005 87.5406 119.043 87.6603 118.966 87.7989C118.814 88.0887 118.668 88.347 118.529 88.5738C118.389 88.8006 118.167 89.1471 117.863 89.6007C117.834 89.6748 117.796 89.7447 117.749 89.8086C117.752 89.8232 117.752 89.8381 117.749 89.8527C117.745 89.8594 117.743 89.867 117.743 89.8748C117.743 89.8825 117.745 89.8901 117.749 89.8968C117.749 89.9283 117.781 89.9409 117.838 89.9409C118.573 89.8401 119.404 89.7582 120.317 89.7141L120.685 89.67C120.825 89.67 120.996 89.67 121.192 89.67H121.928C122.372 89.67 123.038 89.67 123.926 89.7204C124.152 89.7388 124.376 89.7832 124.592 89.8527C124.749 89.9123 124.89 90.0072 125.004 90.1299C125.026 90.18 125.041 90.2331 125.048 90.2874ZM110.24 96.3482C110.27 96.1607 110.285 95.971 110.284 95.7812C110.292 95.7205 110.292 95.6591 110.284 95.5985C110.284 95.5669 110.284 95.5543 110.234 95.5543C110.183 95.5543 110.189 95.5543 110.189 95.5543C110.167 95.5719 110.152 95.5963 110.145 95.6237L109.847 96.2537C109.587 96.7577 109.397 97.1483 109.282 97.4381C109.162 97.7599 109.09 98.0973 109.067 98.4398C109.056 98.5657 109.08 98.6922 109.137 98.8052C109.162 98.8357 109.198 98.8559 109.238 98.8619C109.256 98.8673 109.276 98.8672 109.294 98.8616C109.312 98.856 109.328 98.8451 109.34 98.8304L109.479 98.6477C109.568 98.4335 109.707 98.087 109.891 97.6082C110.008 97.331 110.108 97.047 110.189 96.7577C110.189 96.6884 110.208 96.5498 110.24 96.3482Z" fill="white"/>
<path d="M115.199 99.3155C115.149 99.2727 115.11 99.2187 115.085 99.158C115.073 99.1126 115.073 99.0649 115.085 99.0194C115.096 98.9431 115.111 98.8674 115.13 98.7926C115.183 98.4417 115.292 98.1014 115.453 97.7846C115.745 97.1168 115.986 96.6002 116.176 96.2348C116.366 95.8694 116.652 95.3716 117.039 94.729C117.083 94.6093 117.165 94.5904 117.292 94.666C117.419 94.7416 117.482 94.855 117.406 95.0503C116.728 96.2663 116.373 96.9404 116.328 97.0601L116.278 97.2176L116.487 96.8963C116.797 96.4047 117.163 95.9502 117.578 95.5417C117.895 95.1908 118.281 94.9078 118.713 94.7101C118.805 94.6632 118.907 94.6394 119.011 94.6408C119.176 94.644 119.336 94.6991 119.467 94.7983L119.607 94.9369C119.639 95.0125 119.639 95.0692 119.607 95.0944C119.575 95.1196 119.506 95.1322 119.448 95.0944L119.379 95.0125C119.365 94.9951 119.348 94.9809 119.328 94.9711C119.308 94.9613 119.287 94.9561 119.265 94.9558C119.19 94.9492 119.115 94.9581 119.044 94.982C118.973 95.0058 118.908 95.0441 118.852 95.0944C118.662 95.2129 118.478 95.3412 118.301 95.4787C118.085 95.6803 117.895 95.8568 117.736 96.0143C117.558 96.1981 117.393 96.3938 117.241 96.6002C116.924 97.0664 116.607 97.5326 116.373 97.9862C116.309 98.1122 116.201 98.2949 116.049 98.5343L115.637 99.2399C115.574 99.3785 115.491 99.4416 115.383 99.4227C115.346 99.421 115.31 99.4104 115.278 99.3917C115.246 99.3731 115.219 99.3469 115.199 99.3155Z" fill="white"/>
<path d="M120.476 98.8115C120.258 98.8094 120.042 98.7644 119.842 98.6792C119.582 98.5617 119.35 98.3898 119.163 98.1752C119.005 97.9812 118.919 97.7383 118.922 97.4885C118.935 97.1703 119.038 96.8621 119.22 96.6002C119.582 96.0769 120.062 95.6453 120.622 95.3401C120.775 95.2499 120.951 95.202 121.129 95.2015C121.361 95.2044 121.585 95.2867 121.763 95.4346C121.862 95.4984 121.936 95.5941 121.973 95.7056C122 95.7539 122.015 95.8078 122.017 95.8631C122.017 95.9081 122.007 95.9525 121.988 95.993C121.968 96.0335 121.939 96.0688 121.903 96.0962C121.603 96.3859 121.269 96.6377 120.907 96.8459C120.571 97.0298 120.199 97.1394 119.816 97.1672C119.76 97.1647 119.704 97.1747 119.653 97.1965C119.601 97.2183 119.555 97.2513 119.518 97.2932C119.458 97.4165 119.434 97.5539 119.449 97.6901C119.443 97.7907 119.461 97.8913 119.5 97.9841C119.54 98.0769 119.6 98.1595 119.677 98.2256C119.858 98.3648 120.083 98.4342 120.311 98.4209C120.916 98.3906 121.503 98.2014 122.011 97.8728C122.638 97.5085 123.204 97.047 123.685 96.5057C123.761 96.4507 123.847 96.4121 123.939 96.3923C124.032 96.3923 124.044 96.4742 123.977 96.638C123.892 96.8301 123.779 97.0085 123.641 97.1672C123.326 97.5283 122.968 97.8499 122.575 98.1248C122.171 98.3864 121.725 98.5781 121.256 98.6918C121.003 98.7666 120.74 98.8069 120.476 98.8115ZM120.685 96.3482L121.009 96.1214L121.421 95.8253L121.465 95.7371C121.465 95.6741 121.421 95.6426 121.326 95.6426C121.22 95.651 121.118 95.6833 121.028 95.7371C120.601 95.9798 120.221 96.2954 119.905 96.6695C120.184 96.6131 120.448 96.504 120.685 96.3482Z" fill="white"/>
<path d="M129.037 99.4542C128.897 99.4521 128.758 99.4288 128.625 99.3849C128.54 99.3686 128.464 99.323 128.409 99.2561C128.355 99.1893 128.325 99.1055 128.327 99.0194C128.316 98.9591 128.316 98.8971 128.327 98.8368C128.37 98.6697 128.443 98.5117 128.543 98.3705L128.739 98.087C129.364 97.0568 130.211 96.1768 131.219 95.5103C131.339 95.4284 131.403 95.3464 131.403 95.2582C131.403 95.17 131.327 95.0567 131.175 94.9811C131.053 94.9208 130.914 94.9052 130.781 94.937C130.32 95.0013 129.876 95.1554 129.475 95.3906C128.984 95.6801 128.529 96.0247 128.118 96.4175C127.663 96.8679 127.24 97.3478 126.849 97.8539C126.708 98.0512 126.587 98.2623 126.488 98.4839C126.38 98.7044 126.31 98.8367 126.279 98.8871C126.26 98.9231 126.245 98.9612 126.234 99.0005C126.216 99.0471 126.193 99.0915 126.164 99.1329C126.069 99.2841 125.968 99.3407 125.841 99.2966C125.714 99.2525 125.568 99.0951 125.613 98.9312C125.67 98.6224 125.746 98.3173 125.841 98.0177C125.841 97.9421 125.904 97.7783 125.981 97.5263C126.051 97.2879 126.142 97.056 126.253 96.8333C126.32 96.7022 126.379 96.5676 126.431 96.4301C126.482 96.2915 126.526 96.1781 126.551 96.1025C127.014 95.0693 127.363 94.3006 127.61 93.7966C127.858 93.2926 128.099 92.8327 128.435 92.2153C128.771 91.5979 129.069 91.0812 129.31 90.6528C129.646 90.0921 130.065 89.4495 130.578 88.725C130.893 88.2286 131.258 87.7662 131.669 87.3453C131.735 87.2786 131.814 87.2262 131.902 87.1915C131.989 87.1568 132.083 87.1405 132.177 87.1437C132.275 87.1442 132.373 87.1645 132.463 87.2035C132.554 87.2425 132.635 87.2993 132.703 87.3705C132.748 87.4148 132.784 87.4679 132.808 87.5263C132.832 87.5848 132.844 87.6475 132.842 87.7107C132.835 87.7819 132.818 87.8519 132.792 87.9186C132.738 88.0897 132.67 88.2561 132.589 88.4163C132.494 88.599 132.437 88.7313 132.405 88.8069C131.79 90.1288 131.08 91.4047 130.28 92.6248C129.586 93.7479 128.799 94.812 127.928 95.8064C127.731 96.0017 127.541 96.2096 127.363 96.4364C127.186 96.6632 127.078 96.7829 127.033 96.8459C127.433 96.449 127.788 96.1151 128.111 95.8442C128.43 95.5717 128.777 95.333 129.145 95.1323C129.416 94.9841 129.696 94.8516 129.982 94.7353C130.226 94.6363 130.486 94.5849 130.75 94.5841C130.95 94.5812 131.148 94.6253 131.327 94.7129C131.507 94.8005 131.663 94.9291 131.783 95.0882C131.859 95.1827 131.936 95.1953 132.012 95.1323L132.38 95.044C132.477 95.017 132.577 95.0022 132.678 95C132.848 94.9954 133.016 95.0415 133.16 95.1323C133.227 95.1814 133.285 95.2435 133.328 95.3149C133.372 95.3863 133.401 95.4655 133.413 95.5481C133.445 95.6678 133.413 95.7371 133.324 95.7497H133.274C133.227 95.7497 133.183 95.7119 133.141 95.6363C133.099 95.5588 133.048 95.4868 132.988 95.4221C132.968 95.3967 132.942 95.3761 132.912 95.362C132.882 95.3478 132.85 95.3404 132.817 95.3402C132.73 95.3516 132.644 95.375 132.563 95.4095L132.475 95.4536C132.398 95.4539 132.322 95.4704 132.252 95.5018C132.182 95.5333 132.12 95.5791 132.069 95.6363C131.972 95.7792 131.914 95.9438 131.898 96.1151C131.81 96.7383 131.576 97.3321 131.213 97.8476L130.775 98.4776C130.634 98.6733 130.463 98.8455 130.268 98.9879C129.999 99.1971 129.697 99.3591 129.373 99.4668C129.261 99.4722 129.149 99.468 129.037 99.4542ZM128.834 93.784C129.486 92.86 130.12 91.8709 130.737 90.8166C131.354 89.7624 131.857 88.7754 132.246 87.8556C132.266 87.8207 132.279 87.7821 132.284 87.7422C132.283 87.7105 132.286 87.6789 132.291 87.6477C132.291 87.5847 132.291 87.5532 132.221 87.5532C132.171 87.5534 132.122 87.5663 132.079 87.5905C132.036 87.6148 132 87.6497 131.974 87.6918C131.807 87.8553 131.653 88.03 131.511 88.2147C131.162 88.6872 130.807 89.2101 130.458 89.7897L130.046 90.4197C129.906 90.6171 129.5 91.3543 128.828 92.6311L128.549 93.1288C128.46 93.2989 128.378 93.4501 128.295 93.5887C128.13 93.8785 127.966 94.1809 127.807 94.5022C127.655 94.7871 127.528 95.0842 127.427 95.3906C127.43 95.4156 127.43 95.4411 127.427 95.4662C127.415 95.4898 127.409 95.5156 127.409 95.5418C127.409 95.5679 127.415 95.5937 127.427 95.6174C127.94 95.0454 128.41 94.4369 128.834 93.7966V93.784ZM129.088 99.0762L129.247 99.0068C129.339 98.9495 129.434 98.8969 129.532 98.8493C129.657 98.7827 129.776 98.7047 129.887 98.6162C130.587 97.9576 131.095 97.1241 131.358 96.2033C131.377 96.1438 131.377 96.0801 131.358 96.0206C131.308 96.0206 131.251 96.0206 131.175 96.1088L130.712 96.5435C130.268 96.9845 129.925 97.3373 129.691 97.6019C129.455 97.8782 129.243 98.1732 129.056 98.4839L128.872 98.8493C128.865 98.8837 128.854 98.9174 128.841 98.9501C128.828 98.9688 128.822 98.9907 128.822 99.0132C128.822 99.0356 128.828 99.0575 128.841 99.0762C128.904 99.1329 128.98 99.1329 129.12 99.0888L129.088 99.0762Z" fill="white"/>
<path d="M134.39 98.8115C134.172 98.8086 133.956 98.7636 133.756 98.6792C133.496 98.5632 133.267 98.391 133.083 98.1752C132.922 97.9826 132.837 97.7388 132.842 97.4885C132.852 97.1697 132.955 96.8607 133.14 96.6002C133.499 96.077 133.977 95.6453 134.536 95.3401C134.689 95.2499 134.865 95.202 135.043 95.2015C135.275 95.2059 135.498 95.2881 135.677 95.4346C135.773 95.5008 135.844 95.5959 135.88 95.7056C135.909 95.7536 135.926 95.8074 135.931 95.8631C135.932 95.9088 135.921 95.954 135.9 95.9947C135.879 96.0353 135.848 96.0702 135.81 96.0962C135.511 96.3859 135.176 96.6377 134.815 96.8459C134.479 97.0307 134.107 97.1404 133.724 97.1672C133.668 97.1647 133.612 97.1747 133.56 97.1965C133.509 97.2183 133.463 97.2513 133.426 97.2932C133.369 97.4175 133.345 97.5541 133.356 97.6901C133.351 97.7907 133.368 97.8913 133.408 97.9841C133.447 98.0769 133.508 98.1595 133.584 98.2256C133.765 98.3643 133.99 98.4336 134.219 98.4209C134.824 98.3897 135.41 98.2006 135.918 97.8728C136.545 97.5065 137.109 97.0452 137.592 96.5057C137.668 96.4497 137.754 96.411 137.846 96.3923C137.935 96.3923 137.948 96.4742 137.878 96.638C137.796 96.83 137.684 97.0084 137.548 97.1672C137.23 97.527 136.87 97.8484 136.476 98.1248C136.073 98.3876 135.626 98.5794 135.157 98.6918C134.908 98.7665 134.65 98.8068 134.39 98.8115ZM134.593 96.3482C134.705 96.2793 134.813 96.2036 134.916 96.1214L135.328 95.8253L135.373 95.7371C135.373 95.6741 135.328 95.6426 135.24 95.6426C135.134 95.651 135.032 95.6833 134.942 95.7371C134.513 95.9797 134.131 96.2953 133.813 96.6695C134.091 96.6131 134.356 96.504 134.593 96.3482Z" fill="white"/>
<path d="M137.256 98.5658C137.137 98.5509 137.025 98.5028 136.933 98.4272C136.871 98.3775 136.821 98.3151 136.786 98.2444C136.751 98.1738 136.732 98.0964 136.73 98.0177C136.727 97.887 136.755 97.7575 136.812 97.6397C136.864 97.5286 136.923 97.4213 136.99 97.3184C137.038 97.2573 137.081 97.1919 137.117 97.1231C137.538 96.4829 138.068 95.9201 138.683 95.4599C138.847 95.3259 139.044 95.2388 139.254 95.2079C139.383 95.2283 139.507 95.2759 139.616 95.3477C139.726 95.4194 139.818 95.5135 139.888 95.6237C139.937 95.6193 139.985 95.6043 140.028 95.5796C140.083 95.5278 140.155 95.4966 140.231 95.4914C140.296 95.4959 140.36 95.5176 140.415 95.5544C140.477 95.5956 140.522 95.6584 140.541 95.7308C140.543 95.8034 140.533 95.8759 140.51 95.945L140.142 96.6254C140.07 96.7455 140.023 96.8781 140.002 97.016C139.995 97.0535 139.995 97.0919 140.002 97.1294C140.002 97.2491 140.091 97.3121 140.256 97.3121C140.564 97.3261 140.87 97.2588 141.144 97.1168C141.519 96.956 141.884 96.7708 142.235 96.5624C142.458 96.4348 142.67 96.2894 142.869 96.1277H142.958C143.053 96.1277 143.084 96.1844 143.053 96.2915C142.983 96.4643 142.864 96.6132 142.71 96.7199L142.133 97.0853C141.893 97.2414 141.641 97.3784 141.378 97.4948C141.071 97.649 140.733 97.735 140.389 97.7468C140.167 97.7457 139.954 97.66 139.793 97.5074C139.706 97.4367 139.634 97.3486 139.583 97.2488C139.531 97.149 139.501 97.0397 139.495 96.9278C139.495 96.9132 139.491 96.8989 139.483 96.8866C139.475 96.8743 139.464 96.8646 139.451 96.8585L138.69 97.5893C138.398 97.8476 138.106 98.0933 137.821 98.3201C137.737 98.388 137.643 98.4413 137.542 98.4776C137.454 98.5273 137.357 98.5574 137.256 98.5658ZM137.466 97.9925C137.833 97.6901 138.1 97.4507 138.265 97.2869L139.114 96.4868L139.508 96.0773C139.559 96.0157 139.594 95.942 139.609 95.8631C139.613 95.8313 139.61 95.7991 139.6 95.7686C139.59 95.7382 139.574 95.7102 139.552 95.6867C139.534 95.6671 139.513 95.6514 139.489 95.6406C139.465 95.6297 139.439 95.624 139.413 95.6237C139.375 95.6165 139.336 95.6165 139.298 95.6237L139.21 95.6678C139.117 95.7096 139.032 95.7647 138.956 95.8316C138.62 96.1025 138.372 96.3167 138.22 96.4616C138.077 96.609 137.947 96.7693 137.833 96.9404L137.51 97.4003C137.362 97.5959 137.26 97.822 137.212 98.0618C137.301 98.0632 137.389 98.0392 137.466 97.9925Z" fill="white"/>
<path d="M158.857 91.1757C158.842 91.4159 158.736 91.6415 158.559 91.8058L158.464 91.8499C158.387 91.8499 158.337 91.8058 158.305 91.7113C158.295 91.6592 158.295 91.6058 158.305 91.5538C158.318 91.5152 158.332 91.4773 158.349 91.4403C158.394 91.3017 158.425 91.2198 158.438 91.1883V91.1001C158.436 91.0592 158.422 91.0198 158.397 90.9872C158.372 90.9545 158.338 90.9302 158.299 90.9174L158.051 90.8481C157.691 90.7721 157.327 90.7174 156.961 90.6843C156.491 90.6402 156.111 90.6213 155.819 90.6213H155.318C154.766 90.6213 154.012 90.6654 153.048 90.7221C152.084 90.7788 151.481 90.8229 151.253 90.867C151.162 90.8796 151.071 90.8796 150.98 90.867C150.865 90.8716 150.753 90.9031 150.653 90.9589C150.553 91.0148 150.467 91.0934 150.403 91.1883C149.922 91.8501 149.486 92.5425 149.097 93.2611C148.465 94.3677 148.007 95.5639 147.739 96.8081C147.378 98.2062 147.186 99.6424 147.169 101.086C147.156 101.336 147.156 101.586 147.169 101.836C147.188 102.089 147.233 102.34 147.302 102.585C147.368 102.795 147.488 102.984 147.651 103.133L147.695 103.184C147.695 103.184 147.695 103.241 147.695 103.272C147.683 103.285 147.668 103.296 147.652 103.304C147.636 103.311 147.618 103.316 147.6 103.316C147.42 103.295 147.256 103.205 147.143 103.064C146.975 102.906 146.861 102.699 146.82 102.472C146.82 102.384 146.776 102.232 146.731 102.031C146.687 101.829 146.655 101.64 146.636 101.47C146.636 101.061 146.636 100.664 146.636 100.286C146.687 99.4163 146.763 98.6288 146.864 97.9232C146.972 97.2229 147.142 96.5335 147.372 95.8631V95.7686C147.372 95.7245 147.372 95.6992 147.327 95.6929C147.321 95.6899 147.313 95.6884 147.306 95.6884C147.299 95.6884 147.292 95.6899 147.285 95.6929C147.279 95.6959 147.273 95.7002 147.268 95.7057C147.263 95.7111 147.26 95.7175 147.258 95.7245L146.934 96.0457C146.839 96.1654 146.687 96.3482 146.477 96.5876L145.995 97.1357C145.918 97.2273 145.821 97.3 145.711 97.3481C145.601 97.3962 145.481 97.4183 145.361 97.4129C145.241 97.4162 145.121 97.3924 145.012 97.3433C144.902 97.2942 144.804 97.221 144.727 97.1294C144.562 96.943 144.472 96.7032 144.473 96.4553V96.2474C144.429 96.2159 144.378 96.2474 144.334 96.2915L143.706 97.4003C143.489 97.6993 143.29 98.0106 143.11 98.3327C143.024 98.4383 142.924 98.5315 142.812 98.6099C142.691 98.6758 142.557 98.7145 142.419 98.7233C142.347 98.724 142.276 98.7104 142.209 98.6833C142.143 98.6563 142.082 98.6163 142.032 98.5658C141.986 98.5207 141.95 98.4667 141.926 98.407C141.902 98.3474 141.89 98.2835 141.892 98.2193C141.921 97.9014 141.989 97.5882 142.095 97.2869L142.235 96.8963C142.279 96.764 142.362 96.5498 142.476 96.2663C142.546 96.0679 142.642 95.8794 142.761 95.7056C142.805 95.6623 142.864 95.6374 142.926 95.6362C142.982 95.6374 143.036 95.6526 143.085 95.6803C143.128 95.7095 143.161 95.7513 143.18 95.8001C143.192 95.8815 143.192 95.9643 143.18 96.0457C143.159 96.1275 143.127 96.2059 143.085 96.2789L142.901 96.7073C142.842 96.8981 142.772 97.0854 142.691 97.268C142.577 97.5573 142.5 97.8601 142.463 98.1689C142.495 98.2319 142.634 98.0807 142.875 97.7216L143.294 97.0916C143.459 96.8522 143.763 96.4322 144.207 95.8315L144.6 95.3275L144.81 95.1259C144.853 95.0808 144.909 95.05 144.97 95.0376C145.031 95.0252 145.095 95.0318 145.152 95.0566C145.21 95.0751 145.261 95.1111 145.297 95.1597C145.334 95.2083 145.354 95.267 145.355 95.3275C145.35 95.5021 145.324 95.6754 145.279 95.8442C145.222 96.0458 145.184 96.2033 145.152 96.3104C145.108 96.5372 145.082 96.6632 145.082 96.6758C145.089 96.7384 145.104 96.7999 145.127 96.8585C145.138 96.8943 145.158 96.9268 145.185 96.9533C145.212 96.9798 145.245 96.9995 145.281 97.0106C145.317 97.0217 145.355 97.024 145.392 97.0173C145.43 97.0105 145.465 96.995 145.494 96.9719C145.646 96.8735 145.779 96.7499 145.888 96.6065L146.801 95.5102C147.384 94.7983 147.841 94.1872 148.183 93.6895L148.596 92.8894C148.739 92.6146 148.868 92.3328 148.982 92.0452C149.046 91.9255 149.103 91.8058 149.154 91.6924L149.306 91.3836C149.321 91.3482 149.341 91.3144 149.363 91.2828C149.385 91.2513 149.405 91.2175 149.42 91.182C149.452 91.182 149.452 91.1253 149.42 91.1127L149.331 91.0686L148.982 91.1316L148.526 91.2387L148.145 91.4277L147.156 91.6797C147.04 91.7034 146.926 91.7328 146.814 91.768C146.681 91.8139 146.541 91.8311 146.401 91.8184H146.103C145.979 91.8208 145.856 91.7927 145.746 91.7367C145.635 91.6806 145.54 91.5983 145.469 91.497C145.327 91.2731 145.256 91.0118 145.266 90.7473C145.272 90.69 145.288 90.6343 145.316 90.5835C145.343 90.5326 145.38 90.4877 145.425 90.4512C145.513 90.3567 145.583 90.3441 145.634 90.4008C145.666 90.4493 145.682 90.5067 145.678 90.5646C145.679 90.6094 145.665 90.6533 145.64 90.6906L145.583 90.7914C145.583 90.7914 145.552 90.8544 145.539 90.8922C145.531 90.9423 145.531 90.9934 145.539 91.0434C145.532 91.1061 145.546 91.1692 145.58 91.2228C145.613 91.2764 145.663 91.3175 145.723 91.3395C145.889 91.4178 146.073 91.4483 146.255 91.4277L146.611 91.3521L146.966 91.2702C147.488 91.1217 148.017 90.9998 148.551 90.9048C149.008 90.8166 149.344 90.741 149.56 90.678C149.736 90.6226 149.894 90.5202 150.016 90.3819C150.124 90.2732 150.222 90.1551 150.308 90.0291C150.388 89.9006 150.484 89.7821 150.593 89.6763L150.961 89.2164C151.234 88.8825 151.449 88.6431 151.595 88.4856C151.684 88.3907 151.807 88.3342 151.938 88.3281C152.054 88.3356 152.166 88.3749 152.261 88.4415C152.369 88.5045 152.382 88.6053 152.306 88.7376C152.23 88.8699 152.103 89.0778 151.919 89.3676C151.735 89.6574 151.519 89.922 151.285 90.2244L151.196 90.3378C151.196 90.3378 151.196 90.3378 151.196 90.3693C151.196 90.4008 151.196 90.3693 151.227 90.3693C151.259 90.3693 151.285 90.3693 151.342 90.3693C152.806 90.2166 154.277 90.1471 155.749 90.1614C156.156 90.158 156.562 90.1748 156.967 90.2118C157.455 90.2685 157.829 90.3315 158.089 90.3882C158.217 90.3963 158.342 90.4284 158.457 90.4827C158.555 90.52 158.643 90.581 158.711 90.6602C158.78 90.7394 158.828 90.8343 158.85 90.9363C158.861 91.0157 158.863 91.0959 158.857 91.1757Z" fill="white"/>
<path d="M150.549 98.8115C150.331 98.8086 150.115 98.7636 149.915 98.6792C149.656 98.5618 149.427 98.3898 149.242 98.1752C149.082 97.9826 148.996 97.7388 149.001 97.4885C149.011 97.1697 149.114 96.8607 149.3 96.6002C149.658 96.077 150.136 95.6453 150.695 95.3401C150.869 95.2355 151.072 95.1883 151.275 95.2053C151.477 95.2223 151.67 95.3025 151.824 95.4346C151.919 95.5008 151.99 95.5959 152.027 95.7056C152.055 95.7536 152.072 95.8074 152.077 95.8631C152.078 95.9081 152.068 95.9525 152.048 95.993C152.028 96.0335 151.999 96.0688 151.963 96.0962C151.66 96.3845 151.324 96.6362 150.961 96.8459C150.625 97.0307 150.253 97.1404 149.87 97.1672C149.814 97.1647 149.758 97.1747 149.707 97.1965C149.655 97.2183 149.609 97.2513 149.572 97.2932C149.516 97.4175 149.492 97.5541 149.502 97.6901C149.497 97.7907 149.515 97.8913 149.554 97.9841C149.594 98.0769 149.654 98.1595 149.731 98.2256C149.912 98.3633 150.137 98.4325 150.365 98.4209C150.97 98.3897 151.556 98.2006 152.065 97.8728C152.692 97.5085 153.258 97.047 153.739 96.5057C153.814 96.4497 153.901 96.411 153.992 96.3923C154.081 96.3923 154.094 96.4742 153.992 96.638C153.91 96.83 153.799 97.0084 153.663 97.1672C153.344 97.527 152.985 97.8484 152.591 98.1248C152.187 98.3876 151.741 98.5794 151.272 98.6918C151.037 98.7626 150.794 98.8029 150.549 98.8115ZM150.752 96.3482C150.864 96.2793 150.972 96.2036 151.075 96.1214L151.487 95.8253L151.532 95.7371C151.532 95.6741 151.487 95.6426 151.399 95.6426C151.293 95.651 151.191 95.6833 151.101 95.7371C150.673 95.9814 150.292 96.2968 149.972 96.6695C150.25 96.6131 150.515 96.504 150.752 96.3482ZM151.925 92.7256C152.022 92.737 152.111 92.7815 152.179 92.8516C152.216 92.8804 152.247 92.9165 152.27 92.9577C152.293 92.9988 152.307 93.0442 152.312 93.091C152.312 93.1709 152.29 93.2493 152.248 93.3178C152.026 93.6742 151.771 94.0095 151.487 94.3195C151.457 94.3585 151.419 94.3908 151.375 94.4147C151.331 94.4385 151.283 94.4533 151.234 94.4581C151.191 94.4621 151.149 94.4562 151.109 94.4409C151.069 94.4256 151.034 94.4013 151.005 94.3699C150.98 94.3412 150.966 94.3042 150.966 94.266C150.966 94.2277 150.98 94.1908 151.005 94.162L151.234 93.7714C151.278 93.7147 151.367 93.5824 151.5 93.3871C151.618 93.208 151.714 93.0155 151.786 92.8138C151.791 92.7927 151.803 92.7735 151.818 92.758C151.834 92.7425 151.853 92.7314 151.874 92.7256H151.925Z" fill="white"/>
</g>
<defs>
<clipPath id="clip0_88_2514">
<rect width="224" height="106" fill="white"/>
</clipPath>
</defs>
</svg>
