<svg width="499" height="238" viewBox="0 0 499 238" fill="none" xmlns="http://www.w3.org/2000/svg">
<g clip-path="url(#clip0_79_1976)">
<path d="M316.119 134.341C297.894 141.951 279.387 141.159 261.445 132.926C255.978 130.408 253.562 125.005 254.904 118.936C255.582 116.275 257.101 113.904 259.234 112.178C261.368 110.452 264.002 109.464 266.743 109.36C272.874 109.232 277.579 112.613 279.02 118.399C280.616 124.693 278.101 132.544 268.763 134.935C272.253 135.741 275.714 136.774 279.231 137.283C287.052 138.646 295.097 137.829 302.485 134.921C314.183 130.097 321.487 121.256 325.499 109.459C328.569 100.352 330.292 90.8443 330.613 81.2381C330.882 74.0097 330.924 66.753 330.613 59.5246C330.275 48.0877 327.672 36.8319 322.956 26.4097C317.108 13.905 307.727 5.37518 294.023 2.36216C285.688 0.551521 277.494 1.8812 269.088 4.85178C269.865 5.1064 270.246 5.24786 270.642 5.36102C273.495 6.13221 275.991 7.87438 277.7 10.2881C279.409 12.7018 280.226 15.6362 280.009 18.5872C279.774 21.5684 278.489 24.369 276.382 26.4887C274.276 28.6084 271.485 29.9091 268.509 30.1583C265.557 30.3851 262.623 29.543 260.24 27.7852C257.857 26.0275 256.184 23.4711 255.525 20.5817C254.254 14.5274 256.161 8.4872 263.055 5.64393C307.628 -12.7454 349.333 15.8146 357.315 54.6868C364.887 91.819 344.812 122.345 316.119 134.341Z" fill="white"/>
<path d="M241.172 122.557C241.141 124.837 240.44 127.056 239.156 128.938C237.872 130.82 236.062 132.281 233.953 133.138C220.422 139.464 205.178 141.12 190.607 137.846C176.036 134.573 162.96 126.554 153.425 115.046C141.643 101.042 136.472 84.9301 137.037 66.7247C137.857 38.2072 157.339 11.8114 184.534 3.25332C200.487 -1.84696 217.751 -0.931304 233.077 5.82784C239.9 8.65696 241.313 14.3152 240.437 20.1856C239.646 25.6034 234.504 29.8471 228.966 30.2007C226.183 30.3541 223.43 29.5693 221.146 27.9718C218.862 26.3743 217.178 24.0562 216.364 21.388C215.868 19.7629 215.703 18.0549 215.877 16.3647C216.051 14.6744 216.561 13.0362 217.377 11.5465C218.194 10.0568 219.299 8.74585 220.63 7.69082C221.96 6.63578 223.488 5.85804 225.123 5.40346L226.352 5.06398V4.3567C221.916 3.49382 217.494 2.24899 213.016 1.83876C192.319 -0.0143137 177.88 13.5938 171.862 28.5033C167.94 38.4881 165.641 49.0377 165.052 59.7509C164.395 69.8129 164.679 79.9145 165.9 89.9235C167.016 99.2313 169.036 108.313 173.444 116.715C180.028 129.178 190.482 136.01 204.525 137.495C211.598 138.264 218.754 137.452 225.476 135.119L226.578 134.709C226.73 134.62 226.872 134.516 227.002 134.397C215.7 132.261 213.948 119.841 219.076 113.66C220.754 111.649 223.026 110.223 225.565 109.588C228.104 108.952 230.778 109.14 233.204 110.123C235.658 111.109 237.745 112.836 239.173 115.065C240.601 117.294 241.3 119.913 241.172 122.557Z" fill="white"/>
<path d="M127.134 97.3077C126.851 109.445 122.175 119.474 111.424 125.599C90.0915 137.792 64.125 125.599 59.1521 103.277C58.7395 101.481 58.5216 99.6457 58.5023 97.8028C58.5023 71.6523 58.5023 45.4923 58.5023 19.3229C58.5023 18.8136 58.5023 18.3044 58.5729 17.6962H76.3878V20.3131C76.3878 45.4074 76.3878 70.5112 76.3878 95.6243C76.2265 101.806 76.8387 107.984 78.2102 114.014C80.4283 122.756 85.938 128.301 93.7506 128.966C99.6986 129.455 105.645 128.006 110.704 124.835C115.26 122.27 119.072 118.562 121.764 114.075C124.457 109.589 125.937 104.478 126.06 99.2456C126.428 92.484 126.23 85.68 126.244 78.8901C126.244 59.256 126.244 39.6218 126.244 19.9877C126.244 19.1814 126.329 18.361 126.371 17.5547H127.007C127.108 18.2346 127.174 18.9192 127.205 19.6058C127.205 37.4576 127.205 55.3141 127.205 73.1753C127.191 81.2241 127.318 89.2871 127.134 97.3077Z" fill="white"/>
<path d="M448.324 16.4512L403.809 125.754L404.656 126.136C404.995 125.443 405.363 124.722 405.645 124.043C412.784 106.53 419.904 89.0088 427.006 71.4776C427.159 70.9234 427.509 70.4444 427.991 70.1316C428.472 69.8187 429.052 69.6937 429.62 69.7802C436.132 69.7802 442.645 69.865 449.172 69.7802C449.799 69.6821 450.44 69.8263 450.964 70.1835C451.489 70.5407 451.858 71.0842 451.998 71.704C458.779 89.2162 465.673 106.7 472.468 124.198C472.607 124.787 472.961 125.303 473.461 125.643C473.96 125.984 474.569 126.124 475.167 126.037C480.564 125.938 485.96 126.037 491.357 126.037C491.908 126.037 492.445 125.952 493.179 125.896L448.324 16.4512ZM428.193 68.889C431.965 59.567 435.709 50.2733 439.678 40.4704C443.493 50.2451 447.109 59.468 450.783 68.889H428.193Z" fill="white"/>
<path d="M49.0085 124.906C49.0085 125.217 49.0085 125.543 49.0085 125.854H0.565109V17.7812H18.2528V124.906H49.0085Z" fill="white"/>
<path d="M386.756 17.7812H369.111V125.854H386.756V17.7812Z" fill="white"/>
<path d="M257.588 86.2035L256.472 87.1937C256.684 86.6561 256.91 86.1327 257.122 85.5952L257.588 86.2035Z" fill="white"/>
<path d="M263.522 100.491C246.244 109.501 223.286 104.055 214.174 83.629C208.41 70.6857 209.597 58.1669 218.342 46.624C219.091 45.5058 220.05 44.5448 221.167 43.7949C221.591 43.6488 222.043 43.6009 222.488 43.6548C222.934 43.7087 223.361 43.863 223.738 44.1061C224.572 44.6437 224.473 45.5207 223.738 46.4684C219.995 51.3487 219.966 55.5924 223.371 60.8263C223.805 61.5682 223.956 62.4428 223.795 63.2876C223.085 66.2601 223.534 69.392 225.052 72.0437C225.589 72.6732 226.295 73.1347 227.087 73.3734C229.234 74.3212 229.827 75.467 229.206 77.0796C229.644 77.8151 230.152 78.3244 230.223 78.8761C230.302 79.6665 230.2 80.4646 229.926 81.2101C229.262 83.0631 228.782 84.605 231.735 84.7182C232.144 84.7182 232.992 86.5005 232.794 87.2503C232.173 89.6409 233.67 89.6692 235.21 89.8672C235.083 87.42 236.707 88.4526 237.894 88.4526C237.221 89.4451 236.612 90.4798 236.072 91.5505C235.719 92.3568 235.987 92.9651 237.117 92.7388C238.53 92.3851 239.406 92.7388 239.646 94.3797C239.652 94.7676 239.75 95.1486 239.931 95.4916C240.112 95.8346 240.372 96.1298 240.688 96.3533C241.005 96.5767 241.37 96.7219 241.754 96.7772C242.137 96.8325 242.529 96.7962 242.895 96.6712C244.849 96.2023 246.699 95.3724 248.349 94.2241C251.174 92.0456 253.802 89.5843 256.472 87.1512C256.006 88.2829 255.54 89.4287 255.059 90.6452C258.718 93.099 261.643 96.5019 263.522 100.491Z" fill="white"/>
<path d="M282.467 71.1098C281.93 70.3601 281.563 69.865 281.209 69.3416C276.674 62.4527 270.176 59.8075 262.194 60.8543C257.475 61.5191 252.841 62.9337 248.066 63.5278C242.641 64.2209 237.131 64.4897 232.286 61.0523C229.902 59.4958 228.033 57.2656 226.917 54.6443C226.215 52.8562 226.134 50.8834 226.687 49.0436C227.241 47.2038 228.397 45.6041 229.969 44.5019C230.682 43.9979 231.495 43.6515 232.352 43.4858C233.21 43.3201 234.093 43.3388 234.942 43.5408C235.792 43.7428 236.589 44.1234 237.281 44.6574C237.972 45.1914 238.543 45.8665 238.954 46.6379C239.419 47.3522 239.611 48.2108 239.494 49.0556C239.378 49.9004 238.96 50.6745 238.318 51.2353C238.254 51.0533 238.221 50.8622 238.219 50.6694C238.473 48.6042 238.064 46.7794 236.015 45.8741C235.193 45.5464 234.294 45.4643 233.427 45.6375C232.559 45.8107 231.761 46.2319 231.127 46.8501C230.316 47.4818 229.712 48.3418 229.392 49.3197C229.072 50.2976 229.052 51.3489 229.333 52.3386C229.683 53.8547 230.392 55.2642 231.4 56.4484C232.408 57.6325 233.686 58.5566 235.125 59.1427C239.75 61.3402 245.042 61.6695 249.903 60.0621C255.087 58.3505 260.258 56.7238 265.853 57.134C272.139 57.6008 277.635 59.5246 281.563 64.8433C282.18 65.7498 282.583 66.7857 282.739 67.8717C282.896 68.9578 282.803 70.0654 282.467 71.1098Z" fill="white"/>
<path d="M276.039 89.5983C275.389 90.2348 274.866 91.0129 274.075 91.9606C269.936 82.2001 262.773 75.7073 253.774 70.7422C258.729 71.1063 263.397 73.2103 266.955 76.6833C270.232 79.6822 273.072 83.1762 276.152 86.4014C276.411 86.5842 276.621 86.8289 276.762 87.1134C276.903 87.3979 276.971 87.7131 276.96 88.0305C276.949 88.3479 276.859 88.6575 276.698 88.9313C276.537 89.205 276.31 89.4343 276.039 89.5983Z" fill="white"/>
<path d="M277.07 49.4388C265.768 47.4301 254.89 46.0014 244.139 50.2309C246.131 48.3354 251.089 46.1994 255.441 45.3224C260.937 44.3023 266.561 44.1781 272.097 44.9546C274.753 45.2658 275.361 47.5998 277.07 49.4388Z" fill="white"/>
<path d="M280.913 79.0455C275.422 73.5181 268.522 69.604 260.965 67.729C268.149 67.9824 275.024 70.7219 280.418 75.4808C280.717 75.6558 280.972 75.8963 281.164 76.1843C281.356 76.4722 281.481 76.8 281.529 77.1431C281.576 77.4862 281.546 77.8356 281.439 78.1651C281.332 78.4947 281.152 78.7956 280.913 79.0455Z" fill="white"/>
<path d="M253.548 33.8928C249.126 36.0571 245.297 38.7165 242.825 42.946L242.429 42.6065C243.842 40.2583 245.029 37.797 246.583 35.5337C248.589 32.5348 249.493 32.4217 253.548 33.8928Z" fill="white"/>
<path d="M233.006 35.8452L225.617 45.8886C225.278 39.9333 226.889 37.6983 233.006 35.8452Z" fill="white"/>
<path d="M237.781 70.6431C237.64 74.0804 235.789 75.7072 232.13 75.5374L233.755 74.1229L231.523 72.8498L231.876 72.581C232.935 72.8622 234.035 72.9532 235.125 72.8498C236.029 72.5103 236.778 71.4777 237.781 70.6431Z" fill="white"/>
<path d="M235.055 67.1919C232.826 68.0568 230.982 69.6929 229.856 71.8033C229.587 72.2418 228.711 72.3267 228.132 72.5813C228.132 71.9306 228.005 71.096 228.344 70.6434C229.07 69.537 230.069 68.6375 231.245 68.0327C232.421 67.4279 233.734 67.1382 235.055 67.1919Z" fill="white"/>
<path d="M0 151.74H10.412V152.943H1.34212V158.601H8.82973V159.775H1.34212V166.551H11.1184V167.711H0V151.74Z" fill="white"/>
<path d="M35.6863 164.712C36.1684 165.365 36.8143 165.879 37.5585 166.202C38.3027 166.525 39.1189 166.645 39.9245 166.551C41.9024 166.551 43.9509 165.136 43.9509 163.41C43.9509 158.445 34.556 161.868 34.556 155.984C34.556 153.381 37.2544 151.74 39.9245 151.74C40.8811 151.692 41.8333 151.898 42.6844 152.338C43.5355 152.778 44.2552 153.436 44.7703 154.244L43.5694 154.697C43.171 154.107 42.6242 153.633 41.9842 153.322C41.3442 153.012 40.6337 152.876 39.9245 152.928C37.9749 152.928 35.9123 154.117 35.9123 156.041C35.9123 160.652 45.406 157.2 45.406 163.467C45.406 166.084 42.5805 167.711 39.9245 167.711C38.9192 167.8 37.9077 167.632 36.9856 167.221C36.0635 166.81 35.2613 166.17 34.6549 165.362L35.6863 164.712Z" fill="white"/>
<path d="M79.9621 151.74V152.943H75.0315V167.654H73.7035V152.943H68.66V151.769L79.9621 151.74Z" fill="white"/>
<path d="M105.731 151.74V158.601H115.281V149.689H116.694V171.332H115.281V159.775H105.688V167.597H104.276V151.74H105.731Z" fill="white"/>
<path d="M140.894 151.74H151.32V152.943H142.251V158.601H149.738V159.775H142.251V166.551H152.013V167.711H140.88L140.894 151.74Z" fill="white"/>
<path d="M187.332 151.74V152.943H182.401V167.654H181.073V152.943H176.1V151.769L187.332 151.74Z" fill="white"/>
<path d="M211.871 151.74H213.213V167.668H211.871V151.74Z" fill="white"/>
<path d="M237.456 151.726H238.869V160.709L247.911 151.74H249.648L243.319 158.106L252.799 171.063H251.174L242.359 158.997L238.869 162.392V167.654H237.456V151.726Z" fill="white"/>
<path d="M309.874 151.641C312.24 151.657 314.513 152.561 316.246 154.173L315.271 154.965C314.56 154.264 313.717 153.713 312.79 153.344C311.863 152.975 310.872 152.795 309.874 152.815C308.917 152.718 307.95 152.822 307.035 153.122C306.121 153.422 305.28 153.911 304.566 154.557C303.852 155.203 303.281 155.992 302.89 156.872C302.5 157.753 302.298 158.705 302.298 159.669C302.298 160.632 302.5 161.585 302.89 162.465C303.281 163.346 303.852 164.135 304.566 164.781C305.28 165.426 306.121 165.915 307.035 166.215C307.95 166.515 308.917 166.62 309.874 166.522C311.94 166.465 313.919 165.672 315.455 164.287L316.401 165.108C314.642 166.781 312.301 167.705 309.874 167.682C305.028 167.682 301.002 164.132 301.002 159.69C301.002 155.248 305.014 151.641 309.874 151.641Z" fill="white"/>
<path d="M340.658 151.74H351.084V152.943H342V158.601H349.502V159.775H342V166.551H351.791V167.711H340.658V151.74Z" fill="white"/>
<path d="M375.695 151.74H376.938L386.629 165.108V147.397H387.943V167.654H386.912L377.023 154.032V167.654H375.68L375.695 151.74Z" fill="white"/>
<path d="M423.644 151.74V152.943H418.713V167.654H417.371V152.943H412.412V151.769L423.644 151.74Z" fill="white"/>
<path d="M448.141 151.74H458.581V152.943H449.511V158.601H456.999V159.775H449.511V166.551H459.287V167.711H448.169L448.141 151.74Z" fill="white"/>
<path d="M484.519 167.654H483.106V151.74H490.17C491.537 151.667 492.878 152.139 493.897 153.054C494.917 153.969 495.533 155.251 495.609 156.62C495.582 157.622 495.248 158.591 494.651 159.396C494.055 160.201 493.225 160.802 492.275 161.118C491.497 161.379 490.68 161.509 489.859 161.5L498.943 170.313H497.107L486.935 160.411H490.17C490.685 160.456 491.204 160.393 491.694 160.227C492.184 160.06 492.633 159.794 493.015 159.444C493.396 159.094 493.7 158.669 493.908 158.195C494.117 157.721 494.224 157.209 494.224 156.691C494.224 156.173 494.117 155.661 493.908 155.187C493.7 154.713 493.396 154.288 493.015 153.938C492.633 153.588 492.184 153.321 491.694 153.155C491.204 152.988 490.685 152.925 490.17 152.97H484.519V167.654Z" fill="white"/>
<path d="M144.158 228.395C144.096 228.236 144.096 228.059 144.158 227.9C144.563 226.816 144.987 225.811 145.429 224.887L146.348 222.893C146.395 222.773 146.433 222.65 146.461 222.525C146.461 222.397 146.333 222.256 146.093 222.115C145.841 221.993 145.603 221.841 145.387 221.662C145.314 221.584 145.227 221.522 145.13 221.478C145.033 221.434 144.928 221.41 144.822 221.407L144.412 221.506C144.281 221.558 144.143 221.591 144.002 221.605C143.843 221.596 143.686 221.562 143.536 221.506L143.183 221.351C143.155 221.286 143.132 221.22 143.112 221.153C143.106 221.138 143.102 221.122 143.102 221.106C143.102 221.09 143.105 221.073 143.112 221.059C143.119 221.044 143.129 221.031 143.141 221.02C143.153 221.01 143.167 221.002 143.183 220.997C143.409 220.864 143.651 220.759 143.903 220.686C144.069 220.636 144.217 220.543 144.334 220.416C144.451 220.289 144.532 220.133 144.567 219.964C144.575 219.914 144.593 219.865 144.619 219.821C144.646 219.778 144.681 219.74 144.723 219.71C144.723 219.71 144.864 219.71 144.977 219.823C145.098 219.95 145.255 220.037 145.427 220.072C145.598 220.108 145.777 220.09 145.938 220.021L147.223 219.667C147.424 219.613 147.611 219.516 147.769 219.381C147.928 219.247 148.055 219.079 148.142 218.889L149.554 216.287C150.162 215.127 150.614 214.25 150.882 213.67C151.091 213.243 151.322 212.827 151.575 212.425L152.112 211.52L152.309 211.166C152.309 210.954 152.309 210.855 152.112 210.855C151.924 210.833 151.734 210.833 151.546 210.855C151.192 210.921 150.833 210.964 150.473 210.982L149.343 211.053C148.325 211.173 147.301 211.225 146.277 211.208H144.751C144.148 211.191 143.547 211.12 142.957 210.996C142.611 210.948 142.279 210.827 141.982 210.642C141.821 210.56 141.685 210.437 141.586 210.286C141.487 210.134 141.429 209.96 141.417 209.78C141.442 209.603 141.479 209.428 141.53 209.256C141.801 208.57 142.178 207.93 142.646 207.361C143.17 206.68 143.762 206.055 144.412 205.493L145.712 204.39C146.807 203.49 147.953 202.654 149.145 201.886C149.343 201.759 150.247 201.236 151.857 200.359C154.355 198.93 156.992 197.759 159.726 196.865C161.704 196.256 163.202 195.832 164.233 195.592C166.32 195.048 168.463 194.753 170.619 194.715C172.138 194.686 173.649 194.95 175.069 195.493C175.887 195.767 176.601 196.286 177.117 196.978C177.658 197.626 177.962 198.439 177.979 199.284C177.97 199.701 177.883 200.114 177.725 200.5C177.448 201.167 177.077 201.791 176.623 202.353L175.789 203.428C175.244 204.139 174.623 204.788 173.939 205.366C173.232 205.989 172.794 206.342 172.667 206.441C171.009 207.791 169.283 209.057 167.497 210.232L166.225 211.109L164.021 212.609C162.861 213.416 161.648 214.144 160.39 214.787L156.717 216.739C155.756 217.22 154.669 217.744 153.44 218.324L151.857 219.087C151.536 219.222 151.254 219.436 151.038 219.71C150.897 219.908 150.727 220.191 150.529 220.53C150.357 220.814 150.168 221.088 149.964 221.351L149.865 221.549C149.865 221.719 149.978 221.818 150.218 221.86C150.567 221.969 150.928 222.035 151.292 222.058L152.21 222.157C153.363 222.304 154.524 222.375 155.686 222.369C157.892 222.371 160.094 222.148 162.255 221.704C164.127 221.335 165.966 220.81 167.751 220.134C168.827 219.779 169.86 219.305 170.831 218.72C171.032 218.58 171.257 218.479 171.495 218.423C171.542 218.421 171.588 218.428 171.632 218.445C171.676 218.462 171.716 218.488 171.749 218.522C171.773 218.56 171.785 218.604 171.785 218.649C171.785 218.694 171.773 218.738 171.749 218.776C171.662 219.036 171.48 219.253 171.24 219.384C169.027 220.798 166.598 221.839 164.049 222.468C161.12 223.227 158.104 223.602 155.078 223.586C153.186 223.58 151.297 223.429 149.427 223.133H149.23C149.07 223.126 148.913 223.165 148.775 223.246C148.637 223.326 148.525 223.444 148.453 223.586L147.492 225C146.865 225.834 146.316 226.724 145.853 227.66L145.387 228.579C145.217 228.848 145.048 228.989 144.878 228.989C144.729 228.982 144.585 228.928 144.469 228.834C144.333 228.713 144.227 228.563 144.158 228.395ZM152.634 217.404L152.917 217.305L153.383 217.107C154.293 216.802 155.172 216.414 156.011 215.947C156.844 215.494 157.946 214.844 159.317 214.037L160.729 213.217C162.707 211.986 164.177 211.039 165.137 210.388C165.476 210.176 165.858 209.921 166.282 209.61C166.705 209.299 167.214 208.987 167.793 208.648C169.393 207.637 170.918 206.512 172.356 205.281C173.415 204.363 174.406 203.37 175.323 202.311C175.98 201.589 176.501 200.756 176.863 199.849C176.994 199.546 177.061 199.218 177.061 198.887C177.061 198.446 176.936 198.014 176.701 197.641C176.466 197.268 176.131 196.97 175.733 196.78C174.809 196.293 173.803 195.981 172.766 195.86C172.375 195.84 171.984 195.84 171.594 195.86H168.938C168.163 195.866 167.392 195.951 166.635 196.115C165.815 196.285 164.756 196.539 163.456 196.879C161.264 197.475 159.112 198.212 157.014 199.086C153.19 200.64 149.604 202.725 146.362 205.281C145.328 206.09 144.414 207.043 143.649 208.11C143.32 208.558 143.027 209.031 142.773 209.525C142.756 209.628 142.756 209.733 142.773 209.836C142.773 210.048 142.929 210.176 143.225 210.246H143.536H145.726C146.107 210.246 146.672 210.246 147.421 210.133C148.17 210.02 149.004 210.006 150.247 209.935C150.604 209.914 150.963 209.914 151.32 209.935C151.682 209.924 152.043 209.962 152.394 210.048C152.497 210.067 152.602 210.067 152.705 210.048C152.84 210.044 152.971 209.998 153.079 209.917C153.188 209.836 153.269 209.724 153.312 209.596C153.342 209.569 153.367 209.536 153.384 209.5C153.401 209.463 153.41 209.424 153.411 209.384L155.926 204.984L157.099 202.622L157.254 202.07V201.957H157.169L157.014 202.042L156.915 202.113C156.358 202.622 155.736 203.055 155.064 203.4C154.425 203.695 153.838 204.091 153.327 204.574C153.295 204.61 153.256 204.637 153.211 204.655C153.167 204.672 153.119 204.678 153.072 204.673C153.072 204.673 152.973 204.673 152.874 204.673V204.517C153.133 204.168 153.421 203.841 153.736 203.541L154.669 202.778C154.826 202.609 154.996 202.452 155.177 202.311C155.397 202.126 155.6 201.923 155.785 201.702C156.195 201.254 156.671 200.873 157.198 200.571L157.65 200.316C157.738 200.299 157.829 200.299 157.918 200.316C158.002 200.3 158.088 200.3 158.172 200.316L158.37 200.415C158.552 200.497 158.701 200.638 158.793 200.815C158.885 200.992 158.915 201.195 158.879 201.391L158.582 202.311C158.311 203.115 157.976 203.895 157.579 204.645C157.183 205.38 156.632 206.356 155.912 207.587L154.33 210.303C154.226 210.491 154.159 210.698 154.132 210.911C154.143 211.06 154.197 211.202 154.287 211.321C154.421 211.609 154.488 211.924 154.485 212.241C154.476 212.503 154.443 212.763 154.386 213.019C154.293 213.368 154.17 213.709 154.019 214.037L153.468 215.268L153.129 216.032C152.973 216.371 152.832 216.669 152.691 216.909C152.635 217.019 152.602 217.139 152.592 217.263C152.465 217.404 152.55 217.475 152.691 217.404H152.634ZM148.933 220.629C148.991 220.557 149.026 220.468 149.032 220.375L148.933 220.276C148.848 220.308 148.773 220.363 148.718 220.436C148.663 220.508 148.63 220.595 148.622 220.686C148.622 220.757 148.622 220.785 148.735 220.785C148.848 220.785 148.919 220.742 148.989 220.629H148.933ZM150.572 217.927L151.433 216.287C152.013 215.155 152.535 214.066 152.973 213.005C152.962 212.949 152.962 212.891 152.973 212.835C153.001 212.757 153.001 212.672 152.973 212.595H152.818C152.479 213.104 152.295 213.401 152.253 213.472L151.292 215.254C150.771 216.171 150.3 217.115 149.879 218.083L149.724 218.437C149.724 218.536 149.724 218.592 149.724 218.592C149.774 218.611 149.829 218.611 149.879 218.592C150.196 218.472 150.454 218.234 150.6 217.927H150.572Z" fill="white"/>
<path d="M174.306 221.86C173.82 221.853 173.341 221.752 172.893 221.563C172.314 221.299 171.798 220.913 171.382 220.431C171.029 219.996 170.839 219.45 170.845 218.889C170.871 218.172 171.107 217.479 171.523 216.895C172.322 215.72 173.387 214.751 174.631 214.066C174.973 213.863 175.363 213.755 175.761 213.754C176.278 213.764 176.775 213.949 177.174 214.278C177.386 214.426 177.545 214.64 177.626 214.886C177.69 214.994 177.728 215.115 177.739 215.24C177.737 215.342 177.712 215.442 177.666 215.533C177.619 215.624 177.552 215.702 177.471 215.763C176.803 216.414 176.058 216.979 175.253 217.446C174.505 217.861 173.675 218.108 172.823 218.168C172.698 218.162 172.573 218.185 172.458 218.234C172.343 218.283 172.241 218.357 172.159 218.451C172.032 218.73 171.979 219.036 172.003 219.342C171.991 219.568 172.03 219.794 172.118 220.002C172.207 220.21 172.341 220.396 172.512 220.544C172.915 220.856 173.416 221.011 173.925 220.983C175.273 220.913 176.579 220.488 177.711 219.752C179.104 218.927 180.362 217.891 181.44 216.683C181.608 216.557 181.801 216.47 182.006 216.428C182.203 216.428 182.232 216.612 182.006 216.98C181.822 217.411 181.575 217.811 181.271 218.168C180.562 218.976 179.761 219.697 178.883 220.318C177.983 220.905 176.989 221.336 175.945 221.591C175.413 221.753 174.862 221.843 174.306 221.86ZM174.758 216.329C175.009 216.174 175.249 216.004 175.479 215.82L176.397 215.155L176.496 214.957C176.496 214.815 176.397 214.745 176.199 214.745C175.96 214.763 175.728 214.835 175.521 214.957C174.571 215.502 173.724 216.21 173.02 217.05C173.64 216.924 174.23 216.679 174.758 216.329Z" fill="white"/>
<path d="M182.938 224.378C182.562 224.374 182.193 224.277 181.864 224.095C181.542 223.911 181.251 223.677 181.002 223.402C180.681 222.989 180.467 222.503 180.381 221.987C180.289 221.479 180.256 220.961 180.282 220.445C180.292 219.325 180.429 218.21 180.692 217.121C180.926 216.077 181.233 215.052 181.61 214.051C181.949 213.16 182.189 212.538 182.33 212.198C183.081 210.219 183.949 208.287 184.93 206.413C186.272 203.895 187.36 201.985 188.208 200.754C188.97 199.572 189.882 198.493 190.92 197.543C191.237 197.231 191.65 197.036 192.093 196.992C192.407 197.006 192.71 197.109 192.969 197.289C193.083 197.438 193.138 197.624 193.124 197.812C193.119 198.307 192.993 198.792 192.757 199.227C191.353 202.273 189.752 205.389 187.953 208.577C186.204 211.669 184.294 214.667 182.232 217.559C182.112 217.671 182.024 217.813 181.977 217.97C181.627 218.941 181.436 219.964 181.412 220.997C181.397 221.698 181.537 222.393 181.822 223.034C182.062 223.486 182.316 223.699 182.585 223.699C182.815 223.668 183.039 223.601 183.249 223.501C183.46 223.398 183.663 223.28 183.856 223.147C184.337 222.793 185.269 222.029 186.498 220.841C187.562 219.864 188.562 218.82 189.493 217.715C189.625 217.543 189.777 217.386 189.945 217.248C190.157 217.121 190.298 217.149 190.411 217.361V217.503C190.421 217.695 190.355 217.882 190.228 218.026L190.002 218.281C189.86 218.479 189.38 219.045 188.589 219.964C187.843 220.907 187.041 221.805 186.187 222.652C185.57 223.273 184.865 223.802 184.096 224.222C183.728 224.365 183.331 224.418 182.938 224.378ZM187.798 206.229C189.259 203.768 190.543 201.206 191.641 198.562C189.655 200.678 188.006 203.087 186.752 205.705C185.337 208.3 184.114 210.995 183.093 213.768C184.809 211.351 186.38 208.833 187.798 206.229Z" fill="white"/>
<path d="M192.093 221.86C191.607 221.855 191.127 221.754 190.68 221.563C190.097 221.304 189.581 220.917 189.168 220.431C188.815 219.996 188.625 219.45 188.631 218.889C188.659 218.175 188.889 217.483 189.295 216.895C190.1 215.72 191.17 214.751 192.418 214.066C192.76 213.863 193.15 213.755 193.548 213.754C194.065 213.761 194.564 213.946 194.961 214.278C195.181 214.421 195.346 214.636 195.427 214.886C195.487 214.995 195.521 215.116 195.526 215.24C195.527 215.341 195.504 215.441 195.46 215.531C195.416 215.622 195.351 215.702 195.271 215.763C194.601 216.41 193.856 216.975 193.053 217.446C192.305 217.859 191.476 218.105 190.623 218.168C190.498 218.161 190.374 218.183 190.259 218.232C190.143 218.281 190.041 218.356 189.959 218.451C189.826 218.728 189.772 219.036 189.804 219.342C189.792 219.568 189.831 219.794 189.919 220.002C190.007 220.21 190.142 220.396 190.313 220.544C190.715 220.857 191.217 221.013 191.725 220.983C193.074 220.915 194.38 220.49 195.511 219.752C196.91 218.934 198.169 217.898 199.241 216.683C199.41 216.559 199.602 216.472 199.806 216.428C200.018 216.428 200.032 216.612 199.891 216.98C199.702 217.411 199.45 217.812 199.142 218.168C198.438 218.975 197.641 219.697 196.769 220.318C195.868 220.905 194.875 221.336 193.83 221.591C193.266 221.759 192.681 221.849 192.093 221.86ZM192.559 216.329C192.757 216.202 192.997 216.032 193.265 215.82L194.198 215.155L194.297 214.957C194.297 214.815 194.198 214.745 193.986 214.745C193.751 214.764 193.524 214.836 193.322 214.957C192.372 215.502 191.525 216.21 190.821 217.05C191.44 216.919 192.029 216.674 192.559 216.329Z" fill="white"/>
<path d="M199.82 221.917C199.57 221.918 199.321 221.865 199.092 221.763C198.863 221.66 198.659 221.51 198.492 221.322C198.303 221.14 198.155 220.92 198.058 220.676C197.961 220.432 197.916 220.17 197.927 219.908C197.922 218.973 198.129 218.049 198.535 217.206L199.608 215.254C199.738 215.061 199.851 214.857 199.948 214.646C200.041 214.393 200.191 214.166 200.386 213.981C200.489 213.852 200.626 213.754 200.781 213.698C200.848 213.688 200.916 213.695 200.98 213.717C201.044 213.739 201.102 213.776 201.148 213.825C201.28 213.915 201.387 214.037 201.459 214.179C201.48 214.343 201.439 214.509 201.346 214.646L200.117 216.739C199.722 217.44 199.401 218.18 199.156 218.946C199.095 219.249 199.058 219.557 199.043 219.865C199.043 220.573 199.185 220.941 199.453 220.941C199.647 220.903 199.827 220.816 199.976 220.686C201.007 219.974 201.955 219.149 202.801 218.225C204.112 216.829 205.343 215.36 206.489 213.825L207.562 212.411C207.732 212.17 207.859 212.057 207.972 212.057C208.042 212.061 208.11 212.081 208.171 212.116C208.232 212.15 208.285 212.198 208.325 212.255C208.424 212.391 208.479 212.554 208.481 212.722C208.454 212.962 208.366 213.191 208.226 213.387C207.237 214.801 206.361 215.919 205.584 216.895C204.82 217.862 203.995 218.779 203.112 219.639C202.826 219.88 202.553 220.135 202.293 220.403C202.003 220.694 201.696 220.968 201.374 221.223C201.176 221.372 200.968 221.509 200.753 221.634C200.479 221.822 200.153 221.921 199.82 221.917Z" fill="white"/>
<path d="M210.6 221.86C210.114 221.854 209.634 221.753 209.187 221.563C208.608 221.299 208.092 220.913 207.675 220.431C207.322 219.996 207.132 219.45 207.138 218.889C207.166 218.175 207.396 217.483 207.802 216.895C208.611 215.723 209.68 214.755 210.925 214.066C211.267 213.863 211.657 213.755 212.055 213.754C212.572 213.761 213.071 213.946 213.468 214.278C213.688 214.421 213.853 214.636 213.934 214.886C213.994 214.995 214.028 215.116 214.033 215.24C214.034 215.341 214.011 215.441 213.967 215.531C213.923 215.622 213.858 215.702 213.778 215.763C213.111 216.414 212.366 216.979 211.56 217.446C210.813 217.861 209.983 218.108 209.13 218.168C209.006 218.162 208.881 218.185 208.766 218.234C208.651 218.283 208.549 218.357 208.466 218.451C208.34 218.73 208.287 219.036 208.311 219.342C208.299 219.568 208.338 219.794 208.426 220.002C208.514 220.21 208.649 220.396 208.82 220.544C209.222 220.857 209.724 221.013 210.232 220.983C211.581 220.915 212.887 220.49 214.019 219.752C215.419 218.931 216.682 217.895 217.762 216.683C217.925 216.559 218.113 216.472 218.313 216.428C218.521 216.428 218.549 216.612 218.398 216.98C218.21 217.411 217.957 217.812 217.649 218.168C216.949 218.979 216.152 219.701 215.276 220.318C214.375 220.905 213.382 221.336 212.337 221.591C211.773 221.76 211.189 221.851 210.6 221.86ZM211.066 216.329L211.786 215.82L212.761 215.183L212.86 214.985C212.86 214.844 212.761 214.773 212.549 214.773C212.315 214.794 212.088 214.866 211.885 214.985C210.935 215.53 210.089 216.239 209.385 217.079C209.987 216.937 210.558 216.682 211.066 216.329Z" fill="white"/>
<path d="M217.353 222.779C217.154 222.788 216.956 222.745 216.778 222.656C216.6 222.567 216.448 222.434 216.336 222.27C216.206 222.131 216.131 221.95 216.124 221.761C216.124 221.591 216.251 221.407 216.491 221.195C216.987 220.78 217.516 220.406 218.073 220.077C219.02 219.427 219.938 218.762 220.8 218.097C221.938 217.22 223.023 216.275 224.049 215.268C224.096 215.231 224.135 215.183 224.161 215.13C224.188 215.076 224.203 215.017 224.205 214.957C224.205 214.815 224.092 214.702 223.851 214.603C223.467 214.417 223.049 214.311 222.622 214.292C222.368 214.271 222.113 214.271 221.859 214.292C220.866 214.298 219.891 214.566 219.034 215.07C218.817 215.101 218.618 215.206 218.469 215.367C218.44 215.417 218.399 215.458 218.35 215.487C218.3 215.516 218.244 215.532 218.186 215.532C218.129 215.532 218.072 215.516 218.023 215.487C217.973 215.458 217.932 215.417 217.904 215.367C217.777 215.221 217.69 215.046 217.649 214.858C217.649 214.716 217.791 214.561 218.059 214.391C219.094 213.767 220.284 213.449 221.492 213.471C222.173 213.499 222.853 213.565 223.526 213.669C224.082 213.81 224.563 214.16 224.869 214.645C225.018 214.858 225.106 215.108 225.123 215.367C225.108 215.609 225.019 215.841 224.869 216.032C224.726 216.26 224.55 216.465 224.346 216.64C223.685 217.311 222.987 217.944 222.255 218.535C221.506 219.158 220.108 220.162 218.017 221.563C217.888 221.631 217.78 221.734 217.706 221.86H217.861C218.02 221.862 218.177 221.839 218.328 221.789C218.441 221.747 218.56 221.723 218.681 221.718C219.09 221.648 219.74 221.506 220.63 221.308C221.958 220.989 223.309 220.781 224.671 220.686C225.002 220.682 225.332 220.735 225.646 220.841C225.762 220.903 225.863 220.99 225.942 221.096C225.956 221.129 225.961 221.166 225.958 221.201C225.955 221.237 225.943 221.272 225.924 221.303C225.904 221.333 225.878 221.358 225.847 221.377C225.816 221.395 225.781 221.405 225.745 221.407H225.646C224.544 221.577 223.117 221.86 221.337 222.227C219.133 222.68 217.918 222.906 217.706 222.949L217.353 222.779Z" fill="white"/>
<path d="M234.631 221.917C234.38 221.917 234.132 221.864 233.903 221.762C233.675 221.659 233.47 221.51 233.303 221.322C233.118 221.137 232.974 220.916 232.88 220.673C232.785 220.429 232.741 220.169 232.752 219.908C232.746 218.973 232.954 218.049 233.359 217.206C233.939 216.145 234.292 215.494 234.433 215.254C234.562 215.061 234.676 214.857 234.772 214.646C234.866 214.397 235.01 214.171 235.196 213.981C235.304 213.851 235.446 213.753 235.606 213.698C235.672 213.688 235.741 213.695 235.805 213.717C235.869 213.739 235.926 213.776 235.973 213.825C236.105 213.91 236.209 214.034 236.27 214.179C236.27 214.278 236.27 214.434 236.171 214.646L234.942 216.739C234.548 217.442 234.221 218.181 233.967 218.946C233.916 219.25 233.883 219.557 233.868 219.865C233.868 220.573 234.009 220.941 234.278 220.941C234.466 220.9 234.641 220.812 234.786 220.686C235.82 219.978 236.769 219.152 237.612 218.225C238.922 216.832 240.148 215.363 241.285 213.825L242.359 212.411C242.528 212.17 242.669 212.057 242.768 212.057C242.84 212.06 242.911 212.08 242.974 212.114C243.038 212.148 243.093 212.197 243.136 212.255C243.235 212.391 243.289 212.554 243.291 212.722C243.267 212.965 243.174 213.196 243.023 213.387C242.034 214.801 241.158 215.919 240.395 216.895C239.631 217.862 238.805 218.779 237.922 219.639C237.637 219.88 237.363 220.135 237.103 220.403C236.809 220.695 236.497 220.969 236.171 221.223C235.978 221.375 235.775 221.512 235.563 221.634C235.289 221.821 234.963 221.92 234.631 221.917Z" fill="white"/>
<path d="M278.567 202.721C278.563 202.76 278.55 202.797 278.531 202.831C278.511 202.865 278.485 202.895 278.454 202.919C278.427 202.942 278.392 202.955 278.356 202.955C278.319 202.955 278.285 202.942 278.257 202.919C278.097 202.903 277.94 202.865 277.79 202.806C277.347 202.597 276.867 202.477 276.378 202.452C275.562 202.351 274.741 202.299 273.92 202.297C273.609 202.297 273.128 202.297 272.507 202.297C271.885 202.297 271.292 202.297 270.811 202.297L269.272 202.452H267.859C267.181 202.452 266.446 202.551 265.528 202.664L263.719 202.862L262.307 203.018H261.953C261.669 203.033 261.394 203.127 261.159 203.289C260.925 203.452 260.74 203.676 260.625 203.937L259.99 204.8C259.764 205.077 259.582 205.387 259.453 205.72C258.973 206.611 258.633 207.29 258.422 207.771L257.659 209.355L256.966 210.77C256.712 211.279 256.43 211.887 256.119 212.566C255.616 213.669 255.173 214.797 254.791 215.947C254.621 216.527 254.381 217.206 254.084 217.984C253.788 218.762 253.519 219.526 253.11 220.813L252.7 222.228C252.488 222.836 252.22 223.755 251.88 224.986C251.266 227.37 250.854 229.803 250.651 232.257C250.651 232.809 250.651 233.29 250.651 233.672C250.651 234.054 250.651 234.45 250.651 234.718V235.949C250.628 236.204 250.657 236.461 250.738 236.705C250.818 236.948 250.947 237.172 251.118 237.364C251.245 237.505 251.245 237.618 251.118 237.717C250.99 237.816 250.934 237.972 250.708 237.972C250.535 237.961 250.367 237.905 250.223 237.808C250.079 237.711 249.964 237.577 249.889 237.42C249.745 237.148 249.658 236.85 249.634 236.543C249.515 235.728 249.444 234.906 249.422 234.082C249.454 232.054 249.662 230.033 250.044 228.042C250.312 226.627 250.623 225.326 250.962 224.109C251.33 222.695 252.036 220.431 253.053 217.503L254.028 215.098C254.187 214.616 254.376 214.143 254.593 213.684L254.946 212.651C255.066 212.265 255.222 211.891 255.412 211.534L255.822 210.614C255.588 210.673 255.385 210.82 255.257 211.024C254.393 211.884 253.447 212.657 252.431 213.33C251.704 213.76 250.954 214.152 250.185 214.504C249.681 214.701 249.144 214.801 248.603 214.801C248.309 214.792 248.016 214.758 247.727 214.702C247.558 214.686 247.388 214.686 247.218 214.702C247.163 214.695 247.106 214.705 247.056 214.73C247.005 214.755 246.964 214.795 246.936 214.844C246.859 215.043 246.816 215.253 246.809 215.466C246.724 216.688 246.472 217.892 246.06 219.045C245.75 220.094 245.333 221.108 244.817 222.072C244.679 222.326 244.475 222.536 244.225 222.681C243.976 222.826 243.692 222.899 243.404 222.893C243.054 222.892 242.717 222.761 242.457 222.525C242.174 222.293 241.984 221.966 241.921 221.605C241.789 221.105 241.789 220.578 241.921 220.078C242.167 218.913 242.566 217.786 243.107 216.725C243.681 215.385 244.328 214.077 245.043 212.807C245.131 212.598 245.255 212.406 245.41 212.241C245.465 212.175 245.535 212.122 245.613 212.085C245.691 212.048 245.776 212.029 245.862 212.029C245.961 212.021 246.059 212.039 246.148 212.081C246.238 212.123 246.314 212.188 246.371 212.269C246.418 212.359 246.442 212.458 246.442 212.559C246.442 212.66 246.418 212.76 246.371 212.849L246.272 213.259C246.271 213.314 246.287 213.368 246.317 213.413C246.347 213.459 246.391 213.494 246.441 213.514L246.682 213.67C247.086 213.833 247.517 213.919 247.953 213.924C249.317 213.833 250.625 213.341 251.711 212.51C253.167 211.511 254.483 210.322 255.624 208.973C256.133 208.393 256.839 207.488 257.715 206.257C258.017 205.886 258.278 205.483 258.492 205.055C258.732 204.588 258.902 204.263 259.001 204.051C259.023 203.987 259.023 203.917 259.001 203.853C259.001 203.711 258.874 203.64 258.633 203.64C258.497 203.623 258.36 203.623 258.224 203.64C255.489 204.106 252.789 204.758 250.143 205.593C249.911 205.657 249.675 205.704 249.436 205.734H249.493C249.394 205.737 249.297 205.719 249.206 205.68C249.116 205.641 249.035 205.582 248.97 205.508C248.841 205.359 248.77 205.167 248.772 204.97C248.772 204.871 248.772 204.772 248.871 204.659H249.027C249.504 204.573 249.975 204.46 250.439 204.319L251.471 204.036C252.24 203.79 253.023 203.587 253.816 203.428L259.086 202.41C259.202 202.387 259.322 202.387 259.439 202.41C259.645 202.369 259.839 202.284 260.007 202.159C260.176 202.034 260.315 201.873 260.414 201.688L263.027 197.445C263.232 197.098 263.469 196.771 263.734 196.469C263.814 196.386 263.911 196.321 264.018 196.277C264.125 196.233 264.24 196.212 264.355 196.214C264.498 196.206 264.641 196.241 264.765 196.313C265.104 196.553 265.189 196.822 265.019 197.133C264.68 197.784 264.355 198.364 264.044 198.873C263.734 199.383 263.239 200.161 262.561 201.179C262.497 201.345 262.412 201.502 262.307 201.646C262.313 201.679 262.313 201.712 262.307 201.745C262.298 201.76 262.293 201.777 262.293 201.794C262.293 201.812 262.298 201.829 262.307 201.844C262.307 201.915 262.377 201.943 262.504 201.943C264.143 201.717 265.994 201.533 268.028 201.434L268.848 201.335C269.159 201.335 269.54 201.335 269.978 201.335H271.617C272.606 201.335 274.089 201.335 276.067 201.448C276.571 201.489 277.069 201.589 277.55 201.745C277.9 201.879 278.215 202.092 278.469 202.367C278.518 202.48 278.552 202.599 278.567 202.721ZM245.58 216.329C245.647 215.908 245.68 215.482 245.678 215.056C245.696 214.92 245.696 214.782 245.678 214.646C245.678 214.575 245.678 214.547 245.565 214.547C245.452 214.547 245.467 214.547 245.467 214.547C245.417 214.586 245.382 214.641 245.368 214.702L244.704 216.117C244.124 217.249 243.701 218.126 243.446 218.776C243.179 219.499 243.017 220.256 242.966 221.025C242.941 221.308 242.995 221.592 243.121 221.846C243.179 221.914 243.259 221.96 243.347 221.973C243.388 221.985 243.431 221.985 243.471 221.972C243.512 221.96 243.547 221.935 243.573 221.902L243.884 221.492C244.082 221.011 244.393 220.233 244.803 219.158C245.063 218.536 245.284 217.898 245.467 217.248C245.467 217.093 245.509 216.782 245.58 216.329Z" fill="white"/>
<path d="M256.627 222.992C256.516 222.895 256.429 222.774 256.373 222.638C256.346 222.536 256.346 222.429 256.373 222.327C256.396 222.155 256.429 221.985 256.472 221.817C256.591 221.03 256.834 220.266 257.192 219.554C257.842 218.055 258.379 216.895 258.803 216.074C259.227 215.254 259.863 214.136 260.724 212.694C260.823 212.425 261.007 212.382 261.289 212.552C261.572 212.722 261.713 212.976 261.544 213.415C260.032 216.145 259.241 217.659 259.142 217.927L259.029 218.281L259.495 217.56C260.186 216.456 261.001 215.435 261.925 214.518C262.633 213.73 263.493 213.095 264.454 212.651C264.659 212.546 264.887 212.492 265.118 212.496C265.486 212.503 265.842 212.626 266.135 212.849L266.446 213.16C266.517 213.33 266.517 213.457 266.446 213.514C266.375 213.571 266.22 213.599 266.093 213.514L265.937 213.33C265.907 213.291 265.869 213.259 265.825 213.237C265.781 213.215 265.732 213.203 265.683 213.203C265.517 213.188 265.349 213.208 265.191 213.261C265.033 213.315 264.888 213.401 264.765 213.514C264.34 213.78 263.93 214.068 263.536 214.377C263.055 214.83 262.632 215.226 262.278 215.579C261.881 215.992 261.513 216.432 261.176 216.895C260.47 217.942 259.764 218.988 259.241 220.007C259.1 220.29 258.86 220.7 258.52 221.238L257.602 222.822C257.461 223.133 257.277 223.274 257.037 223.232C256.954 223.228 256.874 223.205 256.802 223.163C256.731 223.121 256.671 223.062 256.627 222.992Z" fill="white"/>
<path d="M268.382 221.86C267.896 221.855 267.416 221.754 266.969 221.563C266.389 221.299 265.874 220.913 265.457 220.431C265.104 219.996 264.914 219.45 264.92 218.889C264.948 218.175 265.178 217.483 265.584 216.895C266.389 215.72 267.459 214.751 268.706 214.066C269.049 213.863 269.439 213.755 269.837 213.754C270.354 213.761 270.853 213.946 271.249 214.278C271.47 214.421 271.635 214.636 271.716 214.886C271.776 214.995 271.81 215.116 271.815 215.24C271.816 215.341 271.793 215.441 271.749 215.531C271.705 215.622 271.64 215.702 271.56 215.763C270.893 216.414 270.148 216.979 269.342 217.446C268.594 217.859 267.765 218.105 266.912 218.168C266.787 218.162 266.663 218.185 266.548 218.234C266.433 218.283 266.331 218.357 266.248 218.451C266.115 218.728 266.061 219.036 266.093 219.342C266.081 219.568 266.12 219.794 266.208 220.002C266.296 220.21 266.431 220.396 266.601 220.544C267.004 220.857 267.506 221.013 268.014 220.983C269.363 220.915 270.669 220.49 271.8 219.752C273.199 218.934 274.458 217.898 275.53 216.683C275.699 216.559 275.891 216.472 276.095 216.428C276.302 216.428 276.331 216.612 276.18 216.98C275.991 217.411 275.739 217.812 275.431 218.168C274.73 218.979 273.933 219.701 273.058 220.318C272.157 220.905 271.163 221.336 270.119 221.591C269.555 221.759 268.97 221.849 268.382 221.86ZM268.848 216.329L269.568 215.82L270.487 215.155L270.585 214.957C270.585 214.815 270.487 214.745 270.275 214.745C270.04 214.764 269.813 214.836 269.611 214.957C268.66 215.502 267.814 216.21 267.11 217.05C267.73 216.924 268.32 216.679 268.848 216.329Z" fill="white"/>
<path d="M287.454 223.302C287.141 223.298 286.832 223.246 286.535 223.147C286.346 223.11 286.176 223.008 286.054 222.858C285.933 222.708 285.868 222.52 285.871 222.326C285.846 222.191 285.846 222.052 285.871 221.916C285.967 221.541 286.13 221.186 286.352 220.869L286.79 220.233C288.182 217.92 290.068 215.944 292.314 214.447C292.582 214.263 292.723 214.08 292.723 213.882C292.723 213.683 292.554 213.429 292.215 213.259C291.943 213.124 291.633 213.089 291.339 213.16C290.311 213.305 289.322 213.651 288.429 214.179C287.336 214.829 286.322 215.602 285.405 216.484C284.393 217.496 283.449 218.573 282.58 219.71C282.264 220.152 281.994 220.626 281.774 221.124C281.534 221.619 281.379 221.916 281.308 222.029C281.266 222.11 281.232 222.196 281.209 222.284C281.169 222.389 281.117 222.488 281.054 222.581C280.842 222.921 280.616 223.048 280.333 222.949C280.051 222.85 279.726 222.496 279.825 222.128C279.952 221.435 280.122 220.75 280.333 220.077C280.333 219.908 280.475 219.54 280.644 218.974C280.801 218.439 281.005 217.918 281.252 217.418C281.4 217.124 281.532 216.821 281.647 216.513C281.76 216.201 281.859 215.947 281.916 215.777C282.947 213.457 283.724 211.731 284.275 210.6C284.826 209.468 285.363 208.435 286.112 207.049C286.86 205.663 287.524 204.503 288.061 203.541C288.81 202.282 289.742 200.839 290.887 199.213C291.587 198.098 292.401 197.06 293.317 196.115C293.463 195.965 293.64 195.847 293.834 195.769C294.029 195.691 294.237 195.655 294.447 195.662C294.667 195.663 294.884 195.709 295.085 195.796C295.287 195.884 295.469 196.011 295.619 196.171C295.72 196.271 295.8 196.39 295.853 196.521C295.907 196.653 295.933 196.793 295.93 196.935C295.914 197.095 295.876 197.252 295.817 197.402C295.697 197.786 295.546 198.16 295.365 198.519C295.153 198.93 295.026 199.227 294.955 199.396C293.586 202.364 292.005 205.229 290.223 207.969C288.675 210.49 286.922 212.88 284.981 215.112C284.543 215.551 284.12 216.018 283.724 216.527C283.328 217.036 283.088 217.305 282.989 217.446C283.879 216.555 284.671 215.805 285.391 215.197C286.101 214.585 286.873 214.049 287.694 213.599C288.298 213.266 288.921 212.969 289.559 212.707C290.101 212.485 290.682 212.37 291.268 212.368C291.714 212.361 292.155 212.46 292.555 212.657C292.955 212.854 293.304 213.142 293.571 213.5C293.74 213.712 293.91 213.74 294.08 213.599L294.899 213.401C295.115 213.34 295.338 213.307 295.563 213.302C295.942 213.291 296.316 213.395 296.637 213.599C296.788 213.709 296.916 213.848 297.013 214.009C297.11 214.169 297.174 214.347 297.202 214.532C297.272 214.801 297.202 214.957 297.004 214.985H296.891C296.787 214.985 296.688 214.9 296.594 214.73C296.502 214.556 296.388 214.395 296.255 214.249C296.209 214.192 296.151 214.146 296.085 214.114C296.019 214.083 295.947 214.066 295.874 214.065C295.679 214.091 295.489 214.144 295.309 214.221L295.111 214.32C294.94 214.321 294.771 214.358 294.615 214.428C294.459 214.499 294.32 214.602 294.207 214.73C293.992 215.051 293.861 215.421 293.825 215.805C293.631 217.205 293.108 218.538 292.299 219.695L291.325 221.11C291.011 221.549 290.629 221.936 290.194 222.256C289.597 222.725 288.923 223.089 288.202 223.331C287.953 223.343 287.702 223.334 287.454 223.302ZM287.002 210.571C288.452 208.497 289.865 206.276 291.24 203.909C292.615 201.542 293.736 199.326 294.602 197.26C294.647 197.182 294.676 197.095 294.687 197.006C294.685 196.935 294.69 196.864 294.701 196.794C294.701 196.652 294.701 196.581 294.546 196.581C294.435 196.582 294.326 196.611 294.23 196.665C294.133 196.72 294.053 196.798 293.995 196.893C293.624 197.26 293.28 197.652 292.963 198.067C292.186 199.128 291.395 200.302 290.618 201.603L289.7 203.018C289.389 203.461 288.485 205.116 286.988 207.983L286.366 209.1C286.168 209.482 285.984 209.822 285.801 210.133C285.433 210.784 285.066 211.463 284.713 212.184C284.374 212.824 284.091 213.491 283.865 214.179C283.873 214.235 283.873 214.292 283.865 214.348C283.84 214.401 283.827 214.459 283.827 214.518C283.827 214.577 283.84 214.635 283.865 214.688C285.009 213.404 286.057 212.037 287.002 210.6V210.571ZM287.567 222.454L287.92 222.298C288.126 222.169 288.338 222.051 288.556 221.945C288.835 221.795 289.1 221.62 289.347 221.421C290.905 219.942 292.037 218.071 292.624 216.003C292.666 215.87 292.666 215.727 292.624 215.593C292.511 215.593 292.384 215.593 292.215 215.791L291.183 216.767C290.194 217.757 289.432 218.55 288.909 219.144C288.385 219.764 287.912 220.426 287.496 221.124L287.086 221.945C287.069 222.022 287.045 222.097 287.016 222.171C286.988 222.213 286.973 222.262 286.973 222.312C286.973 222.363 286.988 222.412 287.016 222.454C287.157 222.581 287.327 222.581 287.637 222.482L287.567 222.454Z" fill="white"/>
<path d="M299.377 221.86C298.892 221.853 298.412 221.752 297.965 221.563C297.387 221.302 296.876 220.916 296.467 220.431C296.109 219.999 295.918 219.451 295.93 218.889C295.951 218.173 296.182 217.48 296.594 216.895C297.394 215.72 298.459 214.751 299.702 214.066C300.045 213.863 300.435 213.755 300.833 213.754C301.349 213.764 301.847 213.949 302.245 214.278C302.458 214.426 302.616 214.64 302.697 214.886C302.761 214.994 302.8 215.115 302.81 215.24C302.812 215.342 302.789 215.444 302.742 215.535C302.695 215.626 302.626 215.705 302.542 215.763C301.875 216.414 301.13 216.979 300.324 217.446C299.576 217.861 298.747 218.108 297.894 218.168C297.769 218.162 297.645 218.185 297.53 218.234C297.415 218.283 297.312 218.357 297.23 218.451C297.104 218.73 297.05 219.036 297.075 219.342C297.062 219.568 297.102 219.794 297.19 220.002C297.278 220.21 297.413 220.396 297.583 220.544C297.986 220.856 298.488 221.011 298.996 220.983C300.344 220.913 301.65 220.488 302.782 219.752C304.178 218.93 305.436 217.894 306.512 216.683C306.679 216.557 306.872 216.47 307.077 216.428C307.275 216.428 307.303 216.612 307.148 216.98C306.964 217.411 306.717 217.811 306.413 218.168C305.704 218.976 304.903 219.697 304.025 220.318C303.126 220.908 302.132 221.339 301.087 221.591C300.532 221.759 299.957 221.849 299.377 221.86ZM299.83 216.329C300.08 216.174 300.321 216.004 300.55 215.82L301.468 215.155L301.567 214.957C301.567 214.815 301.468 214.745 301.271 214.745C301.036 214.764 300.809 214.836 300.607 214.957C299.652 215.502 298.801 216.21 298.092 217.05C298.712 216.924 299.302 216.679 299.83 216.329Z" fill="white"/>
<path d="M305.763 221.308C305.498 221.275 305.249 221.167 305.043 220.997C304.906 220.885 304.794 220.745 304.716 220.587C304.638 220.428 304.595 220.254 304.59 220.077C304.584 219.784 304.647 219.493 304.774 219.229C304.889 218.979 305.021 218.738 305.17 218.507C305.277 218.37 305.372 218.223 305.452 218.069C306.391 216.631 307.572 215.368 308.942 214.334C309.306 214.034 309.746 213.838 310.213 213.769C310.502 213.814 310.777 213.921 311.02 214.082C311.264 214.243 311.471 214.455 311.626 214.702C311.736 214.692 311.842 214.659 311.937 214.603C312.06 214.487 312.22 214.417 312.389 214.405C312.536 214.415 312.677 214.464 312.799 214.547C312.938 214.639 313.039 214.78 313.081 214.943C313.086 215.106 313.062 215.269 313.011 215.424L312.191 216.951C312.032 217.221 311.927 217.519 311.88 217.828C311.864 217.912 311.864 217.999 311.88 218.083C311.88 218.352 312.078 218.493 312.445 218.493C313.132 218.525 313.814 218.373 314.423 218.055C315.26 217.694 316.071 217.278 316.853 216.81C317.35 216.523 317.822 216.197 318.266 215.834H318.464C318.676 215.834 318.746 215.961 318.676 216.202C318.52 216.59 318.255 216.924 317.913 217.163L316.627 217.984C316.092 218.335 315.53 218.642 314.946 218.903C314.261 219.25 313.509 219.443 312.742 219.469C312.247 219.467 311.772 219.274 311.414 218.932C311.219 218.773 311.059 218.575 310.945 218.351C310.831 218.127 310.764 217.882 310.75 217.63C310.75 217.598 310.741 217.565 310.724 217.538C310.706 217.51 310.681 217.488 310.651 217.475L308.956 219.116C308.306 219.696 307.656 220.247 307.02 220.756C306.835 220.909 306.625 221.029 306.399 221.11C306.204 221.222 305.987 221.289 305.763 221.308ZM306.229 220.021C307.049 219.342 307.642 218.804 308.009 218.437L309.902 216.64L310.778 215.721C310.894 215.582 310.972 215.417 311.004 215.24C311.013 215.168 311.006 215.096 310.984 215.028C310.962 214.959 310.926 214.896 310.877 214.844C310.838 214.8 310.79 214.765 310.737 214.74C310.683 214.716 310.625 214.703 310.566 214.702C310.482 214.686 310.396 214.686 310.312 214.702L310.114 214.801C309.909 214.895 309.718 215.019 309.549 215.169C308.801 215.777 308.25 216.258 307.91 216.584C307.591 216.915 307.302 217.274 307.049 217.659L306.328 218.691C305.999 219.13 305.772 219.638 305.664 220.177C305.864 220.18 306.06 220.126 306.229 220.021Z" fill="white"/>
<path d="M353.882 204.715C353.85 205.254 353.612 205.761 353.218 206.13L353.006 206.229C352.836 206.229 352.723 206.13 352.652 205.918C352.63 205.801 352.63 205.681 352.652 205.564C352.681 205.477 352.714 205.392 352.751 205.309C352.85 204.998 352.921 204.814 352.949 204.743V204.545C352.945 204.453 352.913 204.365 352.858 204.292C352.802 204.218 352.726 204.164 352.638 204.135L352.087 203.98C351.285 203.809 350.474 203.686 349.657 203.612C348.612 203.513 347.764 203.47 347.114 203.47H345.998C344.769 203.47 343.088 203.569 340.941 203.697C338.793 203.824 337.451 203.923 336.943 204.022C336.741 204.05 336.537 204.05 336.335 204.022C336.079 204.032 335.829 204.103 335.606 204.228C335.383 204.354 335.192 204.53 335.05 204.743C333.979 206.229 333.006 207.784 332.139 209.397C330.732 211.882 329.712 214.568 329.116 217.361C328.31 220.501 327.883 223.725 327.844 226.966C327.816 227.527 327.816 228.089 327.844 228.649C327.888 229.219 327.987 229.783 328.141 230.333C328.289 230.804 328.556 231.228 328.918 231.563L329.017 231.677C329.017 231.677 329.017 231.804 329.017 231.875C328.99 231.905 328.958 231.929 328.921 231.946C328.885 231.963 328.845 231.972 328.805 231.974C328.405 231.927 328.039 231.724 327.788 231.408C327.412 231.053 327.159 230.587 327.067 230.078C327.067 229.88 326.969 229.541 326.87 229.088C326.771 228.635 326.7 228.211 326.658 227.829C326.658 226.91 326.658 226.018 326.658 225.17C326.771 223.218 326.94 221.449 327.166 219.865C327.406 218.293 327.784 216.745 328.297 215.239V215.027C328.297 214.928 328.297 214.872 328.198 214.858C328.183 214.851 328.167 214.847 328.151 214.847C328.135 214.847 328.119 214.851 328.104 214.857C328.089 214.864 328.076 214.874 328.065 214.886C328.055 214.898 328.047 214.913 328.042 214.928L327.322 215.65C327.11 215.918 326.771 216.329 326.305 216.866L325.231 218.097C325.059 218.303 324.842 218.466 324.597 218.574C324.352 218.682 324.086 218.732 323.818 218.719C323.55 218.727 323.284 218.673 323.039 218.563C322.794 218.453 322.578 218.289 322.405 218.083C322.039 217.664 321.838 217.126 321.84 216.569V216.102C321.741 216.032 321.628 216.102 321.529 216.201L320.131 218.691C319.648 219.362 319.204 220.061 318.803 220.785C318.611 221.022 318.388 221.231 318.139 221.407C317.869 221.555 317.57 221.642 317.263 221.662C317.103 221.663 316.944 221.633 316.796 221.572C316.648 221.511 316.514 221.421 316.401 221.308C316.299 221.207 316.218 221.085 316.165 220.951C316.111 220.818 316.086 220.674 316.09 220.53C316.154 219.816 316.306 219.113 316.542 218.436L316.853 217.559C316.952 217.262 317.136 216.781 317.39 216.145C317.547 215.699 317.761 215.276 318.026 214.886C318.124 214.789 318.255 214.733 318.393 214.73C318.517 214.733 318.639 214.767 318.746 214.829C318.843 214.895 318.917 214.989 318.958 215.098C318.987 215.281 318.987 215.467 318.958 215.65C318.912 215.833 318.841 216.009 318.746 216.173L318.337 217.135C318.206 217.564 318.051 217.984 317.87 218.394C317.615 219.044 317.444 219.724 317.362 220.417C317.432 220.558 317.743 220.219 318.28 219.412L319.213 217.998C319.58 217.46 320.258 216.517 321.247 215.169L322.123 214.037L322.589 213.584C322.685 213.483 322.809 213.414 322.946 213.386C323.082 213.358 323.224 213.373 323.352 213.429C323.481 213.47 323.594 213.551 323.676 213.66C323.757 213.769 323.802 213.901 323.804 214.037C323.792 214.429 323.736 214.818 323.634 215.197C323.507 215.65 323.423 216.003 323.352 216.244C323.253 216.753 323.197 217.036 323.197 217.064C323.211 217.205 323.244 217.343 323.295 217.474C323.321 217.555 323.365 217.628 323.425 217.687C323.485 217.747 323.558 217.791 323.639 217.816C323.719 217.841 323.804 217.846 323.887 217.831C323.97 217.816 324.048 217.781 324.115 217.729C324.452 217.508 324.748 217.231 324.991 216.909L327.025 214.447C328.325 212.849 329.342 211.477 330.105 210.359L331.023 208.563C331.342 207.946 331.629 207.313 331.885 206.667C332.026 206.398 332.153 206.13 332.266 205.875L332.605 205.182C332.64 205.102 332.683 205.026 332.733 204.956C332.783 204.885 332.825 204.809 332.86 204.729C332.93 204.729 332.93 204.602 332.86 204.574L332.662 204.475L331.885 204.616L330.868 204.857L330.02 205.281L327.816 205.847C327.559 205.9 327.304 205.966 327.053 206.045C326.759 206.148 326.446 206.187 326.135 206.158H325.471C325.194 206.163 324.921 206.1 324.674 205.975C324.428 205.849 324.216 205.664 324.058 205.437C323.742 204.934 323.584 204.347 323.606 203.753C323.618 203.625 323.656 203.499 323.716 203.385C323.777 203.271 323.859 203.17 323.959 203.088C324.157 202.876 324.313 202.848 324.426 202.975C324.497 203.084 324.532 203.213 324.524 203.343C324.525 203.444 324.495 203.542 324.44 203.626L324.313 203.852C324.313 203.852 324.242 203.994 324.214 204.079C324.196 204.191 324.196 204.306 324.214 204.418C324.199 204.559 324.23 204.7 324.305 204.821C324.379 204.941 324.491 205.033 324.623 205.083C324.993 205.259 325.404 205.327 325.81 205.281L326.601 205.111L327.392 204.927C328.555 204.594 329.734 204.32 330.924 204.107C331.941 203.909 332.69 203.739 333.171 203.598C333.564 203.473 333.916 203.243 334.188 202.933C334.428 202.689 334.645 202.424 334.838 202.141C335.017 201.852 335.23 201.586 335.473 201.348L336.293 200.316C336.9 199.566 337.381 199.029 337.706 198.675C337.904 198.462 338.178 198.335 338.468 198.321C338.727 198.338 338.977 198.426 339.189 198.576C339.429 198.717 339.457 198.944 339.288 199.241C339.118 199.538 338.836 200.005 338.426 200.655C338.016 201.306 337.536 201.9 337.013 202.579L336.815 202.834C336.815 202.834 336.815 202.834 336.815 202.904C336.815 202.975 336.815 202.904 336.886 202.904C336.957 202.904 337.013 202.904 337.14 202.904C340.402 202.562 343.68 202.406 346.959 202.438C347.865 202.43 348.77 202.468 349.672 202.551C350.759 202.678 351.593 202.82 352.172 202.947C352.456 202.965 352.734 203.037 352.992 203.159C353.21 203.243 353.405 203.38 353.558 203.558C353.711 203.735 353.817 203.948 353.867 204.178C353.89 204.356 353.895 204.536 353.882 204.715Z" fill="white"/>
<path d="M335.374 221.86C334.889 221.853 334.409 221.752 333.962 221.563C333.386 221.299 332.875 220.913 332.464 220.431C332.106 219.999 331.915 219.451 331.927 218.889C331.948 218.174 332.179 217.48 332.591 216.895C333.391 215.72 334.456 214.751 335.699 214.066C336.087 213.831 336.539 213.725 336.991 213.763C337.443 213.801 337.871 213.981 338.214 214.278C338.426 214.427 338.585 214.64 338.666 214.886C338.73 214.994 338.769 215.115 338.779 215.24C338.78 215.341 338.758 215.441 338.714 215.532C338.67 215.622 338.605 215.702 338.525 215.763C337.85 216.411 337.101 216.976 336.293 217.447C335.545 217.862 334.716 218.108 333.863 218.168C333.738 218.162 333.614 218.185 333.499 218.234C333.384 218.283 333.281 218.357 333.199 218.451C333.073 218.73 333.019 219.037 333.043 219.342C333.031 219.568 333.071 219.794 333.159 220.002C333.247 220.211 333.381 220.396 333.552 220.544C333.956 220.854 334.457 221.009 334.965 220.983C336.313 220.913 337.619 220.488 338.751 219.752C340.149 218.934 341.408 217.898 342.481 216.683C342.648 216.557 342.841 216.47 343.046 216.428C343.244 216.428 343.272 216.612 343.046 216.98C342.863 217.411 342.615 217.812 342.311 218.168C341.602 218.976 340.801 219.698 339.924 220.318C339.024 220.908 338.03 221.339 336.985 221.591C336.462 221.75 335.921 221.841 335.374 221.86ZM335.827 216.329C336.077 216.174 336.318 216.004 336.547 215.82L337.465 215.155L337.564 214.957C337.564 214.815 337.465 214.745 337.268 214.745C337.033 214.764 336.806 214.836 336.604 214.957C335.652 215.505 334.801 216.214 334.089 217.05C334.709 216.924 335.299 216.679 335.827 216.329ZM338.44 208.195C338.656 208.221 338.855 208.321 339.005 208.478C339.089 208.543 339.158 208.624 339.209 208.716C339.26 208.809 339.291 208.911 339.302 209.016C339.302 209.195 339.253 209.371 339.161 209.525C338.666 210.325 338.098 211.078 337.465 211.774C337.397 211.862 337.312 211.934 337.215 211.988C337.118 212.041 337.011 212.074 336.9 212.085C336.806 212.094 336.711 212.081 336.622 212.047C336.534 212.012 336.455 211.958 336.392 211.887C336.335 211.823 336.304 211.74 336.304 211.654C336.304 211.568 336.335 211.485 336.392 211.421L336.9 210.543C336.999 210.416 337.197 210.119 337.494 209.681C337.756 209.278 337.969 208.846 338.129 208.393C338.142 208.346 338.167 208.303 338.202 208.268C338.237 208.233 338.28 208.208 338.327 208.195H338.44Z" fill="white"/>
</g>
<defs>
<clipPath id="clip0_79_1976">
<rect width="499" height="238" fill="white"/>
</clipPath>
</defs>
</svg>
