<svg width="300" height="143" viewBox="0 0 300 143" fill="none" xmlns="http://www.w3.org/2000/svg">
<g clip-path="url(#clip0_37_248)">
<path d="M190.051 80.7174C179.095 85.29 167.968 84.8141 157.181 79.8675C153.894 78.3546 152.442 75.1079 153.249 71.4617C153.656 69.8627 154.569 68.4384 155.852 67.4014C157.135 66.3643 158.718 65.7702 160.366 65.7077C164.053 65.6312 166.881 67.6626 167.747 71.1387C168.707 74.9209 167.195 79.638 161.581 81.0744C163.679 81.5588 165.76 82.1793 167.875 82.4853C172.577 83.3043 177.413 82.8133 181.855 81.0659C188.888 78.1676 193.279 72.8556 195.691 65.7672C197.537 60.2955 198.573 54.583 198.766 48.8112C198.927 44.4681 198.952 40.108 198.766 35.7648C198.562 28.8931 196.997 22.1302 194.162 15.8681C190.646 8.35474 185.006 3.22968 176.767 1.41934C171.756 0.331435 166.83 1.13036 161.776 2.9152C162.243 3.06819 162.473 3.15318 162.711 3.22118C164.426 3.68454 165.926 4.7313 166.954 6.18155C167.982 7.63179 168.472 9.39495 168.342 11.168C168.201 12.9592 167.428 14.6419 166.162 15.9155C164.895 17.1891 163.217 17.9706 161.428 18.1204C159.654 18.2567 157.89 17.7507 156.457 16.6946C155.024 15.6384 154.018 14.1024 153.623 12.3664C152.858 8.72869 154.005 5.09951 158.15 3.39116C184.947 -7.65787 210.02 9.50213 214.818 32.8581C219.371 55.1686 207.302 73.51 190.051 80.7174Z" fill="white"/>
<path d="M144.993 73.6375C144.975 75.0069 144.553 76.3405 143.781 77.4714C143.009 78.6022 141.921 79.4801 140.653 79.995C132.518 83.7958 123.353 84.7906 114.593 82.8236C105.833 80.8567 97.9719 76.0389 92.2397 69.1244C85.1561 60.7102 82.0475 51.0295 82.3872 40.091C82.8798 22.9565 94.5924 7.09683 110.942 1.95478C120.533 -1.10968 130.913 -0.559514 140.126 3.50165C144.229 5.2015 145.078 8.6012 144.551 12.1284C144.076 15.3836 140.984 17.9334 137.655 18.1459C135.982 18.238 134.327 17.7665 132.953 16.8066C131.58 15.8468 130.568 14.454 130.078 12.8508C129.78 11.8744 129.681 10.8482 129.786 9.8326C129.89 8.81704 130.197 7.83273 130.688 6.93767C131.178 6.0426 131.843 5.25491 132.643 4.621C133.443 3.9871 134.361 3.5198 135.344 3.24667L136.083 3.0427V2.61773C133.416 2.09928 130.758 1.35133 128.065 1.10485C115.622 -0.00854893 106.942 8.16774 103.324 17.126C100.966 23.1252 99.5836 29.4639 99.2299 35.9008C98.8346 41.9465 99.0052 48.0159 99.7395 54.0297C100.411 59.6222 101.625 65.0788 104.275 70.1273C108.233 77.6152 114.518 81.7203 122.961 82.6127C127.213 83.0745 131.515 82.5868 135.557 81.1849L136.219 80.9384C136.311 80.8854 136.396 80.8227 136.474 80.7514C129.679 79.468 128.626 72.0057 131.709 68.2915C132.718 67.0833 134.084 66.2266 135.61 65.8447C137.136 65.4629 138.744 65.5756 140.203 66.1667C141.678 66.7588 142.933 67.7966 143.792 69.1357C144.65 70.4747 145.07 72.0484 144.993 73.6375Z" fill="white"/>
<path d="M76.4333 58.4664C76.2634 65.7588 73.452 71.7848 66.9885 75.4649C54.1632 82.7913 38.5521 75.4649 35.5624 62.0531C35.3143 60.974 35.1833 59.8712 35.1717 58.7639C35.1717 43.0516 35.1717 27.3336 35.1717 11.61C35.1717 11.304 35.1717 10.9981 35.2142 10.6326H45.9245V12.205C45.9245 27.2827 45.9245 42.366 45.9245 57.455C45.8275 61.1693 46.1956 64.8812 47.0202 68.504C48.3537 73.7566 51.6661 77.0883 56.3631 77.4878C59.939 77.7818 63.5141 76.9113 66.5553 75.006C69.2947 73.4647 71.5863 71.2367 73.205 68.5411C74.8237 65.8454 75.7137 62.7748 75.7878 59.6308C76.0086 55.5682 75.8897 51.48 75.8982 47.4004C75.8982 35.6034 75.8982 23.8064 75.8982 12.0095C75.8982 11.525 75.9491 11.0321 75.9746 10.5476H76.3568C76.4175 10.9561 76.4572 11.3674 76.4757 11.78C76.4757 22.5061 76.4757 33.235 76.4757 43.9667C76.4672 48.8028 76.5437 53.6473 76.4333 58.4664Z" fill="white"/>
<path d="M269.534 9.88452L242.771 75.5583L243.28 75.7878C243.484 75.3713 243.705 74.9379 243.875 74.5299C248.167 64.0078 252.448 53.4801 256.717 42.9466C256.809 42.6136 257.019 42.3259 257.309 42.1379C257.599 41.9499 257.947 41.8748 258.288 41.9267C262.204 41.9267 266.119 41.9777 270.043 41.9267C270.42 41.8678 270.805 41.9544 271.121 42.1691C271.436 42.3837 271.658 42.7103 271.742 43.0826C275.819 53.6047 279.964 64.1098 284.049 74.6234C284.133 74.9772 284.345 75.2869 284.646 75.4914C284.946 75.696 285.312 75.7805 285.671 75.7283C288.916 75.6688 292.161 75.7283 295.405 75.7283C295.736 75.7283 296.059 75.6773 296.501 75.6433L269.534 9.88452ZM257.43 41.3913C259.698 35.7903 261.949 30.2063 264.336 24.3163C266.629 30.1893 268.803 35.7308 271.012 41.3913H257.43Z" fill="white"/>
<path d="M29.464 75.0485C29.464 75.2355 29.464 75.4309 29.464 75.6179H0.339722V10.6836H10.9736V75.0485H29.464Z" fill="white"/>
<path d="M232.519 10.6836H221.91V75.6179H232.519V10.6836Z" fill="white"/>
<path d="M154.863 51.7944L154.192 52.3894C154.319 52.0664 154.455 51.7519 154.582 51.429L154.863 51.7944Z" fill="white"/>
<path d="M158.43 60.3787C148.042 65.7927 134.24 62.5205 128.762 50.2476C125.297 42.4708 126.01 34.9489 131.268 28.0135C131.718 27.3416 132.295 26.7642 132.966 26.3137C133.221 26.2259 133.493 26.1971 133.761 26.2295C134.028 26.2618 134.285 26.3546 134.512 26.5006C135.013 26.8236 134.954 27.3506 134.512 27.92C132.261 30.8523 132.244 33.402 134.291 36.5468C134.552 36.9926 134.643 37.5181 134.546 38.0256C134.119 39.8116 134.389 41.6934 135.302 43.2867C135.625 43.6649 136.049 43.9422 136.525 44.0856C137.816 44.6551 138.173 45.3435 137.799 46.3124C138.062 46.7544 138.368 47.0604 138.411 47.3918C138.458 47.8668 138.397 48.3463 138.232 48.7942C137.833 49.9076 137.544 50.834 139.319 50.902C139.566 50.902 140.075 51.9729 139.956 52.4234C139.583 53.8598 140.483 53.8768 141.409 53.9957C141.332 52.5254 142.309 53.1458 143.023 53.1458C142.618 53.7421 142.252 54.3638 141.927 55.0072C141.715 55.4916 141.876 55.8571 142.555 55.7211C143.405 55.5086 143.931 55.7211 144.076 56.707C144.079 56.9401 144.138 57.169 144.247 57.3751C144.356 57.5812 144.512 57.7586 144.702 57.8928C144.893 58.0271 145.112 58.1143 145.343 58.1476C145.574 58.1808 145.809 58.1589 146.029 58.0839C147.204 57.8021 148.316 57.3035 149.308 56.6135C151.007 55.3046 152.586 53.8258 154.192 52.3639C153.911 53.0438 153.631 53.7323 153.342 54.4632C155.542 55.9376 157.301 57.9822 158.43 60.3787Z" fill="white"/>
<path d="M169.82 42.7258C169.497 42.2754 169.276 41.9779 169.064 41.6634C166.337 37.5243 162.43 35.9349 157.631 36.5639C154.795 36.9633 152.009 37.8133 149.138 38.1702C145.876 38.5867 142.564 38.7482 139.651 36.6829C138.217 35.7477 137.094 34.4076 136.423 32.8327C136.001 31.7583 135.952 30.573 136.285 29.4676C136.618 28.3621 137.313 27.4009 138.258 26.7387C138.687 26.4359 139.175 26.2277 139.691 26.1282C140.206 26.0286 140.737 26.0399 141.248 26.1613C141.759 26.2826 142.238 26.5113 142.654 26.8321C143.07 27.153 143.412 27.5586 143.66 28.0221C143.939 28.4513 144.055 28.9672 143.985 29.4748C143.914 29.9824 143.663 30.4475 143.277 30.7844C143.239 30.6751 143.219 30.5602 143.218 30.4444C143.371 29.2035 143.125 28.1071 141.893 27.5632C141.399 27.3663 140.858 27.3169 140.337 27.421C139.815 27.5251 139.335 27.7782 138.954 28.1496C138.466 28.5292 138.103 29.0459 137.911 29.6334C137.719 30.221 137.706 30.8527 137.875 31.4473C138.086 32.3582 138.512 33.2051 139.118 33.9166C139.724 34.6281 140.492 35.1833 141.358 35.5355C144.138 36.8559 147.32 37.0537 150.242 36.0879C153.359 35.0595 156.468 34.0821 159.831 34.3286C163.611 34.6091 166.915 35.765 169.276 38.9607C169.647 39.5053 169.889 40.1277 169.984 40.7803C170.078 41.4328 170.022 42.0983 169.82 42.7258Z" fill="white"/>
<path d="M165.955 53.8344C165.564 54.2169 165.25 54.6843 164.775 55.2538C162.286 49.3893 157.98 45.4881 152.569 42.5049C155.549 42.7236 158.355 43.9878 160.494 46.0746C162.464 47.8764 164.171 49.9757 166.023 51.9136C166.179 52.0234 166.305 52.1705 166.39 52.3414C166.475 52.5123 166.516 52.7017 166.509 52.8924C166.502 53.0831 166.448 53.2691 166.351 53.4336C166.255 53.5981 166.118 53.7359 165.955 53.8344Z" fill="white"/>
<path d="M166.575 29.7049C159.78 28.498 153.24 27.6396 146.777 30.1808C147.974 29.0419 150.956 27.7586 153.572 27.2316C156.876 26.6187 160.257 26.5441 163.585 27.0106C165.182 27.1976 165.547 28.6 166.575 29.7049Z" fill="white"/>
<path d="M168.885 47.4937C165.584 44.1727 161.436 41.8209 156.893 40.6943C161.212 40.8466 165.345 42.4926 168.588 45.3519C168.768 45.4571 168.921 45.6016 169.037 45.7746C169.152 45.9476 169.227 46.1446 169.256 46.3507C169.284 46.5569 169.266 46.7668 169.202 46.9648C169.138 47.1628 169.029 47.3436 168.885 47.4937Z" fill="white"/>
<path d="M152.433 20.3643C149.775 21.6647 147.473 23.2625 145.987 25.8038L145.749 25.5998C146.598 24.189 147.312 22.7101 148.246 21.3502C149.452 19.5484 149.996 19.4804 152.433 20.3643Z" fill="white"/>
<path d="M140.084 21.5371L135.642 27.5716C135.438 23.9934 136.406 22.6505 140.084 21.5371Z" fill="white"/>
<path d="M142.955 42.4453C142.87 44.5106 141.757 45.488 139.557 45.386L140.534 44.5361L139.192 43.7712L139.404 43.6097C140.041 43.7786 140.702 43.8333 141.358 43.7712C141.901 43.5672 142.352 42.9468 142.955 42.4453Z" fill="white"/>
<path d="M141.315 40.3715C139.976 40.8912 138.867 41.8742 138.19 43.1422C138.028 43.4057 137.502 43.4567 137.154 43.6097C137.154 43.2187 137.077 42.7173 137.281 42.4453C137.717 41.7805 138.318 41.2401 139.025 40.8767C139.732 40.5133 140.521 40.3392 141.315 40.3715Z" fill="white"/>
<path d="M0 91.1716H6.25973V91.8941H0.806883V95.2938H5.30846V95.9992H0.806883V100.07H6.6844V100.767H0V91.1716Z" fill="white"/>
<path d="M21.4546 98.9654C21.7445 99.3578 22.1328 99.6666 22.5802 99.8606C23.0277 100.055 23.5184 100.127 24.0027 100.07C25.1918 100.07 26.4233 99.2204 26.4233 98.1835C26.4233 95.2002 20.7751 97.2571 20.7751 93.7214C20.7751 92.1575 22.3974 91.1716 24.0027 91.1716C24.5778 91.1427 25.1502 91.2666 25.6619 91.5309C26.1736 91.7951 26.6063 92.1902 26.916 92.676L26.194 92.9479C25.9545 92.5935 25.6258 92.3087 25.241 92.1222C24.8562 91.9356 24.4291 91.854 24.0027 91.8855C22.8306 91.8855 21.5905 92.5995 21.5905 93.7554C21.5905 96.5261 27.2982 94.4523 27.2982 98.2175C27.2982 99.7898 25.5995 100.767 24.0027 100.767C23.3983 100.821 22.7902 100.72 22.2358 100.473C21.6814 100.226 21.1992 99.8418 20.8346 99.3564L21.4546 98.9654Z" fill="white"/>
<path d="M48.0734 91.1716V91.8941H45.1091V100.733H44.3108V91.8941H41.2786V91.1886L48.0734 91.1716Z" fill="white"/>
<path d="M63.5656 91.1716V95.2937H69.3072V89.9392H70.1565V102.943H69.3072V95.9992H63.5401V100.699H62.6907V91.1716H63.5656Z" fill="white"/>
<path d="M84.706 91.1716H90.9742V91.8941H85.5214V95.2938H90.023V95.9992H85.5214V100.07H91.3904V100.767H84.6975L84.706 91.1716Z" fill="white"/>
<path d="M112.624 91.1716V91.8941H109.66V100.733H108.862V91.8941H105.872V91.1886L112.624 91.1716Z" fill="white"/>
<path d="M127.378 91.1716H128.184V100.742H127.378V91.1716Z" fill="white"/>
<path d="M142.759 91.1631H143.609V96.5601L149.045 91.1716H150.089L146.284 94.9962L151.983 102.782H151.007L145.707 95.5317L143.609 97.5715V100.733H142.759V91.1631Z" fill="white"/>
<path d="M186.297 91.1121C187.719 91.1216 189.086 91.6645 190.128 92.6334L189.542 93.1094C189.114 92.6883 188.607 92.357 188.05 92.1351C187.493 91.9133 186.897 91.8053 186.297 91.8175C185.722 91.7589 185.14 91.8218 184.59 92.0021C184.041 92.1823 183.535 92.476 183.106 92.8641C182.676 93.2521 182.333 93.726 182.098 94.255C181.864 94.7841 181.742 95.3565 181.742 95.9354C181.742 96.5143 181.864 97.0867 182.098 97.6158C182.333 98.1448 182.676 98.6187 183.106 99.0067C183.535 99.3948 184.041 99.6884 184.59 99.8687C185.14 100.049 185.722 100.112 186.297 100.053C187.539 100.019 188.729 99.5425 189.652 98.7104L190.221 99.2034C189.163 100.209 187.756 100.764 186.297 100.75C183.384 100.75 180.963 98.6169 180.963 95.9481C180.963 93.2794 183.375 91.1121 186.297 91.1121Z" fill="white"/>
<path d="M204.805 91.1716H211.073V91.8941H205.611V95.2938H210.121V95.9992H205.611V100.07H211.497V100.767H204.805V91.1716Z" fill="white"/>
<path d="M225.868 91.1715H226.616L232.442 99.2033V88.5623H233.232V100.733H232.612L226.667 92.5484V100.733H225.86L225.868 91.1715Z" fill="white"/>
<path d="M254.696 91.1716V91.8941H251.731V100.733H250.924V91.8941H247.943V91.1886L254.696 91.1716Z" fill="white"/>
<path d="M269.423 91.1716H275.7V91.8941H270.247V95.2938H274.749V95.9992H270.247V100.07H276.125V100.767H269.44L269.423 91.1716Z" fill="white"/>
<path d="M291.294 100.733H290.445V91.1714H294.692C295.513 91.1274 296.319 91.4114 296.932 91.9611C297.545 92.5108 297.915 93.2813 297.962 94.1037C297.945 94.7057 297.744 95.288 297.385 95.7715C297.027 96.2551 296.528 96.6164 295.957 96.8065C295.489 96.9633 294.998 97.0409 294.505 97.0359L299.966 102.331H298.862L292.747 96.3815H294.692C295.001 96.4085 295.313 96.3709 295.608 96.2708C295.902 96.1708 296.172 96.0105 296.402 95.8003C296.631 95.5901 296.814 95.3345 296.939 95.0498C297.064 94.765 297.129 94.4573 297.129 94.1462C297.129 93.8351 297.064 93.5274 296.939 93.2426C296.814 92.9579 296.631 92.7022 296.402 92.492C296.172 92.2818 295.902 92.1216 295.608 92.0216C295.313 91.9215 295.001 91.8838 294.692 91.9109H291.294V100.733Z" fill="white"/>
<path d="M86.668 137.229C86.6306 137.133 86.6306 137.027 86.668 136.931C86.9115 136.28 87.1663 135.676 87.4324 135.121L87.9845 133.923C88.0129 133.851 88.0356 133.777 88.0525 133.702C88.0525 133.625 87.976 133.54 87.8316 133.455C87.6797 133.382 87.5371 133.291 87.4069 133.183C87.3632 133.137 87.3107 133.099 87.2524 133.073C87.1941 133.047 87.1311 133.032 87.0672 133.03L86.8209 133.09C86.7419 133.121 86.659 133.141 86.5746 133.149C86.4787 133.144 86.3842 133.124 86.2943 133.09L86.082 132.996C86.0654 132.958 86.0512 132.918 86.0395 132.877C86.0354 132.869 86.0333 132.859 86.0333 132.849C86.0333 132.839 86.0354 132.83 86.0394 132.821C86.0434 132.812 86.0493 132.804 86.0567 132.798C86.064 132.791 86.0726 132.787 86.082 132.784C86.2181 132.704 86.3636 132.641 86.5151 132.597C86.6144 132.567 86.7039 132.511 86.7741 132.435C86.8443 132.359 86.8928 132.265 86.9143 132.163C86.9188 132.133 86.9294 132.104 86.9455 132.077C86.9615 132.051 86.9827 132.028 87.0077 132.01C87.0077 132.01 87.0927 132.01 87.1606 132.078C87.2334 132.155 87.3277 132.207 87.4308 132.228C87.534 132.249 87.6412 132.239 87.7382 132.197L88.5111 131.985C88.6318 131.952 88.7439 131.894 88.8393 131.813C88.9348 131.732 89.0112 131.631 89.0632 131.517L89.9125 129.954C90.2778 129.257 90.5496 128.73 90.7109 128.381C90.8365 128.125 90.9754 127.875 91.1271 127.633L91.4499 127.089L91.5688 126.877C91.5688 126.749 91.5688 126.69 91.4499 126.69C91.337 126.677 91.223 126.677 91.1101 126.69C90.8969 126.73 90.6813 126.755 90.4646 126.766L89.7851 126.809C89.1736 126.881 88.5578 126.913 87.942 126.902H87.0247C86.6621 126.892 86.3011 126.849 85.9461 126.775C85.738 126.746 85.5384 126.673 85.36 126.562C85.2634 126.513 85.1814 126.439 85.1219 126.348C85.0623 126.257 85.0273 126.152 85.0203 126.044C85.035 125.938 85.0577 125.832 85.0882 125.729C85.2511 125.317 85.4775 124.933 85.7592 124.591C86.0743 124.182 86.4301 123.806 86.8209 123.469L87.6023 122.806C88.2607 122.265 88.9498 121.763 89.6662 121.301C89.7851 121.225 90.3287 120.91 91.297 120.383C92.7987 119.525 94.3838 118.821 96.0279 118.284C97.217 117.919 98.1173 117.664 98.7373 117.519C99.9917 117.193 101.28 117.016 102.576 116.992C103.49 116.975 104.398 117.134 105.252 117.46C105.744 117.625 106.173 117.936 106.483 118.352C106.808 118.742 106.991 119.23 107.002 119.738C106.996 119.988 106.944 120.236 106.849 120.468C106.682 120.869 106.459 121.244 106.186 121.582L105.685 122.228C105.357 122.655 104.984 123.045 104.572 123.392C104.148 123.766 103.884 123.979 103.808 124.038C102.811 124.849 101.773 125.61 100.699 126.316L99.9349 126.843L98.6099 127.744C97.9127 128.229 97.1834 128.666 96.4271 129.053L94.2188 130.226C93.6412 130.515 92.9872 130.829 92.2483 131.178L91.297 131.636C91.1037 131.717 90.9341 131.846 90.8044 132.01C90.7194 132.129 90.6175 132.299 90.4986 132.503C90.3948 132.674 90.2813 132.839 90.1589 132.996L90.0994 133.115C90.0994 133.217 90.1673 133.277 90.3117 133.302C90.5213 133.368 90.7381 133.408 90.9572 133.421L91.5093 133.481C92.2022 133.569 92.9002 133.612 93.5987 133.608C94.9254 133.609 96.2486 133.475 97.5482 133.209C98.6738 132.987 99.779 132.671 100.852 132.265C101.499 132.052 102.12 131.767 102.704 131.415C102.825 131.332 102.96 131.271 103.103 131.237C103.131 131.236 103.159 131.24 103.186 131.251C103.212 131.261 103.236 131.277 103.256 131.296C103.27 131.319 103.278 131.346 103.278 131.373C103.278 131.4 103.27 131.427 103.256 131.449C103.203 131.605 103.094 131.736 102.95 131.815C101.62 132.664 100.159 133.29 98.6269 133.668C96.8656 134.123 95.0527 134.349 93.2335 134.339C92.0957 134.336 90.9599 134.245 89.8361 134.067H89.7172C89.6215 134.063 89.5266 134.087 89.4438 134.135C89.361 134.183 89.2938 134.254 89.25 134.339L88.6725 135.189C88.2954 135.69 87.9655 136.225 87.6872 136.787L87.4069 137.339C87.305 137.501 87.2031 137.586 87.1012 137.586C87.0112 137.582 86.925 137.549 86.8549 137.492C86.7735 137.42 86.7096 137.33 86.668 137.229ZM91.7641 130.625L91.934 130.566L92.2143 130.447C92.7612 130.263 93.29 130.03 93.7941 129.75C94.2952 129.478 94.9577 129.087 95.7816 128.602L96.6309 128.109C97.82 127.37 98.7033 126.8 99.2809 126.409C99.4847 126.282 99.7141 126.129 99.9689 125.942C100.224 125.755 100.529 125.568 100.878 125.364C101.84 124.757 102.757 124.081 103.621 123.341C104.257 122.789 104.853 122.193 105.405 121.556C105.8 121.123 106.113 120.622 106.331 120.077C106.409 119.895 106.449 119.698 106.449 119.5C106.45 119.235 106.375 118.975 106.233 118.751C106.092 118.527 105.89 118.347 105.651 118.233C105.096 117.941 104.491 117.753 103.867 117.681C103.633 117.668 103.397 117.668 103.162 117.681H101.566C101.1 117.684 100.636 117.735 100.181 117.834C99.6886 117.936 99.0516 118.089 98.2702 118.293C96.9521 118.651 95.6584 119.094 94.3971 119.619C92.0983 120.552 89.9424 121.805 87.993 123.341C87.3714 123.827 86.8222 124.4 86.3622 125.041C86.1641 125.31 85.988 125.594 85.8356 125.891C85.825 125.953 85.825 126.016 85.8356 126.078C85.8356 126.205 85.9291 126.282 86.1074 126.324H86.2943H87.6108C87.8401 126.324 88.1799 126.324 88.63 126.256C89.0802 126.188 89.5813 126.18 90.3287 126.137C90.5437 126.125 90.7592 126.125 90.9742 126.137C91.1915 126.131 91.4087 126.154 91.6197 126.205C91.6815 126.217 91.7448 126.217 91.8066 126.205C91.8879 126.203 91.9665 126.175 92.0317 126.127C92.097 126.078 92.1459 126.011 92.1718 125.933C92.1898 125.917 92.2044 125.898 92.2146 125.876C92.2248 125.854 92.2305 125.83 92.2313 125.806L93.7431 123.163L94.4481 121.743L94.5415 121.412V121.344H94.4905L94.3971 121.395L94.3377 121.437C94.0028 121.744 93.6286 122.004 93.225 122.211C92.8409 122.388 92.4881 122.626 92.1803 122.916C92.1614 122.938 92.1377 122.954 92.1111 122.965C92.0845 122.975 92.0558 122.979 92.0274 122.976C92.0274 122.976 91.968 122.976 91.9085 122.976V122.882C92.064 122.672 92.2374 122.476 92.4266 122.296L92.9872 121.837C93.0815 121.735 93.1837 121.642 93.293 121.556C93.4251 121.445 93.5473 121.323 93.6582 121.191C93.9045 120.922 94.191 120.692 94.5075 120.511L94.7793 120.358C94.8326 120.347 94.8874 120.347 94.9407 120.358C94.9912 120.348 95.0431 120.348 95.0936 120.358L95.2125 120.417C95.3217 120.467 95.4113 120.551 95.4667 120.658C95.5221 120.764 95.5403 120.886 95.5183 121.004L95.3399 121.556C95.1771 122.039 94.9755 122.508 94.7369 122.959C94.499 123.401 94.1678 123.987 93.7346 124.727L92.7834 126.358C92.7211 126.472 92.6808 126.596 92.6644 126.724C92.6713 126.813 92.7037 126.899 92.7579 126.97C92.838 127.143 92.8787 127.332 92.8768 127.523C92.8714 127.68 92.8515 127.837 92.8173 127.99C92.7613 128.2 92.6874 128.405 92.5965 128.602L92.2652 129.342L92.0614 129.801C91.968 130.005 91.883 130.183 91.7981 130.328C91.7648 130.394 91.7446 130.466 91.7387 130.54C91.6622 130.625 91.7132 130.668 91.7981 130.625H91.7641ZM89.5388 132.563C89.5739 132.519 89.5947 132.466 89.5983 132.41L89.5388 132.35C89.4875 132.37 89.4427 132.403 89.4097 132.447C89.3766 132.49 89.3566 132.542 89.352 132.597C89.352 132.639 89.352 132.656 89.4199 132.656C89.4879 132.656 89.5303 132.631 89.5728 132.563H89.5388ZM90.5241 130.94L91.0422 129.954C91.3904 129.274 91.7047 128.619 91.968 127.982C91.9613 127.948 91.9613 127.913 91.968 127.88C91.9848 127.833 91.9848 127.782 91.968 127.735H91.8746C91.6707 128.041 91.5603 128.22 91.5348 128.262L90.9572 129.333C90.644 129.884 90.3605 130.452 90.1079 131.033L90.0145 131.245C90.0145 131.305 90.0145 131.339 90.0145 131.339C90.0446 131.35 90.0777 131.35 90.1079 131.339C90.2984 131.267 90.4535 131.124 90.5411 130.94H90.5241Z" fill="white"/>
<path d="M104.793 133.302C104.501 133.298 104.213 133.238 103.944 133.124C103.595 132.965 103.286 132.733 103.035 132.444C102.823 132.182 102.709 131.854 102.712 131.517C102.728 131.087 102.87 130.67 103.12 130.319C103.601 129.613 104.241 129.031 104.989 128.619C105.194 128.497 105.429 128.433 105.668 128.432C105.978 128.438 106.278 128.549 106.517 128.747C106.645 128.836 106.74 128.964 106.789 129.112C106.827 129.177 106.851 129.25 106.857 129.325C106.856 129.386 106.841 129.446 106.813 129.501C106.785 129.555 106.745 129.603 106.696 129.639C106.295 130.03 105.847 130.37 105.362 130.65C104.913 130.9 104.414 131.048 103.901 131.084C103.826 131.08 103.751 131.094 103.682 131.123C103.613 131.153 103.552 131.197 103.502 131.254C103.426 131.422 103.394 131.606 103.409 131.789C103.401 131.925 103.425 132.061 103.478 132.186C103.531 132.311 103.612 132.423 103.714 132.512C103.957 132.699 104.258 132.792 104.564 132.775C105.374 132.733 106.159 132.478 106.84 132.036C107.678 131.54 108.434 130.918 109.082 130.191C109.183 130.116 109.299 130.064 109.422 130.039C109.541 130.039 109.558 130.149 109.422 130.37C109.312 130.629 109.163 130.87 108.98 131.084C108.554 131.569 108.072 132.003 107.545 132.376C107.004 132.729 106.406 132.987 105.778 133.141C105.459 133.238 105.127 133.292 104.793 133.302ZM105.065 129.979C105.216 129.886 105.36 129.784 105.498 129.673L106.05 129.274L106.11 129.155C106.11 129.07 106.05 129.027 105.931 129.027C105.787 129.038 105.648 129.082 105.524 129.155C104.952 129.482 104.443 129.908 104.02 130.412C104.393 130.336 104.748 130.189 105.065 129.979Z" fill="white"/>
<path d="M109.983 134.815C109.757 134.813 109.535 134.755 109.337 134.645C109.144 134.535 108.969 134.394 108.819 134.229C108.626 133.981 108.497 133.689 108.445 133.379C108.39 133.073 108.37 132.762 108.386 132.452C108.392 131.779 108.475 131.109 108.632 130.455C108.773 129.828 108.958 129.212 109.184 128.611C109.388 128.075 109.533 127.701 109.618 127.497C110.069 126.308 110.59 125.148 111.18 124.021C111.987 122.508 112.641 121.361 113.151 120.621C113.609 119.911 114.157 119.262 114.782 118.692C114.972 118.504 115.221 118.387 115.487 118.361C115.675 118.369 115.858 118.431 116.013 118.539C116.082 118.629 116.115 118.741 116.107 118.854C116.103 119.151 116.028 119.442 115.886 119.703C115.042 121.534 114.079 123.406 112.998 125.321C111.946 127.179 110.798 128.981 109.558 130.719C109.486 130.786 109.433 130.871 109.405 130.965C109.194 131.549 109.08 132.163 109.065 132.784C109.057 133.205 109.141 133.623 109.312 134.008C109.456 134.28 109.609 134.407 109.77 134.407C109.909 134.389 110.044 134.349 110.17 134.288C110.296 134.227 110.419 134.156 110.535 134.076C110.824 133.863 111.384 133.404 112.123 132.69C112.763 132.103 113.364 131.476 113.924 130.812C114.003 130.708 114.094 130.614 114.196 130.532C114.323 130.455 114.408 130.472 114.476 130.6V130.685C114.481 130.8 114.442 130.913 114.365 130.999L114.23 131.152C114.145 131.271 113.856 131.611 113.38 132.163C112.932 132.73 112.449 133.269 111.936 133.778C111.565 134.152 111.141 134.469 110.679 134.722C110.458 134.807 110.219 134.839 109.983 134.815ZM112.905 123.911C113.783 122.432 114.555 120.893 115.215 119.304C114.021 120.575 113.03 122.023 112.276 123.596C111.425 125.155 110.69 126.774 110.076 128.441C111.108 126.988 112.052 125.475 112.905 123.911Z" fill="white"/>
<path d="M115.487 133.302C115.194 133.299 114.906 133.239 114.637 133.124C114.287 132.968 113.976 132.736 113.728 132.444C113.516 132.182 113.402 131.854 113.406 131.517C113.422 131.088 113.561 130.672 113.805 130.319C114.289 129.613 114.932 129.031 115.682 128.619C115.888 128.497 116.122 128.433 116.361 128.432C116.672 128.436 116.972 128.547 117.211 128.747C117.343 128.833 117.442 128.962 117.491 129.112C117.527 129.177 117.548 129.25 117.55 129.325C117.551 129.385 117.538 129.445 117.511 129.5C117.485 129.554 117.446 129.602 117.398 129.639C116.995 130.028 116.547 130.367 116.064 130.65C115.614 130.899 115.116 131.046 114.603 131.084C114.528 131.08 114.453 131.093 114.384 131.123C114.315 131.152 114.253 131.197 114.204 131.254C114.124 131.42 114.091 131.606 114.111 131.789C114.103 131.925 114.127 132.061 114.18 132.186C114.233 132.311 114.314 132.423 114.416 132.512C114.658 132.7 114.96 132.793 115.266 132.775C116.076 132.734 116.862 132.479 117.542 132.036C118.383 131.544 119.14 130.922 119.784 130.191C119.886 130.117 120.001 130.065 120.124 130.039C120.251 130.039 120.26 130.149 120.175 130.37C120.062 130.629 119.91 130.87 119.725 131.084C119.301 131.569 118.822 132.003 118.298 132.376C117.756 132.729 117.159 132.987 116.531 133.141C116.192 133.242 115.84 133.296 115.487 133.302ZM115.767 129.979C115.886 129.903 116.03 129.801 116.191 129.673L116.752 129.274L116.812 129.155C116.812 129.07 116.752 129.027 116.625 129.027C116.484 129.038 116.347 129.082 116.225 129.155C115.654 129.482 115.145 129.908 114.722 130.412C115.094 130.333 115.448 130.186 115.767 129.979Z" fill="white"/>
<path d="M120.133 133.336C119.982 133.337 119.833 133.305 119.695 133.244C119.557 133.182 119.434 133.092 119.334 132.979C119.221 132.87 119.132 132.737 119.073 132.591C119.014 132.444 118.988 132.287 118.994 132.129C118.991 131.568 119.116 131.012 119.36 130.506L120.005 129.333C120.083 129.217 120.151 129.095 120.209 128.968C120.265 128.816 120.355 128.679 120.472 128.568C120.534 128.491 120.617 128.432 120.71 128.398C120.75 128.392 120.791 128.396 120.83 128.41C120.868 128.423 120.903 128.445 120.931 128.475C121.01 128.529 121.074 128.602 121.118 128.687C121.13 128.786 121.106 128.886 121.05 128.968L120.311 130.226C120.074 130.647 119.88 131.091 119.733 131.551C119.697 131.734 119.674 131.918 119.665 132.104C119.665 132.529 119.75 132.75 119.912 132.75C120.028 132.728 120.137 132.675 120.226 132.597C120.846 132.169 121.416 131.673 121.925 131.118C122.713 130.279 123.453 129.397 124.141 128.475L124.787 127.625C124.889 127.48 124.965 127.412 125.033 127.412C125.075 127.415 125.116 127.427 125.153 127.448C125.19 127.468 125.221 127.497 125.246 127.531C125.305 127.613 125.338 127.711 125.339 127.812C125.323 127.956 125.27 128.093 125.186 128.211C124.592 129.061 124.065 129.733 123.598 130.319C123.139 130.9 122.642 131.451 122.112 131.968C121.94 132.112 121.775 132.266 121.619 132.427C121.445 132.602 121.26 132.766 121.067 132.92C120.947 133.009 120.822 133.092 120.693 133.166C120.528 133.28 120.332 133.339 120.133 133.336Z" fill="white"/>
<path d="M126.613 133.302C126.321 133.298 126.033 133.238 125.764 133.124C125.415 132.965 125.105 132.733 124.855 132.444C124.643 132.182 124.528 131.854 124.532 131.517C124.549 131.088 124.687 130.672 124.931 130.319C125.417 129.615 126.06 129.033 126.808 128.619C127.014 128.497 127.249 128.433 127.488 128.432C127.799 128.436 128.099 128.547 128.337 128.747C128.47 128.833 128.569 128.962 128.618 129.112C128.654 129.177 128.674 129.25 128.677 129.325C128.678 129.385 128.664 129.445 128.638 129.5C128.611 129.554 128.572 129.602 128.524 129.639C128.123 130.03 127.675 130.37 127.191 130.65C126.741 130.9 126.242 131.048 125.73 131.084C125.655 131.08 125.58 131.094 125.511 131.123C125.442 131.153 125.38 131.197 125.331 131.254C125.255 131.422 125.222 131.606 125.237 131.789C125.23 131.925 125.253 132.061 125.306 132.186C125.359 132.311 125.44 132.423 125.543 132.512C125.785 132.7 126.087 132.793 126.392 132.775C127.203 132.734 127.988 132.479 128.668 132.036C129.51 131.542 130.27 130.92 130.919 130.191C131.017 130.117 131.13 130.065 131.25 130.039C131.375 130.039 131.392 130.149 131.301 130.37C131.188 130.629 131.036 130.87 130.851 131.084C130.43 131.571 129.951 132.005 129.424 132.376C128.883 132.729 128.286 132.987 127.658 133.141C127.319 133.242 126.967 133.297 126.613 133.302ZM126.893 129.979L127.326 129.673L127.913 129.291L127.972 129.172C127.972 129.087 127.913 129.044 127.785 129.044C127.644 129.057 127.508 129.1 127.386 129.172C126.815 129.499 126.306 129.925 125.883 130.429C126.245 130.344 126.588 130.191 126.893 129.979Z" fill="white"/>
<path d="M130.673 133.855C130.554 133.86 130.435 133.835 130.328 133.781C130.221 133.728 130.129 133.648 130.061 133.549C129.984 133.466 129.939 133.357 129.934 133.243C129.934 133.141 130.011 133.03 130.155 132.903C130.453 132.653 130.771 132.429 131.106 132.232C131.675 131.841 132.227 131.441 132.745 131.042C133.43 130.514 134.082 129.947 134.699 129.342C134.727 129.319 134.75 129.291 134.766 129.259C134.783 129.226 134.791 129.191 134.792 129.155C134.792 129.07 134.724 129.002 134.58 128.942C134.349 128.83 134.098 128.767 133.841 128.755C133.688 128.743 133.535 128.743 133.382 128.755C132.785 128.759 132.199 128.92 131.684 129.223C131.553 129.242 131.434 129.305 131.344 129.401C131.327 129.431 131.302 129.456 131.272 129.474C131.243 129.491 131.209 129.5 131.174 129.5C131.14 129.5 131.106 129.491 131.076 129.474C131.046 129.456 131.021 129.431 131.004 129.401C130.928 129.314 130.876 129.209 130.851 129.095C130.851 129.01 130.936 128.917 131.098 128.815C131.72 128.44 132.435 128.249 133.162 128.262C133.571 128.279 133.98 128.318 134.385 128.381C134.719 128.466 135.008 128.676 135.192 128.968C135.281 129.096 135.334 129.245 135.344 129.401C135.335 129.547 135.282 129.686 135.192 129.801C135.106 129.938 135 130.061 134.877 130.166C134.48 130.569 134.061 130.95 133.62 131.305C133.17 131.679 132.329 132.283 131.072 133.124C130.995 133.165 130.93 133.227 130.885 133.302H130.979C131.074 133.304 131.169 133.29 131.259 133.26C131.327 133.235 131.399 133.22 131.471 133.217C131.718 133.175 132.108 133.09 132.644 132.971C133.441 132.779 134.254 132.654 135.073 132.597C135.272 132.595 135.47 132.627 135.659 132.691C135.729 132.728 135.79 132.78 135.837 132.843C135.845 132.864 135.848 132.885 135.847 132.907C135.845 132.929 135.837 132.949 135.826 132.968C135.814 132.986 135.798 133.001 135.78 133.012C135.761 133.023 135.74 133.029 135.718 133.03H135.659C134.996 133.132 134.138 133.302 133.068 133.523C131.743 133.795 131.013 133.931 130.885 133.957L130.673 133.855Z" fill="white"/>
<path d="M141.061 133.336C140.91 133.336 140.761 133.305 140.623 133.243C140.486 133.182 140.363 133.092 140.262 132.979C140.151 132.868 140.065 132.735 140.008 132.589C139.951 132.443 139.925 132.286 139.931 132.129C139.928 131.568 140.052 131.012 140.296 130.506C140.644 129.869 140.857 129.478 140.942 129.333C141.019 129.217 141.088 129.095 141.145 128.968C141.202 128.818 141.289 128.682 141.4 128.568C141.465 128.49 141.55 128.431 141.647 128.398C141.687 128.392 141.728 128.396 141.766 128.41C141.805 128.423 141.839 128.445 141.867 128.475C141.947 128.526 142.009 128.6 142.046 128.687C142.046 128.747 142.046 128.84 141.986 128.968L141.247 130.226C141.011 130.648 140.814 131.092 140.661 131.551C140.631 131.734 140.611 131.919 140.602 132.104C140.602 132.529 140.687 132.75 140.848 132.75C140.961 132.725 141.067 132.673 141.154 132.597C141.776 132.172 142.346 131.675 142.853 131.118C143.64 130.281 144.378 129.399 145.061 128.475L145.707 127.625C145.808 127.48 145.893 127.412 145.953 127.412C145.996 127.414 146.039 127.426 146.077 127.447C146.115 127.467 146.148 127.496 146.174 127.531C146.233 127.613 146.266 127.711 146.267 127.812C146.253 127.958 146.197 128.096 146.106 128.211C145.511 129.061 144.985 129.733 144.526 130.319C144.067 130.9 143.57 131.451 143.04 131.968C142.868 132.112 142.703 132.266 142.547 132.427C142.37 132.602 142.183 132.767 141.986 132.92C141.871 133.011 141.749 133.093 141.621 133.166C141.456 133.279 141.26 133.338 141.061 133.336Z" fill="white"/>
<path d="M167.475 121.803C167.473 121.826 167.465 121.849 167.453 121.869C167.442 121.89 167.426 121.907 167.408 121.922C167.391 121.936 167.37 121.943 167.348 121.943C167.326 121.943 167.305 121.936 167.289 121.922C167.193 121.912 167.098 121.889 167.008 121.854C166.742 121.728 166.453 121.656 166.159 121.641C165.669 121.581 165.175 121.549 164.681 121.548C164.494 121.548 164.205 121.548 163.832 121.548C163.458 121.548 163.101 121.548 162.813 121.548L161.887 121.641H161.037C160.63 121.641 160.188 121.701 159.636 121.769L158.549 121.888L157.699 121.981H157.487C157.316 121.99 157.151 122.047 157.01 122.144C156.869 122.242 156.758 122.377 156.689 122.534L156.306 123.052C156.171 123.218 156.062 123.405 155.984 123.605C155.695 124.14 155.491 124.548 155.364 124.837L154.905 125.789L154.489 126.639C154.336 126.945 154.166 127.31 153.979 127.718C153.677 128.381 153.41 129.059 153.181 129.75C153.079 130.098 152.935 130.506 152.756 130.974C152.578 131.441 152.416 131.9 152.17 132.673L151.924 133.523C151.796 133.889 151.635 134.441 151.431 135.181C151.061 136.613 150.814 138.075 150.692 139.549C150.692 139.881 150.692 140.17 150.692 140.399C150.692 140.629 150.692 140.867 150.692 141.028V141.768C150.678 141.921 150.696 142.076 150.744 142.222C150.792 142.368 150.87 142.503 150.973 142.618C151.049 142.703 151.049 142.771 150.973 142.83C150.896 142.89 150.862 142.983 150.726 142.983C150.622 142.977 150.521 142.943 150.435 142.884C150.348 142.826 150.279 142.746 150.234 142.652C150.147 142.488 150.095 142.309 150.081 142.125C150.009 141.635 149.967 141.141 149.953 140.646C149.972 139.427 150.097 138.213 150.327 137.017C150.488 136.167 150.675 135.385 150.879 134.654C151.1 133.804 151.525 132.444 152.136 130.685L152.722 129.24C152.818 128.95 152.932 128.666 153.062 128.39L153.274 127.769C153.346 127.537 153.44 127.312 153.555 127.098L153.801 126.545C153.66 126.581 153.538 126.669 153.461 126.792C152.942 127.309 152.373 127.773 151.762 128.177C151.325 128.436 150.874 128.671 150.412 128.883C150.109 129.001 149.786 129.061 149.461 129.061C149.284 129.055 149.108 129.035 148.934 129.002C148.832 128.992 148.73 128.992 148.628 129.002C148.595 128.997 148.561 129.003 148.53 129.018C148.5 129.033 148.475 129.057 148.458 129.087C148.412 129.206 148.386 129.333 148.382 129.461C148.331 130.195 148.18 130.918 147.932 131.611C147.746 132.241 147.495 132.851 147.184 133.43C147.102 133.582 146.979 133.709 146.829 133.796C146.679 133.883 146.508 133.927 146.335 133.923C146.125 133.922 145.922 133.844 145.766 133.702C145.596 133.562 145.481 133.366 145.443 133.149C145.364 132.849 145.364 132.532 145.443 132.231C145.592 131.532 145.832 130.854 146.157 130.217C146.502 129.412 146.89 128.626 147.32 127.863C147.373 127.737 147.448 127.622 147.541 127.523C147.574 127.483 147.616 127.451 147.663 127.429C147.71 127.407 147.761 127.396 147.813 127.395C147.872 127.391 147.931 127.402 147.985 127.427C148.039 127.452 148.085 127.491 148.119 127.54C148.147 127.594 148.162 127.653 148.162 127.714C148.162 127.775 148.147 127.835 148.119 127.888L148.059 128.135C148.059 128.168 148.068 128.2 148.086 128.227C148.105 128.255 148.131 128.276 148.161 128.288L148.306 128.381C148.549 128.479 148.808 128.531 149.07 128.534C149.89 128.48 150.676 128.184 151.329 127.684C152.205 127.084 152.996 126.37 153.682 125.56C153.988 125.211 154.412 124.667 154.939 123.928C155.121 123.705 155.277 123.462 155.406 123.205C155.551 122.925 155.652 122.729 155.712 122.602C155.726 122.563 155.726 122.521 155.712 122.483C155.712 122.398 155.635 122.355 155.491 122.355C155.409 122.345 155.327 122.345 155.245 122.355C153.601 122.635 151.977 123.027 150.386 123.528C150.247 123.567 150.105 123.595 149.962 123.613H149.996C149.937 123.615 149.878 123.604 149.823 123.581C149.769 123.557 149.721 123.522 149.682 123.477C149.604 123.388 149.561 123.273 149.563 123.154C149.563 123.095 149.563 123.035 149.622 122.967H149.715C150.002 122.916 150.286 122.848 150.565 122.763L151.185 122.593C151.648 122.445 152.118 122.323 152.595 122.228L155.763 121.616C155.833 121.602 155.905 121.602 155.975 121.616C156.099 121.592 156.216 121.54 156.317 121.465C156.418 121.39 156.502 121.294 156.561 121.182L158.133 118.633C158.256 118.425 158.398 118.228 158.557 118.046C158.606 117.997 158.664 117.957 158.728 117.931C158.793 117.905 158.862 117.892 158.931 117.893C159.017 117.889 159.103 117.909 159.177 117.953C159.381 118.097 159.432 118.259 159.33 118.446C159.126 118.837 158.931 119.185 158.744 119.491C158.557 119.797 158.26 120.265 157.852 120.876C157.814 120.976 157.763 121.071 157.699 121.157C157.703 121.177 157.703 121.197 157.699 121.216C157.694 121.225 157.691 121.236 157.691 121.246C157.691 121.257 157.694 121.267 157.699 121.276C157.699 121.318 157.742 121.335 157.818 121.335C158.804 121.199 159.916 121.089 161.139 121.029L161.632 120.97C161.819 120.97 162.048 120.97 162.311 120.97H163.297C163.891 120.97 164.783 120.97 165.972 121.038C166.275 121.063 166.575 121.123 166.864 121.216C167.074 121.297 167.263 121.425 167.416 121.59C167.446 121.658 167.466 121.73 167.475 121.803ZM147.643 129.979C147.683 129.726 147.703 129.47 147.703 129.214C147.713 129.132 147.713 129.05 147.703 128.968C147.703 128.925 147.703 128.908 147.635 128.908C147.567 128.908 147.575 128.908 147.575 128.908C147.545 128.932 147.524 128.965 147.516 129.002L147.116 129.852C146.768 130.532 146.513 131.059 146.361 131.45C146.2 131.884 146.102 132.339 146.072 132.801C146.057 132.971 146.089 133.141 146.165 133.294C146.2 133.335 146.248 133.362 146.301 133.37C146.325 133.378 146.351 133.377 146.376 133.37C146.4 133.362 146.421 133.348 146.437 133.328L146.624 133.081C146.743 132.792 146.93 132.325 147.176 131.679C147.332 131.305 147.466 130.922 147.575 130.532C147.575 130.438 147.601 130.251 147.643 129.979Z" fill="white"/>
<path d="M154.285 133.982C154.218 133.925 154.166 133.852 154.132 133.77C154.116 133.709 154.116 133.644 154.132 133.583C154.146 133.48 154.166 133.378 154.192 133.277C154.263 132.803 154.409 132.344 154.625 131.917C155.015 131.016 155.338 130.319 155.593 129.826C155.848 129.333 156.23 128.662 156.748 127.795C156.808 127.633 156.918 127.608 157.088 127.71C157.258 127.812 157.343 127.965 157.241 128.228C156.332 129.869 155.856 130.778 155.797 130.94L155.729 131.152L156.009 130.719C156.424 130.055 156.915 129.442 157.47 128.891C157.895 128.418 158.413 128.036 158.99 127.769C159.114 127.706 159.251 127.674 159.39 127.676C159.611 127.68 159.825 127.754 160.001 127.888L160.188 128.075C160.23 128.177 160.23 128.254 160.188 128.288C160.146 128.322 160.052 128.339 159.976 128.288L159.882 128.177C159.864 128.154 159.841 128.135 159.815 128.121C159.788 128.108 159.759 128.101 159.729 128.101C159.629 128.092 159.529 128.104 159.434 128.136C159.339 128.168 159.251 128.22 159.177 128.288C158.922 128.448 158.675 128.621 158.438 128.806C158.15 129.078 157.895 129.316 157.682 129.529C157.444 129.777 157.222 130.041 157.02 130.319C156.595 130.948 156.171 131.577 155.856 132.189C155.771 132.359 155.627 132.605 155.423 132.928L154.871 133.88C154.786 134.067 154.676 134.152 154.531 134.127C154.482 134.125 154.433 134.11 154.39 134.085C154.347 134.06 154.311 134.025 154.285 133.982Z" fill="white"/>
<path d="M161.352 133.302C161.06 133.299 160.771 133.239 160.502 133.124C160.154 132.965 159.844 132.733 159.593 132.444C159.381 132.182 159.267 131.854 159.271 131.517C159.287 131.088 159.426 130.672 159.67 130.319C160.154 129.613 160.797 129.031 161.547 128.619C161.753 128.497 161.987 128.433 162.226 128.432C162.537 128.436 162.837 128.547 163.076 128.747C163.208 128.833 163.307 128.962 163.356 129.112C163.392 129.177 163.413 129.25 163.416 129.325C163.416 129.385 163.403 129.445 163.376 129.5C163.35 129.554 163.311 129.602 163.263 129.639C162.862 130.03 162.414 130.37 161.929 130.65C161.479 130.899 160.981 131.046 160.468 131.084C160.393 131.08 160.318 131.094 160.249 131.123C160.18 131.153 160.119 131.197 160.069 131.254C159.989 131.42 159.957 131.606 159.976 131.789C159.968 131.925 159.992 132.061 160.045 132.186C160.098 132.311 160.179 132.423 160.281 132.512C160.523 132.7 160.825 132.793 161.131 132.775C161.941 132.734 162.727 132.479 163.407 132.036C164.248 131.544 165.005 130.922 165.649 130.191C165.751 130.117 165.866 130.065 165.989 130.039C166.114 130.039 166.131 130.149 166.04 130.37C165.927 130.629 165.775 130.87 165.59 131.084C165.169 131.571 164.689 132.005 164.163 132.376C163.621 132.729 163.024 132.987 162.396 133.141C162.057 133.242 161.706 133.296 161.352 133.302ZM161.632 129.979L162.065 129.673L162.617 129.274L162.677 129.155C162.677 129.07 162.617 129.027 162.49 129.027C162.349 129.038 162.212 129.082 162.091 129.155C161.519 129.482 161.01 129.908 160.587 130.412C160.96 130.336 161.315 130.189 161.632 129.979Z" fill="white"/>
<path d="M172.818 134.169C172.63 134.167 172.444 134.135 172.266 134.076C172.152 134.054 172.049 133.992 171.976 133.902C171.903 133.812 171.864 133.699 171.867 133.583C171.851 133.501 171.851 133.418 171.867 133.336C171.924 133.111 172.022 132.898 172.155 132.707L172.419 132.325C173.256 130.935 174.39 129.748 175.74 128.849C175.901 128.738 175.986 128.628 175.986 128.509C175.986 128.39 175.884 128.237 175.68 128.135C175.517 128.054 175.331 128.032 175.154 128.075C174.536 128.162 173.941 128.37 173.404 128.687C172.747 129.078 172.137 129.543 171.586 130.073C170.978 130.68 170.41 131.328 169.888 132.011C169.698 132.277 169.536 132.561 169.403 132.86C169.259 133.158 169.166 133.336 169.123 133.404C169.098 133.453 169.078 133.504 169.064 133.557C169.039 133.62 169.008 133.68 168.97 133.736C168.843 133.94 168.707 134.016 168.537 133.957C168.367 133.897 168.172 133.685 168.231 133.464C168.308 133.047 168.41 132.636 168.537 132.232C168.537 132.13 168.622 131.909 168.724 131.569C168.818 131.247 168.941 130.934 169.089 130.634C169.178 130.457 169.258 130.275 169.327 130.09C169.395 129.903 169.454 129.75 169.488 129.648C170.108 128.254 170.576 127.217 170.907 126.537C171.238 125.857 171.561 125.237 172.011 124.404C172.461 123.571 172.86 122.874 173.183 122.296C173.633 121.539 174.194 120.673 174.882 119.695C175.303 119.025 175.792 118.402 176.343 117.834C176.431 117.744 176.537 117.673 176.654 117.626C176.771 117.579 176.896 117.558 177.022 117.562C177.154 117.562 177.285 117.59 177.406 117.642C177.527 117.695 177.636 117.772 177.727 117.868C177.788 117.928 177.836 117.999 177.868 118.078C177.9 118.157 177.916 118.242 177.914 118.327C177.904 118.423 177.881 118.517 177.846 118.607C177.774 118.838 177.683 119.063 177.574 119.279C177.447 119.525 177.37 119.704 177.328 119.806C176.505 121.589 175.554 123.31 174.483 124.956C173.552 126.471 172.498 127.907 171.331 129.248C171.068 129.512 170.813 129.792 170.576 130.098C170.338 130.404 170.193 130.566 170.134 130.651C170.669 130.115 171.145 129.665 171.578 129.299C172.005 128.932 172.469 128.61 172.962 128.339C173.325 128.139 173.7 127.96 174.083 127.803C174.41 127.67 174.759 127.601 175.111 127.599C175.379 127.595 175.644 127.655 175.885 127.773C176.126 127.891 176.335 128.065 176.496 128.279C176.597 128.407 176.699 128.424 176.801 128.339L177.294 128.22C177.424 128.183 177.558 128.163 177.693 128.16C177.921 128.154 178.146 128.216 178.339 128.339C178.43 128.405 178.506 128.489 178.565 128.585C178.623 128.682 178.662 128.788 178.678 128.9C178.721 129.061 178.678 129.155 178.559 129.172H178.492C178.429 129.172 178.37 129.121 178.313 129.019C178.258 128.914 178.189 128.817 178.109 128.73C178.082 128.696 178.047 128.668 178.007 128.649C177.967 128.63 177.924 128.62 177.88 128.619C177.763 128.635 177.649 128.666 177.54 128.713L177.421 128.772C177.319 128.773 177.217 128.795 177.123 128.837C177.03 128.88 176.946 128.942 176.878 129.019C176.749 129.212 176.67 129.434 176.648 129.665C176.532 130.505 176.217 131.307 175.731 132.002L175.145 132.852C174.956 133.116 174.727 133.348 174.466 133.54C174.106 133.823 173.701 134.041 173.268 134.186C173.118 134.194 172.967 134.188 172.818 134.169ZM172.546 126.52C173.418 125.273 174.267 123.939 175.094 122.517C175.921 121.095 176.595 119.763 177.116 118.522C177.143 118.475 177.16 118.423 177.167 118.369C177.165 118.327 177.168 118.284 177.175 118.242C177.175 118.157 177.175 118.114 177.082 118.114C177.015 118.115 176.95 118.132 176.892 118.165C176.834 118.197 176.785 118.244 176.75 118.301C176.528 118.522 176.321 118.757 176.13 119.007C175.663 119.644 175.188 120.35 174.72 121.131L174.168 121.981C173.981 122.248 173.438 123.242 172.538 124.965L172.164 125.636C172.045 125.866 171.935 126.07 171.824 126.257C171.603 126.647 171.382 127.055 171.17 127.489C170.967 127.873 170.796 128.274 170.66 128.687C170.665 128.721 170.665 128.755 170.66 128.789C170.645 128.821 170.638 128.856 170.638 128.891C170.638 128.927 170.645 128.961 170.66 128.993C171.348 128.222 171.978 127.401 172.546 126.537V126.52ZM172.886 133.659L173.098 133.566C173.222 133.489 173.349 133.418 173.48 133.353C173.648 133.264 173.808 133.158 173.956 133.039C174.893 132.15 175.573 131.026 175.926 129.784C175.951 129.703 175.951 129.618 175.926 129.537C175.859 129.537 175.782 129.537 175.68 129.656L175.06 130.243C174.466 130.838 174.007 131.314 173.693 131.671C173.378 132.043 173.094 132.441 172.843 132.86L172.597 133.353C172.586 133.4 172.572 133.445 172.555 133.489C172.538 133.515 172.529 133.544 172.529 133.574C172.529 133.605 172.538 133.634 172.555 133.659C172.639 133.736 172.741 133.736 172.928 133.676L172.886 133.659Z" fill="white"/>
<path d="M179.986 133.302C179.694 133.298 179.406 133.238 179.137 133.124C178.79 132.967 178.482 132.735 178.237 132.444C178.021 132.184 177.907 131.855 177.914 131.517C177.926 131.087 178.065 130.67 178.313 130.319C178.794 129.613 179.434 129.031 180.182 128.619C180.388 128.497 180.622 128.433 180.861 128.432C181.172 128.438 181.471 128.549 181.711 128.747C181.838 128.836 181.934 128.964 181.982 129.112C182.021 129.177 182.044 129.25 182.05 129.325C182.051 129.386 182.037 129.447 182.009 129.502C181.981 129.557 181.94 129.604 181.889 129.639C181.488 130.03 181.04 130.37 180.556 130.65C180.106 130.9 179.607 131.048 179.095 131.084C179.02 131.08 178.945 131.094 178.876 131.123C178.807 131.153 178.745 131.197 178.695 131.254C178.62 131.422 178.587 131.606 178.602 131.789C178.595 131.925 178.618 132.061 178.671 132.186C178.724 132.311 178.805 132.423 178.908 132.512C179.15 132.699 179.452 132.792 179.757 132.775C180.568 132.733 181.353 132.478 182.033 132.036C182.872 131.542 183.629 130.919 184.276 130.191C184.376 130.116 184.492 130.064 184.615 130.039C184.734 130.039 184.751 130.149 184.658 130.37C184.548 130.629 184.399 130.87 184.216 131.084C183.79 131.569 183.308 132.003 182.781 132.376C182.24 132.73 181.643 132.989 181.014 133.141C180.681 133.241 180.335 133.296 179.986 133.302ZM180.258 129.979C180.409 129.886 180.554 129.784 180.691 129.673L181.243 129.274L181.303 129.155C181.303 129.07 181.243 129.027 181.125 129.027C180.984 129.038 180.847 129.082 180.725 129.155C180.152 129.482 179.64 129.908 179.214 130.412C179.586 130.336 179.941 130.189 180.258 129.979Z" fill="white"/>
<path d="M183.825 132.971C183.666 132.951 183.516 132.886 183.392 132.784C183.31 132.717 183.243 132.633 183.196 132.537C183.149 132.442 183.123 132.338 183.121 132.231C183.117 132.055 183.155 131.88 183.231 131.721C183.3 131.572 183.379 131.427 183.469 131.288C183.533 131.206 183.59 131.117 183.639 131.024C184.203 130.161 184.913 129.402 185.737 128.781C185.956 128.6 186.22 128.482 186.501 128.441C186.674 128.468 186.84 128.533 186.986 128.629C187.133 128.726 187.257 128.853 187.35 129.002C187.416 128.996 187.48 128.975 187.537 128.942C187.611 128.872 187.707 128.83 187.809 128.823C187.897 128.829 187.982 128.859 188.055 128.908C188.139 128.964 188.2 129.048 188.225 129.146C188.228 129.244 188.213 129.342 188.183 129.435L187.69 130.353C187.594 130.515 187.531 130.694 187.503 130.88C187.494 130.93 187.494 130.982 187.503 131.033C187.503 131.194 187.622 131.279 187.843 131.279C188.256 131.298 188.666 131.207 189.032 131.016C189.535 130.799 190.023 130.549 190.493 130.268C190.791 130.096 191.075 129.9 191.342 129.682H191.461C191.589 129.682 191.631 129.758 191.589 129.903C191.495 130.136 191.336 130.337 191.13 130.48L190.357 130.973C190.035 131.184 189.697 131.369 189.346 131.526C188.934 131.734 188.482 131.85 188.021 131.866C187.724 131.864 187.438 131.749 187.223 131.543C187.106 131.447 187.01 131.329 186.941 131.194C186.872 131.059 186.832 130.912 186.824 130.761C186.824 130.741 186.818 130.722 186.808 130.705C186.797 130.689 186.782 130.676 186.764 130.667L185.745 131.653C185.354 132.002 184.964 132.333 184.581 132.639C184.47 132.731 184.343 132.803 184.208 132.852C184.09 132.919 183.96 132.959 183.825 132.971ZM184.106 132.197C184.598 131.789 184.955 131.466 185.176 131.245L186.314 130.166L186.841 129.614C186.91 129.531 186.957 129.431 186.977 129.325C186.982 129.282 186.978 129.238 186.965 129.197C186.951 129.156 186.929 129.118 186.9 129.087C186.877 129.06 186.848 129.039 186.816 129.024C186.783 129.01 186.749 129.002 186.713 129.002C186.663 128.992 186.611 128.992 186.56 129.002L186.442 129.061C186.318 129.117 186.203 129.192 186.102 129.282C185.652 129.648 185.32 129.937 185.117 130.132C184.924 130.331 184.751 130.547 184.598 130.778L184.165 131.398C183.967 131.662 183.831 131.967 183.766 132.291C183.886 132.293 184.004 132.26 184.106 132.197Z" fill="white"/>
<path d="M212.754 123.001C212.735 123.325 212.592 123.63 212.355 123.851L212.228 123.911C212.126 123.911 212.058 123.851 212.016 123.724C212.002 123.654 212.002 123.581 212.016 123.511C212.032 123.459 212.052 123.408 212.075 123.358C212.134 123.171 212.177 123.061 212.194 123.018V122.899C212.191 122.844 212.172 122.791 212.139 122.747C212.105 122.703 212.06 122.67 212.007 122.653L211.676 122.559C211.194 122.457 210.706 122.383 210.215 122.338C209.586 122.279 209.077 122.253 208.686 122.253H208.015C207.276 122.253 206.265 122.313 204.974 122.389C203.683 122.466 202.876 122.525 202.571 122.585C202.45 122.602 202.327 122.602 202.205 122.585C202.052 122.591 201.901 122.634 201.767 122.709C201.633 122.784 201.518 122.89 201.433 123.018C200.789 123.911 200.204 124.845 199.683 125.815C198.837 127.308 198.224 128.921 197.865 130.6C197.381 132.486 197.124 134.423 197.101 136.371C197.084 136.708 197.084 137.045 197.101 137.382C197.127 137.724 197.187 138.063 197.279 138.393C197.368 138.677 197.529 138.931 197.746 139.133L197.806 139.201C197.806 139.201 197.806 139.277 197.806 139.32C197.79 139.338 197.77 139.353 197.748 139.363C197.726 139.373 197.703 139.379 197.678 139.379C197.438 139.351 197.218 139.229 197.067 139.039C196.841 138.826 196.689 138.546 196.634 138.241C196.634 138.122 196.574 137.918 196.515 137.646C196.455 137.374 196.413 137.119 196.387 136.889C196.387 136.337 196.387 135.801 196.387 135.291C196.455 134.118 196.557 133.056 196.693 132.104C196.837 131.159 197.064 130.229 197.373 129.325V129.197C197.373 129.138 197.373 129.104 197.313 129.095C197.304 129.091 197.295 129.089 197.285 129.089C197.275 129.089 197.266 129.091 197.257 129.095C197.248 129.099 197.24 129.105 197.234 129.112C197.227 129.12 197.223 129.128 197.22 129.138L196.787 129.571C196.659 129.733 196.455 129.979 196.175 130.302L195.53 131.042C195.426 131.165 195.296 131.263 195.149 131.328C195.001 131.393 194.841 131.423 194.68 131.416C194.519 131.42 194.359 131.388 194.212 131.322C194.065 131.255 193.934 131.157 193.831 131.033C193.61 130.782 193.489 130.458 193.491 130.124V129.843C193.432 129.801 193.364 129.843 193.304 129.903L192.463 131.399C192.173 131.802 191.906 132.222 191.665 132.656C191.55 132.799 191.415 132.925 191.266 133.03C191.104 133.119 190.924 133.172 190.739 133.183C190.643 133.184 190.548 133.166 190.459 133.13C190.37 133.093 190.289 133.039 190.221 132.971C190.159 132.91 190.111 132.837 190.079 132.757C190.047 132.676 190.032 132.59 190.034 132.504C190.073 132.075 190.164 131.652 190.306 131.246L190.493 130.719C190.552 130.54 190.663 130.251 190.816 129.869C190.91 129.601 191.038 129.347 191.198 129.112C191.257 129.054 191.336 129.02 191.419 129.019C191.493 129.02 191.566 129.041 191.631 129.078C191.689 129.118 191.734 129.174 191.758 129.24C191.776 129.35 191.776 129.461 191.758 129.571C191.731 129.681 191.688 129.787 191.631 129.886L191.385 130.464C191.306 130.721 191.213 130.974 191.104 131.22C190.951 131.61 190.848 132.019 190.799 132.436C190.841 132.521 191.028 132.317 191.351 131.832L191.911 130.982C192.132 130.659 192.54 130.093 193.134 129.282L193.661 128.602L193.941 128.33C193.999 128.27 194.074 128.228 194.156 128.211C194.238 128.194 194.323 128.203 194.4 128.237C194.478 128.262 194.546 128.31 194.595 128.376C194.643 128.441 194.67 128.521 194.672 128.602C194.665 128.838 194.631 129.072 194.57 129.299C194.493 129.571 194.442 129.784 194.4 129.928C194.34 130.234 194.307 130.404 194.307 130.421C194.315 130.506 194.335 130.589 194.366 130.668C194.381 130.716 194.408 130.76 194.444 130.796C194.48 130.831 194.524 130.858 194.572 130.873C194.621 130.888 194.672 130.891 194.722 130.882C194.772 130.873 194.819 130.852 194.859 130.821C195.061 130.688 195.239 130.521 195.385 130.328L196.608 128.849C197.39 127.888 198.001 127.064 198.46 126.393L199.012 125.313C199.203 124.942 199.376 124.562 199.53 124.174C199.615 124.013 199.691 123.851 199.759 123.698L199.963 123.282C199.984 123.234 200.01 123.188 200.04 123.146C200.07 123.103 200.095 123.058 200.116 123.01C200.159 123.01 200.159 122.933 200.116 122.916L199.997 122.857L199.53 122.942L198.918 123.086L198.409 123.341L197.084 123.681C196.929 123.713 196.776 123.753 196.625 123.8C196.448 123.862 196.26 123.885 196.073 123.868H195.674C195.508 123.872 195.343 123.834 195.195 123.758C195.047 123.682 194.92 123.571 194.825 123.435C194.634 123.133 194.54 122.78 194.553 122.423C194.56 122.346 194.582 122.271 194.619 122.202C194.655 122.134 194.705 122.073 194.765 122.024C194.884 121.896 194.978 121.879 195.045 121.956C195.088 122.021 195.109 122.099 195.105 122.177C195.105 122.237 195.087 122.297 195.054 122.347L194.977 122.483C194.977 122.483 194.935 122.568 194.918 122.619C194.907 122.686 194.907 122.755 194.918 122.823C194.909 122.907 194.928 122.993 194.973 123.065C195.017 123.137 195.085 123.193 195.164 123.222C195.386 123.328 195.634 123.369 195.878 123.341L196.353 123.239L196.829 123.129C197.528 122.928 198.237 122.764 198.952 122.636C199.564 122.517 200.014 122.415 200.303 122.33C200.539 122.255 200.751 122.117 200.914 121.93C201.059 121.784 201.189 121.624 201.305 121.454C201.413 121.281 201.541 121.121 201.687 120.979L202.18 120.358C202.545 119.908 202.834 119.585 203.029 119.372C203.149 119.244 203.313 119.168 203.488 119.16C203.644 119.17 203.794 119.223 203.921 119.313C204.066 119.398 204.083 119.534 203.981 119.712C203.879 119.891 203.709 120.171 203.463 120.562C203.216 120.953 202.927 121.31 202.613 121.718L202.494 121.871C202.494 121.871 202.494 121.871 202.494 121.913C202.494 121.956 202.494 121.913 202.537 121.913C202.579 121.913 202.613 121.913 202.69 121.913C204.65 121.707 206.621 121.614 208.593 121.633C209.137 121.628 209.681 121.651 210.223 121.701C210.877 121.777 211.378 121.862 211.727 121.939C211.898 121.95 212.065 121.993 212.219 122.066C212.351 122.117 212.468 122.199 212.56 122.306C212.652 122.413 212.716 122.541 212.746 122.678C212.76 122.785 212.762 122.894 212.754 123.001Z" fill="white"/>
<path d="M201.628 133.302C201.336 133.298 201.048 133.238 200.779 133.124C200.433 132.965 200.125 132.733 199.878 132.444C199.663 132.184 199.548 131.855 199.556 131.517C199.568 131.087 199.707 130.67 199.955 130.319C200.435 129.613 201.076 129.031 201.823 128.619C202.056 128.478 202.328 128.414 202.6 128.437C202.871 128.46 203.129 128.568 203.335 128.747C203.463 128.836 203.558 128.964 203.607 129.112C203.645 129.177 203.668 129.25 203.675 129.325C203.676 129.385 203.662 129.445 203.636 129.5C203.609 129.555 203.57 129.602 203.522 129.639C203.116 130.028 202.666 130.368 202.18 130.651C201.73 130.9 201.232 131.048 200.719 131.084C200.644 131.081 200.569 131.094 200.5 131.124C200.431 131.153 200.369 131.198 200.32 131.254C200.244 131.422 200.212 131.606 200.227 131.789C200.219 131.925 200.243 132.061 200.296 132.186C200.349 132.311 200.43 132.423 200.532 132.512C200.775 132.698 201.076 132.791 201.382 132.775C202.192 132.733 202.977 132.478 203.658 132.036C204.499 131.544 205.256 130.922 205.9 130.192C206.001 130.116 206.117 130.064 206.24 130.039C206.359 130.039 206.376 130.149 206.24 130.37C206.13 130.629 205.981 130.87 205.798 131.084C205.372 131.569 204.89 132.003 204.363 132.376C203.822 132.73 203.225 132.989 202.596 133.141C202.282 133.236 201.956 133.291 201.628 133.302ZM201.9 129.979C202.05 129.886 202.195 129.784 202.333 129.673L202.885 129.274L202.944 129.155C202.944 129.07 202.885 129.027 202.766 129.027C202.625 129.039 202.488 129.082 202.367 129.155C201.795 129.484 201.283 129.91 200.855 130.413C201.228 130.337 201.583 130.189 201.9 129.979ZM203.471 125.092C203.601 125.107 203.721 125.168 203.811 125.262C203.861 125.301 203.902 125.35 203.933 125.405C203.964 125.461 203.983 125.522 203.989 125.585C203.989 125.693 203.96 125.799 203.904 125.891C203.607 126.372 203.265 126.824 202.885 127.242C202.844 127.295 202.793 127.339 202.734 127.371C202.676 127.403 202.612 127.423 202.545 127.429C202.489 127.435 202.431 127.427 202.378 127.406C202.325 127.385 202.278 127.353 202.239 127.31C202.205 127.272 202.187 127.222 202.187 127.17C202.187 127.119 202.205 127.069 202.239 127.03L202.545 126.503C202.605 126.426 202.724 126.248 202.902 125.984C203.06 125.743 203.188 125.483 203.284 125.211C203.292 125.183 203.307 125.157 203.328 125.136C203.349 125.115 203.375 125.1 203.403 125.092H203.471Z" fill="white"/>
</g>
<defs>
<clipPath id="clip0_37_248">
<rect width="300" height="143" fill="white"/>
</clipPath>
</defs>
</svg>
