<svg width="44" height="40" viewBox="0 0 44 40" fill="none" xmlns="http://www.w3.org/2000/svg">
<path d="M22.6902 0.223141C22.4226 0.0767352 22.1225 0 21.8175 0C21.5124 0 21.2123 0.0767352 20.9448 0.223141L2.54537 10.2592C1.81085 10.6592 1.21087 11.23 0.77452 11.9064L21.8175 23.3824L42.8604 11.9064C42.4174 11.2186 41.8084 10.6533 41.0895 10.2628L22.6902 0.219504V0.223141ZM0 32.7275V15.6263L20.9448 27.0513C21.2123 27.1977 21.5124 27.2745 21.8175 27.2745C22.1225 27.2745 22.4226 27.1977 22.6902 27.0513L43.6349 15.6263V32.7275C43.6349 34.6563 42.8687 36.5061 41.5048 37.8699C40.141 39.2338 38.2912 40 36.3624 40H7.27249C5.3437 40 3.49392 39.2338 2.13006 37.8699C0.766206 36.5061 0 34.6563 0 32.7275Z" fill="white"/>
</svg>
