<svg width="29" height="29" viewBox="0 0 29 29" fill="none" xmlns="http://www.w3.org/2000/svg">
<path d="M17.9042 14.4979L28.2858 4.13898C28.7405 3.68428 28.9959 3.06759 28.9959 2.42456C28.9959 1.78152 28.7405 1.16483 28.2858 0.710136C27.8312 0.255444 27.2146 0 26.5717 0C25.9287 0 25.3121 0.255444 24.8575 0.710136L14.5 11.0932L4.14251 0.710136C3.68788 0.255444 3.07127 -4.79096e-09 2.42833 0C1.78539 4.79097e-09 1.16878 0.255444 0.714156 0.710136C0.259528 1.16483 0.00412031 1.78152 0.0041203 2.42456C0.0041203 3.06759 0.259528 3.68428 0.714156 4.13898L11.0958 14.4979L0.714156 24.8569C0.487864 25.0814 0.308252 25.3484 0.18568 25.6427C0.063107 25.9369 0 26.2526 0 26.5713C0 26.8901 0.063107 27.2057 0.18568 27.5C0.308252 27.7942 0.487864 28.0613 0.714156 28.2857C0.938599 28.5121 1.20563 28.6917 1.49984 28.8143C1.79404 28.9369 2.10961 29 2.42833 29C2.74705 29 3.06262 28.9369 3.35683 28.8143C3.65104 28.6917 3.91807 28.5121 4.14251 28.2857L14.5 17.9026L24.8575 28.2857C25.0819 28.5121 25.349 28.6917 25.6432 28.8143C25.9374 28.9369 26.2529 29 26.5717 29C26.8904 29 27.206 28.9369 27.5002 28.8143C27.7944 28.6917 28.0614 28.5121 28.2858 28.2857C28.5121 28.0613 28.6918 27.7942 28.8143 27.5C28.9369 27.2057 29 26.8901 29 26.5713C29 26.2526 28.9369 25.9369 28.8143 25.6427C28.6918 25.3484 28.5121 25.0814 28.2858 24.8569L17.9042 14.4979Z" fill="#54514C"/>
</svg>
