<svg width="30" height="30" viewBox="0 0 30 30" fill="none" xmlns="http://www.w3.org/2000/svg">
<path fill-rule="evenodd" clip-rule="evenodd" d="M26.6667 2.55556H3.33333C3.12705 2.55556 2.92922 2.6375 2.78336 2.78336C2.6375 2.92922 2.55556 3.12705 2.55556 3.33333V26.6667C2.55556 26.8729 2.6375 27.0708 2.78336 27.2166C2.92922 27.3625 3.12705 27.4444 3.33333 27.4444H26.6667C26.8729 27.4444 27.0708 27.3625 27.2166 27.2166C27.3625 27.0708 27.4444 26.8729 27.4444 26.6667V3.33333C27.4444 3.12705 27.3625 2.92922 27.2166 2.78336C27.0708 2.6375 26.8729 2.55556 26.6667 2.55556ZM3.33333 1C2.71449 1 2.121 1.24583 1.68342 1.68342C1.24583 2.121 1 2.71449 1 3.33333V26.6667C1 27.2855 1.24583 27.879 1.68342 28.3166C2.121 28.7542 2.71449 29 3.33333 29H26.6667C27.2855 29 27.879 28.7542 28.3166 28.3166C28.7542 27.879 29 27.2855 29 26.6667V3.33333C29 2.71449 28.7542 2.121 28.3166 1.68342C27.879 1.24583 27.2855 1 26.6667 1H3.33333Z" fill="#E8426A" stroke="#E8426A" stroke-width="0.75"/>
<path fill-rule="evenodd" clip-rule="evenodd" d="M14.2222 7.22222V4.88889H15.7778V7.22222H18.1111V8.77777H15.7778V11.1111H14.2222V8.77777H11.8889V7.22222H14.2222ZM4.67503 11.9184C4.57681 11.9466 4.48509 11.9938 4.40512 12.0573C4.32515 12.1209 4.25848 12.1996 4.20894 12.289C4.15939 12.3783 4.12793 12.4765 4.11635 12.578C4.10478 12.6796 4.11331 12.7823 4.14147 12.8806L5.64569 18.1469L4.64314 23.4101C4.63398 23.458 4.62929 23.5067 4.62914 23.5556H2.16669C1.96041 23.5556 1.76258 23.6375 1.61672 23.7834C1.47086 23.9292 1.38892 24.127 1.38892 24.3333C1.38892 24.5396 1.47086 24.7374 1.61672 24.8833C1.76258 25.0292 1.96041 25.1111 2.16669 25.1111H27.4445C27.6508 25.1111 27.8486 25.0292 27.9944 24.8833C28.1403 24.7374 28.2222 24.5396 28.2222 24.3333C28.2222 24.127 28.1403 23.9292 27.9944 23.7834C27.8486 23.6375 27.6508 23.5556 27.4445 23.5556H25.3709C25.3708 23.5067 25.3662 23.458 25.3569 23.4101L24.3536 18.1469L25.8586 12.8806C25.9153 12.6822 25.8909 12.4695 25.7908 12.2891C25.6907 12.1087 25.523 11.9756 25.3246 11.9188C25.1263 11.8621 24.9136 11.8865 24.7332 11.9866C24.5528 12.0868 24.4196 12.2544 24.3629 12.4528L23.4304 15.7179H17.3334V17.2734H18.3507V18.5894H17.9315C17.752 18.5894 17.578 18.6514 17.439 18.7649C17.3 18.8785 17.2046 19.0366 17.1689 19.2125C17.1332 19.3884 17.1594 19.5712 17.2431 19.7299C17.3268 19.8887 17.4628 20.0136 17.6281 20.0836L16.5921 23.3191C16.5678 23.3956 16.5555 23.4753 16.5556 23.5556H13.4445C13.4444 23.475 13.4318 23.395 13.4071 23.3183L12.3727 20.0836C12.5376 20.0133 12.6731 19.8883 12.7565 19.7296C12.8398 19.571 12.8658 19.3884 12.83 19.2128C12.7942 19.0372 12.6989 18.8793 12.5602 18.7659C12.4215 18.6524 12.2478 18.5904 12.0686 18.5902H11.6494V17.2734H12.6667V15.7179H6.56892L5.63636 12.4528C5.57972 12.2544 5.44663 12.0867 5.26635 11.9865C5.08606 11.8863 4.87336 11.8618 4.67503 11.9184ZM19.9062 18.5894H22.8548L22.7918 18.2566C22.7688 18.1372 22.7742 18.0141 22.8074 17.8972L22.9863 17.2734H19.9062V18.5894ZM19.1456 20.4444H23.2079L23.8006 23.5556H18.15L19.1456 20.4444ZM10.0938 17.2734V18.5894H7.14525L7.20825 18.2566C7.23121 18.1372 7.22588 18.0141 7.19269 17.8972L7.01381 17.2734H10.0938ZM6.79214 20.4444L6.19947 23.5556H11.85L10.8545 20.4444H6.79214Z" fill="#E8426A" stroke="#E8426A" stroke-width="0.75"/>
</svg>
