<svg width="41" height="40" viewBox="0 0 41 40" fill="none" xmlns="http://www.w3.org/2000/svg">
<path d="M26.6791 28.4277L30.1249 24.982C30.589 24.5236 31.1762 24.2099 31.8152 24.0788C32.4541 23.9477 33.1174 24.005 33.7245 24.2436L37.924 25.9203C38.5375 26.1693 39.0636 26.5944 39.4359 27.1419C39.8082 27.6894 40.0101 28.3348 40.0161 28.9969V36.6884C40.0126 37.1388 39.9179 37.5837 39.7378 37.9966C39.5577 38.4094 39.296 38.7815 38.9683 39.0905C38.6406 39.3995 38.2538 39.639 37.8311 39.7946C37.4084 39.9501 36.9586 40.0185 36.5088 39.9957C7.08125 38.1651 1.14344 13.2448 0.0204862 3.70735C-0.0316421 3.239 0.0159861 2.76491 0.160237 2.31629C0.304489 1.86766 0.542094 1.45466 0.857421 1.10446C1.17275 0.754257 1.55865 0.474788 1.98974 0.284438C2.42084 0.0940877 2.88735 -0.00282917 3.35858 6.28686e-05H10.7885C11.4516 0.0020254 12.0988 0.202298 12.6471 0.575122C13.1954 0.947946 13.6196 1.47627 13.8651 2.09214L15.5419 6.29169C15.7884 6.89634 15.8513 7.56023 15.7227 8.20042C15.5941 8.84061 15.2797 9.42872 14.8189 9.89129L11.3731 13.3371C11.3731 13.3371 13.3575 26.7664 26.6791 28.4277Z" fill="white"/>
</svg>
